EncodeSansSemiExpanded-Light.ufo
<glyph name="exclam" format="2">
  <advance width="501.3838383838384"/>
  <unicode hex="0021"/>
  <outline>
    <contour>
      <point x="211.56060606060606" y="346.54545454545456" type="line"/>
      <point x="290.6010101010101" y="346.54545454545456" type="line"/>
      <point x="314.83333333333337" y="904.989898989899" type="line"/>
      <point x="314.83333333333337" y="1480.0" type="line"/>
      <point x="186.55050505050505" y="1480.0" type="line"/>
      <point x="186.55050505050505" y="904.989898989899" type="line"/>
    </contour>
    <contour>
      <point x="250.6919191919192" y="-11.414141414141415" type="curve" smooth="yes"/>
      <point x="305.99494949494954" y="-11.414141414141415"/>
      <point x="343.37878787878793" y="22.55555555555556"/>
      <point x="343.37878787878793" y="75.19191919191921" type="curve" smooth="yes"/>
      <point x="343.37878787878793" y="127.82828282828285"/>
      <point x="306.5606060606061" y="163.51515151515156"/>
      <point x="250.6919191919192" y="163.51515151515156" type="curve" smooth="yes"/>
      <point x="194.82323232323233" y="163.51515151515156"/>
      <point x="158.0050505050505" y="128.39393939393943"/>
      <point x="158.0050505050505" y="75.19191919191921" type="curve" smooth="yes"/>
      <point x="158.0050505050505" y="21.989898989898997"/>
      <point x="195.38888888888889" y="-11.414141414141415"/>
    </contour>
  </outline>
</glyph>
<glyph name="numbersign" format="2">
  <advance width="1182.5252525252527"/>
  <unicode hex="0023"/>
  <outline>
    <contour>
      <point x="648.7424242424242" y="0.0" type="line"/>
      <point x="753.1363636363636" y="0.0" type="line"/>
      <point x="922.1363636363636" y="1480.0" type="line"/>
      <point x="817.7424242424242" y="1480.0" type="line"/>
    </contour>
    <contour>
      <point x="105.0" y="471.5151515151515" type="line"/>
      <point x="1077.5252525252527" y="471.5151515151515" type="line"/>
      <point x="1077.5252525252527" y="574.989898989899" type="line"/>
      <point x="105.0" y="574.989898989899" type="line"/>
    </contour>
    <contour>
      <point x="260.38888888888886" y="0.0" type="line"/>
      <point x="364.7828282828283" y="0.0" type="line"/>
      <point x="533.7828282828283" y="1480.0" type="line"/>
      <point x="429.3888888888889" y="1480.0" type="line"/>
    </contour>
    <contour>
      <point x="105.0" y="905.010101010101" type="line"/>
      <point x="1077.5252525252527" y="905.010101010101" type="line"/>
      <point x="1077.5252525252527" y="1008.4848484848485" type="line"/>
      <point x="105.0" y="1008.4848484848485" type="line"/>
    </contour>
  </outline>
</glyph>
<glyph name="percent" format="2">
  <advance width="1864.1161616161617"/>
  <unicode hex="0025"/>
  <note>
450
</note>
  <outline>
    <contour>
      <point x="524.8333333333334" y="0.0" type="line"/>
      <point x="637.9191919191919" y="0.0" type="line"/>
      <point x="1339.2828282828284" y="1480.0" type="line"/>
      <point x="1226.1969696969697" y="1480.0" type="line"/>
    </contour>
    <contour>
      <point x="457.5707070707071" y="576.3030303030303" type="curve" smooth="yes"/>
      <point x="654.3686868686868" y="576.3030303030303"/>
      <point x="795.6464646464647" y="707.3838383838383"/>
      <point x="795.6464646464647" y="1037.2222222222222" type="curve" smooth="yes"/>
      <point x="795.6464646464647" y="1367.060606060606"/>
      <point x="657.3737373737374" y="1498.2828282828282"/>
      <point x="457.5707070707071" y="1498.2828282828282" type="curve" smooth="yes"/>
      <point x="257.7676767676768" y="1498.2828282828282"/>
      <point x="119.4949494949495" y="1367.060606060606"/>
      <point x="119.4949494949495" y="1037.2222222222222" type="curve" smooth="yes"/>
      <point x="119.4949494949495" y="707.3838383838383"/>
      <point x="260.77272727272725" y="576.3030303030303"/>
    </contour>
    <contour>
      <point x="457.5707070707071" y="668.2979797979798" type="curve" smooth="yes"/>
      <point x="319.6717171717172" y="668.2979797979798"/>
      <point x="225.459595959596" y="765.1565656565657"/>
      <point x="225.459595959596" y="1038.939393939394" type="curve" smooth="yes"/>
      <point x="225.459595959596" y="1311.8636363636363"/>
      <point x="319.6717171717172" y="1406.2878787878788"/>
      <point x="457.5707070707071" y="1406.2878787878788" type="curve" smooth="yes"/>
      <point x="594.1818181818182" y="1406.2878787878788"/>
      <point x="689.6818181818181" y="1311.8636363636363"/>
      <point x="689.6818181818181" y="1035.5050505050506" type="curve" smooth="yes"/>
      <point x="689.6818181818181" y="760.0050505050506"/>
      <point x="594.1818181818182" y="668.2979797979798"/>
    </contour>
    <contour>
      <point x="1406.5454545454545" y="-18.0" type="curve" smooth="yes"/>
      <point x="1603.7727272727275" y="-18.0"/>
      <point x="1744.6212121212122" y="113.08080808080808"/>
      <point x="1744.6212121212122" y="442.9191919191919" type="curve" smooth="yes"/>
      <point x="1744.6212121212122" y="772.7575757575758"/>
      <point x="1605.919191919192" y="903.979797979798"/>
      <point x="1406.5454545454545" y="903.979797979798" type="curve" smooth="yes"/>
      <point x="1207.1717171717173" y="903.979797979798"/>
      <point x="1068.469696969697" y="772.7575757575758"/>
      <point x="1068.469696969697" y="442.9191919191919" type="curve" smooth="yes"/>
      <point x="1068.469696969697" y="113.08080808080808"/>
      <point x="1209.318181818182" y="-18.0"/>
    </contour>
    <contour>
      <point x="1406.5454545454545" y="73.99494949494951" type="curve" smooth="yes"/>
      <point x="1269.9343434343434" y="73.99494949494951"/>
      <point x="1174.4343434343434" y="170.85353535353536"/>
      <point x="1174.4343434343434" y="444.6363636363636" type="curve" smooth="yes"/>
      <point x="1174.4343434343434" y="717.560606060606"/>
      <point x="1269.9343434343434" y="811.9848484848485"/>
      <point x="1406.5454545454545" y="811.9848484848485" type="curve" smooth="yes"/>
      <point x="1543.1565656565658" y="811.9848484848485"/>
      <point x="1638.6565656565658" y="717.560606060606"/>
      <point x="1638.6565656565658" y="441.2020202020202" type="curve" smooth="yes"/>
      <point x="1638.6565656565658" y="165.7020202020202"/>
      <point x="1543.1565656565658" y="73.99494949494951"/>
    </contour>
  </outline>
</glyph>
<glyph name="ampersand" format="2">
  <advance width="1559.949494949495"/>
  <unicode hex="0026"/>
  <outline>
    <contour>
      <point x="1500.520202020202" y="-20.0" type="line"/>
      <point x="1559.949494949495" y="71.11111111111114" type="line"/>
      <point x="734.3333333333334" y="675.1767676767677" type="line" smooth="yes"/>
      <point x="503.72727272727275" y="848.530303030303"/>
      <point x="450.40909090909093" y="939.6161616161617"/>
      <point x="450.40909090909093" y="1080.550505050505" type="curve" smooth="yes"/>
      <point x="450.40909090909093" y="1278.3181818181818"/>
      <point x="567.5050505050506" y="1391.6262626262626"/>
      <point x="854.3686868686868" y="1391.6262626262626" type="curve" smooth="yes"/>
      <point x="950.6010101010102" y="1391.6262626262626"/>
      <point x="1036.7222222222222" y="1380.1262626262626"/>
      <point x="1114.1616161616162" y="1358.469696969697" type="curve"/>
      <point x="1114.1616161616162" y="1467.409090909091" type="line"/>
      <point x="1041.8989898989898" y="1486.3484848484848"/>
      <point x="953.7626262626263" y="1498.2828282828282"/>
      <point x="851.7777777777778" y="1498.2828282828282" type="curve" smooth="yes"/>
      <point x="495.92424242424244" y="1498.2828282828282"/>
      <point x="325.23737373737373" y="1344.6161616161617"/>
      <point x="325.23737373737373" y="1082.3838383838383" type="curve" smooth="yes"/>
      <point x="325.23737373737373" y="906.8383838383838"/>
      <point x="405.5454545454545" y="780.2373737373737"/>
      <point x="674.9040404040404" y="584.0656565656566" type="curve" smooth="yes"/>
    </contour>
    <contour>
      <point x="718.4494949494949" y="-18.0" type="curve" smooth="yes"/>
      <point x="1098.0050505050506" y="-18.0"/>
      <point x="1311.959595959596" y="166.06565656565658"/>
      <point x="1311.959595959596" y="505.01515151515156" type="curve" smooth="yes"/>
      <point x="1311.959595959596" y="596.3333333333334"/>
      <point x="1297.8838383838383" y="692.0606060606061"/>
      <point x="1268.080808080808" y="780.6464646464647" type="curve"/>
      <point x="1158.909090909091" y="780.6464646464647" type="line"/>
      <point x="1189.141414141414" y="692.0606060606061"/>
      <point x="1206.4343434343434" y="593.4747474747475"/>
      <point x="1206.4343434343434" y="505.30808080808083" type="curve" smooth="yes"/>
      <point x="1206.4343434343434" y="216.30808080808083"/>
      <point x="1031.6919191919192" y="81.51515151515153"/>
      <point x="727.7323232323232" y="81.51515151515153" type="curve" smooth="yes"/>
      <point x="409.82828282828285" y="81.51515151515153"/>
      <point x="280.489898989899" y="219.21717171717174"/>
      <point x="280.489898989899" y="413.64646464646466" type="curve" smooth="yes"/>
      <point x="280.489898989899" y="564.1969696969697"/>
      <point x="354.83838383838383" y="674.8636363636364"/>
      <point x="513.2323232323232" y="744.9040404040404" type="curve"/>
      <point x="446.1515151515151" y="816.0505050505051" type="line"/>
      <point x="260.6161616161616" y="736.9949494949495"/>
      <point x="155.45959595959596" y="592.5555555555555"/>
      <point x="155.45959595959596" y="401.7070707070707" type="curve" smooth="yes"/>
      <point x="155.45959595959596" y="155.72727272727272"/>
      <point x="335.1060606060606" y="-18.0"/>
    </contour>
  </outline>
</glyph>
<glyph name="quotesingle" format="2">
  <advance width="426.7979797979798"/>
  <unicode hex="0027"/>
  <outline>
    <contour>
      <point x="177.13636363636363" y="932.6666666666666" type="line"/>
      <point x="249.66161616161617" y="932.6666666666666" type="line"/>
      <point x="277.9343434343435" y="1616.0" type="line"/>
      <point x="148.86363636363635" y="1616.0" type="line"/>
    </contour>
  </outline>
</glyph>
<glyph name="parenleft" format="2">
  <advance width="684.1010101010102"/>
  <unicode hex="0028"/>
  <outline>
    <contour>
      <point x="504.9040404040404" y="-440.0" type="curve"/>
      <point x="642.9898989898991" y="-440.0" type="line"/>
      <point x="373.0909090909091" y="-128.06060606060606"/>
      <point x="266.3838383838384" y="212.4141414141414"/>
      <point x="266.3838383838384" y="588.0" type="curve" smooth="yes"/>
      <point x="266.3838383838384" y="963.5858585858585"/>
      <point x="373.0909090909091" y="1304.060606060606"/>
      <point x="642.9898989898991" y="1616.0" type="curve"/>
      <point x="504.9040404040404" y="1616.0" type="line"/>
      <point x="250.15151515151516" y="1321.7272727272727"/>
      <point x="140.7171717171717" y="968.8787878787879"/>
      <point x="140.7171717171717" y="588.0" type="curve" smooth="yes"/>
      <point x="140.7171717171717" y="207.12121212121212"/>
      <point x="250.15151515151516" y="-145.72727272727272"/>
    </contour>
  </outline>
</glyph>
<glyph name="parenright" format="2">
  <advance width="684.1010101010102"/>
  <unicode hex="0029"/>
  <outline>
    <contour>
      <point x="41.111111111111086" y="-440.0" type="curve"/>
      <point x="179.19696969696972" y="-440.0" type="line"/>
      <point x="433.949494949495" y="-145.72727272727272"/>
      <point x="543.3838383838385" y="207.12121212121212"/>
      <point x="543.3838383838385" y="588.0" type="curve" smooth="yes"/>
      <point x="543.3838383838385" y="968.8787878787879"/>
      <point x="433.949494949495" y="1321.7272727272727"/>
      <point x="179.19696969696972" y="1616.0" type="curve"/>
      <point x="41.111111111111086" y="1616.0" type="line"/>
      <point x="311.010101010101" y="1304.060606060606"/>
      <point x="417.7171717171717" y="963.5858585858585"/>
      <point x="417.7171717171717" y="588.0" type="curve" smooth="yes"/>
      <point x="417.7171717171717" y="212.4141414141414"/>
      <point x="311.010101010101" y="-128.06060606060606"/>
    </contour>
  </outline>
</glyph>
<glyph name="asterisk" format="2">
  <advance width="916.5656565656566"/>
  <unicode hex="002A"/>
  <outline>
    <contour>
      <point x="504.22222222222223" y="1191.2121212121212" type="line"/>
      <point x="698.89898989899" y="1234.5454545454545" type="line"/>
      <point x="886.5656565656566" y="1294.8383838383838" type="line"/>
      <point x="857.1616161616162" y="1383.8989898989898" type="line"/>
      <point x="671.2121212121212" y="1323.5353535353536" type="line"/>
      <point x="485.6666666666667" y="1242.7070707070707" type="line"/>
      <point x="505.4848484848485" y="1443.6666666666667" type="line"/>
      <point x="505.4848484848485" y="1616.0" type="line"/>
      <point x="411.0808080808081" y="1616.0" type="line"/>
      <point x="411.0808080808081" y="1443.6666666666667" type="line"/>
      <point x="430.8989898989899" y="1242.7070707070707" type="line"/>
      <point x="245.35353535353536" y="1323.5353535353536" type="line"/>
      <point x="59.40404040404041" y="1383.8989898989898" type="line"/>
      <point x="30.0" y="1294.8383838383838" type="line"/>
      <point x="217.66666666666666" y="1234.5454545454545" type="line"/>
      <point x="412.34343434343435" y="1191.2121212121212" type="line"/>
      <point x="279.6363636363636" y="1040.5858585858587" type="line"/>
      <point x="172.45959595959596" y="894.9747474747475" type="line"/>
      <point x="249.06565656565658" y="839.2272727272727" type="line"/>
      <point x="356.24242424242425" y="984.6262626262626" type="line"/>
      <point x="458.2828282828283" y="1160.6060606060605" type="line"/>
      <point x="560.3232323232323" y="984.6262626262626" type="line"/>
      <point x="667.5" y="839.2272727272727" type="line"/>
      <point x="744.1060606060606" y="894.9747474747475" type="line"/>
      <point x="636.929292929293" y="1040.5858585858587" type="line"/>
    </contour>
  </outline>
</glyph>
<glyph name="hyphen" format="2">
  <advance width="886.4343434343434"/>
  <unicode hex="002D"/>
  <outline>
    <contour>
      <point x="168.1060606060606" y="508.6969696969697" type="line"/>
      <point x="718.3282828282829" y="508.6969696969697" type="line"/>
      <point x="718.3282828282829" y="614.1313131313132" type="line"/>
      <point x="168.1060606060606" y="614.1313131313132" type="line"/>
    </contour>
  </outline>
</glyph>
<glyph name="period" format="2">
  <advance width="461.3838383838384"/>
  <unicode hex="002E"/>
  <outline>
    <contour>
      <point x="230.6919191919192" y="-11.414141414141415" type="curve" smooth="yes"/>
      <point x="285.99494949494954" y="-11.414141414141415"/>
      <point x="323.37878787878793" y="23.40404040404041"/>
      <point x="323.37878787878793" y="77.52525252525254" type="curve" smooth="yes"/>
      <point x="323.37878787878793" y="131.64646464646466"/>
      <point x="286.5606060606061" y="168.18181818181822"/>
      <point x="230.6919191919192" y="168.18181818181822" type="curve" smooth="yes"/>
      <point x="174.82323232323233" y="168.18181818181822"/>
      <point x="138.0050505050505" y="132.21212121212125"/>
      <point x="138.0050505050505" y="77.52525252525254" type="curve" smooth="yes"/>
      <point x="138.0050505050505" y="22.838383838383844"/>
      <point x="175.38888888888889" y="-11.414141414141415"/>
    </contour>
  </outline>
</glyph>
<glyph name="slash" format="2">
  <advance width="625.0454545454545"/>
  <unicode hex="002F"/>
  <outline>
    <contour>
      <point x="0.0" y="-240.0" type="line"/>
      <point x="121.31818181818186" y="-240.0" type="line"/>
      <point x="625.0454545454545" y="1616.0" type="line"/>
      <point x="503.72727272727275" y="1616.0" type="line"/>
    </contour>
  </outline>
</glyph>
<glyph name="zero" format="2">
  <advance width="1308.2020202020203"/>
  <unicode hex="0030"/>
  <note>
600
</note>
  <outline>
    <contour>
      <point x="653.9949494949495" y="-18.282828282828284" type="curve" smooth="yes"/>
      <point x="970.9898989898991" y="-18.282828282828284"/>
      <point x="1177.4848484848485" y="187.21212121212122"/>
      <point x="1177.4848484848485" y="740.0" type="curve" smooth="yes"/>
      <point x="1177.4848484848485" y="1292.7878787878788"/>
      <point x="975.2828282828283" y="1498.2828282828282"/>
      <point x="653.9949494949495" y="1498.2828282828282" type="curve" smooth="yes"/>
      <point x="332.7070707070707" y="1498.2828282828282"/>
      <point x="130.7171717171717" y="1292.7878787878788"/>
      <point x="130.7171717171717" y="740.0" type="curve" smooth="yes"/>
      <point x="130.7171717171717" y="187.21212121212122"/>
      <point x="337.0" y="-18.282828282828284"/>
    </contour>
    <contour>
      <point x="654.2070707070707" y="89.92929292929296" type="curve" smooth="yes"/>
      <point x="413.0353535353536" y="89.92929292929296"/>
      <point x="255.18181818181822" y="238.94949494949498"/>
      <point x="255.18181818181822" y="743.4343434343434" type="curve" smooth="yes"/>
      <point x="255.18181818181822" y="1241.050505050505"/>
      <point x="413.45959595959596" y="1390.070707070707"/>
      <point x="654.2070707070707" y="1390.070707070707" type="curve" smooth="yes"/>
      <point x="894.7424242424242" y="1390.070707070707"/>
      <point x="1053.020202020202" y="1241.050505050505"/>
      <point x="1053.020202020202" y="736.5656565656566" type="curve" smooth="yes"/>
      <point x="1053.020202020202" y="238.94949494949498"/>
      <point x="894.7424242424242" y="89.92929292929296"/>
    </contour>
  </outline>
</glyph>
<glyph name="one" format="2">
  <advance width="769.0656565656566"/>
  <unicode hex="0031"/>
  <outline>
    <contour>
      <point x="445.14646464646466" y="0.0" type="line"/>
      <point x="567.8737373737374" y="0.0" type="line"/>
      <point x="567.8737373737374" y="1484.2828282828282" type="line"/>
      <point x="487.6717171717172" y="1484.2828282828282" type="line"/>
      <point x="26.621212121212125" y="1152.0454545454545" type="line"/>
      <point x="26.621212121212125" y="1025.3939393939393" type="line"/>
      <point x="487.6717171717172" y="1355.0555555555554" type="line"/>
      <point x="445.14646464646466" y="1383.090909090909" type="line"/>
    </contour>
  </outline>
</glyph>
<glyph name="two" format="2">
  <advance width="1030.989898989899"/>
  <unicode hex="0032"/>
  <outline>
    <contour>
      <point x="70.18686868686868" y="0.0" type="line"/>
      <point x="959.5252525252525" y="0.0" type="line"/>
      <point x="959.5252525252525" y="106.0707070707071" type="line"/>
      <point x="197.70707070707076" y="106.0707070707071" type="line"/>
      <point x="210.79797979797985" y="69.41414141414144" type="line"/>
      <point x="620.7222222222223" y="576.7626262626262" type="line" smooth="yes"/>
      <point x="806.1919191919192" y="804.2878787878788"/>
      <point x="868.2727272727273" y="939.5656565656566"/>
      <point x="868.7020202020202" y="1106.1666666666667" type="curve" smooth="yes"/>
      <point x="869.5606060606061" y="1375.888888888889"/>
      <point x="704.1313131313132" y="1498.2828282828282"/>
      <point x="405.45454545454544" y="1498.2828282828282" type="curve" smooth="yes"/>
      <point x="272.8131313131313" y="1498.2828282828282"/>
      <point x="145.11111111111111" y="1475.9343434343434"/>
      <point x="52.54545454545454" y="1439.9242424242425" type="curve"/>
      <point x="52.54545454545454" y="1330.9848484848485" type="line"/>
      <point x="157.4242424242424" y="1370.9242424242425"/>
      <point x="272.73737373737373" y="1391.6262626262626"/>
      <point x="399.44444444444446" y="1391.6262626262626" type="curve" smooth="yes"/>
      <point x="630.2272727272727" y="1391.6262626262626"/>
      <point x="745.459595959596" y="1302.9898989898988"/>
      <point x="745.459595959596" y="1096.6616161616162" type="curve" smooth="yes"/>
      <point x="745.459595959596" y="962.7020202020202"/>
      <point x="687.7878787878788" y="836.8333333333334"/>
      <point x="524.570707070707" y="634.5" type="curve" smooth="yes"/>
      <point x="70.18686868686868" y="67.78787878787881" type="line"/>
    </contour>
  </outline>
</glyph>
<glyph name="three" format="2">
  <advance width="1051.2272727272727"/>
  <unicode hex="0033"/>
  <outline>
    <contour>
      <point x="430.979797979798" y="-18.282828282828284" type="curve" smooth="yes"/>
      <point x="798.3181818181818" y="-18.282828282828284"/>
      <point x="974.7020202020202" y="139.4090909090909"/>
      <point x="974.7020202020202" y="401.75252525252523" type="curve" smooth="yes"/>
      <point x="974.7020202020202" y="617.989898989899"/>
      <point x="836.1010101010102" y="751.8131313131313"/>
      <point x="582.3585858585859" y="780.8787878787879" type="curve"/>
      <point x="581.929292929293" y="755.1414141414141" type="line"/>
      <point x="790.7929292929293" y="796.9343434343434"/>
      <point x="924.1313131313132" y="929.4494949494949"/>
      <point x="924.1313131313132" y="1126.2878787878788" type="curve" smooth="yes"/>
      <point x="924.1313131313132" y="1360.378787878788"/>
      <point x="757.2575757575758" y="1498.2828282828282"/>
      <point x="455.3131313131313" y="1498.2828282828282" type="curve" smooth="yes"/>
      <point x="331.40909090909093" y="1498.2828282828282"/>
      <point x="205.84343434343435" y="1478.9343434343434"/>
      <point x="101.98484848484848" y="1443.7878787878788" type="curve"/>
      <point x="101.98484848484848" y="1339.6565656565656" type="line"/>
      <point x="216.57070707070707" y="1378.6616161616162"/>
      <point x="333.1717171717172" y="1396.010101010101"/>
      <point x="447.80808080808083" y="1396.010101010101" type="curve" smooth="yes"/>
      <point x="679.1262626262626" y="1396.010101010101"/>
      <point x="802.8686868686868" y="1296.4242424242425"/>
      <point x="802.8686868686868" y="1119.9848484848485" type="curve" smooth="yes"/>
      <point x="802.8686868686868" y="915.9848484848485"/>
      <point x="649.3434343434343" y="811.5353535353536"/>
      <point x="359.3838383838384" y="811.5353535353536" type="curve" smooth="yes"/>
      <point x="269.6313131313131" y="811.5353535353536" type="line"/>
      <point x="269.6313131313131" y="708.7676767676768" type="line"/>
      <point x="461.85353535353534" y="708.7676767676768" type="line" smooth="yes"/>
      <point x="730.6767676767677" y="708.7676767676768"/>
      <point x="854.9242424242424" y="597.9494949494949"/>
      <point x="854.9242424242424" y="406.5707070707071" type="curve" smooth="yes"/>
      <point x="854.9242424242424" y="198.80808080808083"/>
      <point x="718.959595959596" y="83.98989898989902"/>
      <point x="429.8030303030303" y="83.98989898989902" type="curve" smooth="yes"/>
      <point x="312.12626262626264" y="83.98989898989902"/>
      <point x="181.3131313131313" y="105.27272727272731"/>
      <point x="58.378787878787875" y="145.86363636363637" type="curve"/>
      <point x="58.378787878787875" y="41.73232323232323" type="line"/>
      <point x="172.2828282828283" y="2.5757575757575752"/>
      <point x="304.82828282828285" y="-18.282828282828284"/>
    </contour>
  </outline>
</glyph>
<glyph name="four" format="2">
  <advance width="1225.828282828283"/>
  <unicode hex="0034"/>
  <outline>
    <contour>
      <point x="52.6060606060606" y="366.95959595959596" type="line"/>
      <point x="1180.4444444444443" y="366.95959595959596" type="line"/>
      <point x="1180.4444444444443" y="470.6969696969697" type="line"/>
      <point x="158.89898989898992" y="470.6969696969697" type="line"/>
      <point x="179.15151515151518" y="433.8787878787879" type="line"/>
      <point x="808.6666666666667" y="1480.0" type="line"/>
      <point x="681.3232323232323" y="1480.0" type="line"/>
      <point x="52.6060606060606" y="435.5959595959596" type="line"/>
    </contour>
    <contour>
      <point x="840.5151515151515" y="0.0" type="line"/>
      <point x="956.3131313131314" y="0.0" type="line"/>
      <point x="956.3131313131314" y="980.0" type="line"/>
      <point x="858.1919191919192" y="980.0" type="line"/>
      <point x="840.5151515151515" y="470.6969696969697" type="line"/>
    </contour>
  </outline>
</glyph>
<glyph name="five" format="2">
  <advance width="1064.6565656565656"/>
  <unicode hex="0035"/>
  <outline>
    <contour>
      <point x="458.1969696969697" y="-18.282828282828284" type="curve" smooth="yes"/>
      <point x="815.8989898989898" y="-18.282828282828284"/>
      <point x="1001.2777777777778" y="133.82828282828282"/>
      <point x="1001.4898989898991" y="415.42929292929296" type="curve" smooth="yes"/>
      <point x="1001.7020202020202" y="680.459595959596"/>
      <point x="827.7979797979798" y="817.0656565656566"/>
      <point x="381.82323232323233" y="842.9242424242424" type="curve" smooth="yes"/>
      <point x="183.08080808080808" y="854.3535353535353" type="line"/>
      <point x="267.95959595959596" y="794.8585858585859" type="line"/>
      <point x="312.39898989898995" y="1424.141414141414" type="line"/>
      <point x="253.90909090909093" y="1378.030303030303" type="line"/>
      <point x="939.4191919191919" y="1378.030303030303" type="line"/>
      <point x="939.4191919191919" y="1480.0" type="line"/>
      <point x="198.26262626262627" y="1480.0" type="line"/>
      <point x="147.12626262626262" y="752.7171717171717" type="line"/>
      <point x="345.86868686868684" y="741.2878787878788" type="line" smooth="yes"/>
      <point x="747.1010101010102" y="717.9949494949494"/>
      <point x="881.5" y="619.6262626262626"/>
      <point x="881.5" y="414.01010101010104" type="curve" smooth="yes"/>
      <point x="881.5" y="194.93434343434345"/>
      <point x="741.6717171717172" y="84.83838383838386"/>
      <point x="457.4494949494949" y="84.83838383838386" type="curve" smooth="yes"/>
      <point x="335.90909090909093" y="84.83838383838386"/>
      <point x="205.09595959595958" y="106.62121212121215"/>
      <point x="85.16666666666666" y="146.8535353535354" type="curve"/>
      <point x="85.16666666666666" y="42.72222222222222" type="line"/>
      <point x="196.92424242424244" y="4.358585858585858"/>
      <point x="330.32828282828285" y="-18.282828282828284"/>
    </contour>
  </outline>
</glyph>
<glyph name="six" format="2">
  <advance width="1196.1666666666667"/>
  <unicode hex="0036"/>
  <outline>
    <contour>
      <point x="670.2929292929293" y="-18.282828282828284" type="curve" smooth="yes"/>
      <point x="938.540404040404" y="-18.282828282828284"/>
      <point x="1127.358585858586" y="127.92424242424244"/>
      <point x="1127.358585858586" y="411.4191919191919" type="curve" smooth="yes"/>
      <point x="1127.358585858586" y="699.8636363636364"/>
      <point x="939.8333333333334" y="840.7272727272727"/>
      <point x="646.2626262626263" y="840.7272727272727" type="curve" smooth="yes"/>
      <point x="493.1666666666667" y="840.7272727272727"/>
      <point x="331.8535353535354" y="789.3535353535353"/>
      <point x="235.96464646464648" y="705.040404040404" type="curve"/>
      <point x="235.96464646464648" y="596.560606060606" type="line"/>
      <point x="335.71717171717177" y="697.8434343434343"/>
      <point x="500.83838383838383" y="740.2222222222222"/>
      <point x="629.6060606060606" y="740.2222222222222" type="curve" smooth="yes"/>
      <point x="867.8030303030303" y="740.2222222222222"/>
      <point x="1009.7727272727273" y="635.8434343434343"/>
      <point x="1009.7727272727273" y="407.7171717171717" type="curve" smooth="yes"/>
      <point x="1009.7727272727273" y="182.22727272727275"/>
      <point x="868.2222222222222" y="82.36363636363639"/>
      <point x="670.8636363636364" y="82.36363636363639" type="curve" smooth="yes"/>
      <point x="417.7373737373738" y="82.36363636363639"/>
      <point x="261.39898989898995" y="234.14141414141415"/>
      <point x="261.39898989898995" y="681.6767676767677" type="curve" smooth="yes"/>
      <point x="261.39898989898995" y="719.6969696969697" type="line" smooth="yes"/>
      <point x="261.39898989898995" y="1186.2474747474748"/>
      <point x="436.9191919191919" y="1394.8787878787878"/>
      <point x="780.3181818181819" y="1394.8787878787878" type="curve" smooth="yes"/>
      <point x="868.0656565656566" y="1394.8787878787878"/>
      <point x="974.7676767676768" y="1381.671717171717"/>
      <point x="1058.7424242424242" y="1347.6010101010102" type="curve"/>
      <point x="1058.7424242424242" y="1452.8636363636363" type="line"/>
      <point x="975.2777777777778" y="1486.141414141414"/>
      <point x="873.3686868686868" y="1498.2828282828282"/>
      <point x="775.8585858585859" y="1498.2828282828282" type="curve" smooth="yes"/>
      <point x="362.82828282828285" y="1498.2828282828282"/>
      <point x="139.35858585858585" y="1241.4747474747476"/>
      <point x="139.35858585858585" y="692.1515151515151" type="curve" smooth="yes"/>
      <point x="139.35858585858585" y="179.66666666666669"/>
      <point x="347.19191919191917" y="-18.282828282828284"/>
    </contour>
  </outline>
</glyph>
<glyph name="seven" format="2">
  <advance width="974.9898989898991"/>
  <unicode hex="0037"/>
  <outline>
    <contour>
      <point x="188.3838383838384" y="0.0" type="line"/>
      <point x="317.82323232323233" y="0.0" type="line"/>
      <point x="914.9141414141415" y="1412.2121212121212" type="line"/>
      <point x="914.9141414141415" y="1480.0" type="line"/>
      <point x="13.646464646464647" y="1480.0" type="line"/>
      <point x="13.646464646464647" y="1373.9292929292928" type="line"/>
      <point x="825.6616161616162" y="1373.9292929292928" type="line"/>
      <point x="792.070707070707" y="1413.9292929292928" type="line"/>
    </contour>
  </outline>
</glyph>
<glyph name="eight" format="2">
  <advance width="1308.2020202020203"/>
  <unicode hex="0038"/>
  <outline>
    <contour>
      <point x="663.2929292929293" y="-18.282828282828284" type="curve" smooth="yes"/>
      <point x="1007.5959595959596" y="-18.282828282828284"/>
      <point x="1193.858585858586" y="139.21212121212122"/>
      <point x="1193.858585858586" y="379.3484848484849" type="curve" smooth="yes"/>
      <point x="1193.858585858586" y="589.6969696969697"/>
      <point x="1060.1868686868688" y="715.3787878787879"/>
      <point x="704.2070707070707" y="788.89898989899" type="curve" smooth="yes"/>
      <point x="387.53030303030306" y="853.0959595959596"/>
      <point x="287.79292929292933" y="946.540404040404"/>
      <point x="287.79292929292933" y="1120.7727272727273" type="curve" smooth="yes"/>
      <point x="287.79292929292933" y="1292.530303030303"/>
      <point x="409.8989898989899" y="1399.5454545454545"/>
      <point x="651.4494949494949" y="1399.5454545454545" type="curve" smooth="yes"/>
      <point x="888.959595959596" y="1399.5454545454545"/>
      <point x="1026.939393939394" y="1301.388888888889"/>
      <point x="1026.939393939394" y="1116.7828282828282" type="curve" smooth="yes"/>
      <point x="1026.939393939394" y="952.5656565656566"/>
      <point x="940.7323232323232" y="850.6515151515151"/>
      <point x="736.8232323232323" y="771.5555555555555" type="curve"/>
      <point x="830.6919191919192" y="729.3686868686868" type="line"/>
      <point x="1034.2070707070707" y="803.7171717171717"/>
      <point x="1140.3333333333333" y="938.5"/>
      <point x="1140.3333333333333" y="1125.2828282828282" type="curve" smooth="yes"/>
      <point x="1140.3333333333333" y="1357.4242424242425"/>
      <point x="959.8131313131314" y="1498.2828282828282"/>
      <point x="654.0808080808081" y="1498.2828282828282" type="curve" smooth="yes"/>
      <point x="344.1818181818182" y="1498.2828282828282"/>
      <point x="166.0151515151515" y="1351.4141414141413"/>
      <point x="166.0151515151515" y="1116.510101010101" type="curve" smooth="yes"/>
      <point x="166.0151515151515" y="898.070707070707"/>
      <point x="300.67171717171715" y="763.1313131313132"/>
      <point x="661.9494949494949" y="689.520202020202" type="curve" smooth="yes"/>
      <point x="965.7070707070707" y="627.020202020202"/>
      <point x="1072.9292929292928" y="543.2424242424242"/>
      <point x="1072.9292929292928" y="371.6666666666667" type="curve" smooth="yes"/>
      <point x="1072.9292929292928" y="184.62121212121212"/>
      <point x="930.1565656565656" y="80.45454545454548"/>
      <point x="664.7929292929293" y="80.45454545454548" type="curve" smooth="yes"/>
      <point x="381.8989898989899" y="80.45454545454548"/>
      <point x="233.70202020202024" y="186.469696969697"/>
      <point x="233.70202020202024" y="384.2929292929293" type="curve" smooth="yes"/>
      <point x="233.70202020202024" y="548.8737373737374"/>
      <point x="341.0808080808081" y="681.5252525252525"/>
      <point x="548.7474747474748" y="737.7525252525253" type="curve"/>
      <point x="445.2676767676768" y="780.1616161616162" type="line"/>
      <point x="237.64646464646464" y="713.9393939393939"/>
      <point x="113.63636363636363" y="572.3535353535353"/>
      <point x="113.63636363636363" y="373.3030303030303" type="curve" smooth="yes"/>
      <point x="113.63636363636363" y="123.53030303030303"/>
      <point x="302.9292929292929" y="-18.282828282828284"/>
    </contour>
  </outline>
</glyph>
<glyph name="nine" format="2">
  <advance width="1196.1666666666667"/>
  <unicode hex="0039"/>
  <outline>
    <contour>
      <point x="525.8737373737374" y="1498.2828282828282" type="curve" smooth="yes"/>
      <point x="257.62626262626264" y="1498.2828282828282"/>
      <point x="68.8080808080808" y="1352.0757575757575"/>
      <point x="68.8080808080808" y="1068.580808080808" type="curve" smooth="yes"/>
      <point x="68.8080808080808" y="780.1363636363636"/>
      <point x="256.3333333333333" y="639.2727272727273"/>
      <point x="549.9040404040404" y="639.2727272727273" type="curve" smooth="yes"/>
      <point x="703.0" y="639.2727272727273"/>
      <point x="864.3131313131313" y="690.6464646464647"/>
      <point x="960.2020202020202" y="774.959595959596" type="curve"/>
      <point x="960.2020202020202" y="883.439393939394" type="line"/>
      <point x="860.4494949494949" y="782.1565656565657"/>
      <point x="695.3282828282828" y="739.7777777777778"/>
      <point x="566.560606060606" y="739.7777777777778" type="curve" smooth="yes"/>
      <point x="328.3636363636364" y="739.7777777777778"/>
      <point x="186.39393939393943" y="844.1565656565657"/>
      <point x="186.39393939393943" y="1072.2828282828282" type="curve" smooth="yes"/>
      <point x="186.39393939393943" y="1297.7727272727273"/>
      <point x="327.94444444444446" y="1397.6363636363635"/>
      <point x="525.3030303030303" y="1397.6363636363635" type="curve" smooth="yes"/>
      <point x="778.429292929293" y="1397.6363636363635"/>
      <point x="934.7676767676768" y="1245.858585858586"/>
      <point x="934.7676767676768" y="798.3232323232323" type="curve" smooth="yes"/>
      <point x="934.7676767676768" y="760.3030303030303" type="line" smooth="yes"/>
      <point x="934.7676767676768" y="293.7525252525253"/>
      <point x="759.2474747474747" y="85.12121212121215"/>
      <point x="415.8484848484849" y="85.12121212121215" type="curve" smooth="yes"/>
      <point x="328.1010101010101" y="85.12121212121215"/>
      <point x="221.3989898989899" y="98.32828282828285"/>
      <point x="137.42424242424244" y="132.39898989898992" type="curve"/>
      <point x="137.42424242424244" y="27.136363636363637" type="line"/>
      <point x="220.88888888888889" y="-6.141414141414142"/>
      <point x="322.7979797979798" y="-18.282828282828284"/>
      <point x="420.30808080808083" y="-18.282828282828284" type="curve" smooth="yes"/>
      <point x="833.3383838383838" y="-18.282828282828284"/>
      <point x="1056.8080808080808" y="238.52525252525254"/>
      <point x="1056.8080808080808" y="787.8484848484849" type="curve" smooth="yes"/>
      <point x="1056.8080808080808" y="1300.3333333333333"/>
      <point x="848.9747474747476" y="1498.2828282828282"/>
    </contour>
  </outline>
</glyph>
<glyph name="colon" format="2">
  <advance width="461.3838383838384"/>
  <unicode hex="003A"/>
  <outline>
    <contour>
      <point x="230.6919191919192" y="-11.414141414141415" type="curve" smooth="yes"/>
      <point x="285.99494949494954" y="-11.414141414141415"/>
      <point x="323.37878787878793" y="23.40404040404041"/>
      <point x="323.37878787878793" y="77.52525252525254" type="curve" smooth="yes"/>
      <point x="323.37878787878793" y="131.64646464646466"/>
      <point x="286.5606060606061" y="168.18181818181822"/>
      <point x="230.6919191919192" y="168.18181818181822" type="curve" smooth="yes"/>
      <point x="174.82323232323233" y="168.18181818181822"/>
      <point x="138.0050505050505" y="132.21212121212125"/>
      <point x="138.0050505050505" y="77.52525252525254" type="curve" smooth="yes"/>
      <point x="138.0050505050505" y="22.838383838383844"/>
      <point x="175.38888888888889" y="-11.414141414141415"/>
    </contour>
    <contour>
      <point x="230.6919191919192" y="914.6464646464647" type="curve" smooth="yes"/>
      <point x="285.99494949494954" y="914.6464646464647"/>
      <point x="323.37878787878793" y="949.4646464646464"/>
      <point x="323.37878787878793" y="1003.5858585858585" type="curve" smooth="yes"/>
      <point x="323.37878787878793" y="1057.7070707070707"/>
      <point x="286.5606060606061" y="1094.2424242424242"/>
      <point x="230.6919191919192" y="1094.2424242424242" type="curve" smooth="yes"/>
      <point x="174.82323232323233" y="1094.2424242424242"/>
      <point x="138.0050505050505" y="1058.2727272727273"/>
      <point x="138.0050505050505" y="1003.5858585858585" type="curve" smooth="yes"/>
      <point x="138.0050505050505" y="948.8989898989898"/>
      <point x="175.38888888888889" y="914.6464646464647"/>
    </contour>
  </outline>
</glyph>
<glyph name="equal" format="2">
  <advance width="1095.0404040404042"/>
  <unicode hex="003D"/>
  <outline>
    <contour>
      <point x="168.1060606060606" y="900.10101010101" type="line"/>
      <point x="926.9343434343434" y="900.10101010101" type="line"/>
      <point x="926.9343434343434" y="1001.7171717171717" type="line"/>
      <point x="168.1060606060606" y="1001.7171717171717" type="line"/>
    </contour>
    <contour>
      <point x="168.1060606060606" y="518.2828282828283" type="line"/>
      <point x="926.9343434343434" y="518.2828282828283" type="line"/>
      <point x="926.9343434343434" y="619.89898989899" type="line"/>
      <point x="168.1060606060606" y="619.89898989899" type="line"/>
    </contour>
  </outline>
</glyph>
<glyph name="greater" format="2">
  <advance width="1095.0404040404042"/>
  <unicode hex="003E"/>
  <outline>
    <contour>
      <point x="168.1060606060606" y="380.1212121212121" type="line"/>
      <point x="926.9343434343434" y="708.1212121212121" type="line"/>
      <point x="926.9343434343434" y="811.8787878787879" type="line"/>
      <point x="168.1060606060606" y="1139.878787878788" type="line"/>
      <point x="168.1060606060606" y="1031.3939393939395" type="line"/>
      <point x="839.1060606060606" y="746.7272727272727" type="line"/>
      <point x="839.1060606060606" y="774.3333333333334" type="line"/>
      <point x="168.1060606060606" y="488.6060606060606" type="line"/>
    </contour>
  </outline>
</glyph>
<glyph name="question" format="2">
  <advance width="930.540404040404"/>
  <unicode hex="003F"/>
  <outline>
    <contour>
      <point x="385.020202020202" y="332.80808080808083" type="line"/>
      <point x="464.06060606060606" y="332.80808080808083" type="line"/>
      <point x="476.6767676767677" y="678.520202020202" type="line"/>
      <point x="763.39898989899" y="783.3838383838383"/>
      <point x="866.4494949494949" y="909.6616161616162"/>
      <point x="866.4494949494949" y="1125.2272727272727" type="curve" smooth="yes"/>
      <point x="866.4494949494949" y="1360.378787878788"/>
      <point x="699.5757575757576" y="1498.2828282828282"/>
      <point x="397.63131313131316" y="1498.2828282828282" type="curve" smooth="yes"/>
      <point x="273.72727272727275" y="1498.2828282828282"/>
      <point x="148.16161616161617" y="1478.9343434343434"/>
      <point x="44.3030303030303" y="1443.7878787878788" type="curve"/>
      <point x="44.3030303030303" y="1337.5353535353536" type="line"/>
      <point x="158.88888888888889" y="1376.540404040404"/>
      <point x="275.0656565656566" y="1393.888888888889"/>
      <point x="389.27272727272725" y="1393.888888888889" type="curve" smooth="yes"/>
      <point x="621.4444444444445" y="1393.888888888889"/>
      <point x="745.1868686868687" y="1294.939393939394"/>
      <point x="745.1868686868687" y="1119.560606060606" type="curve" smooth="yes"/>
      <point x="745.1868686868687" y="942.3838383838383"/>
      <point x="652.5757575757575" y="838.6010101010102"/>
      <point x="363.8989898989899" y="748.0" type="curve"/>
    </contour>
    <contour>
      <point x="424.64646464646466" y="-11.414141414141415" type="curve" smooth="yes"/>
      <point x="481.6666666666667" y="-11.414141414141415"/>
      <point x="517.3333333333334" y="24.27272727272728"/>
      <point x="517.3333333333334" y="75.19191919191921" type="curve" smooth="yes"/>
      <point x="517.3333333333334" y="127.82828282828285"/>
      <point x="480.51515151515156" y="163.51515151515156"/>
      <point x="424.64646464646466" y="163.51515151515156" type="curve" smooth="yes"/>
      <point x="368.77777777777777" y="163.51515151515156"/>
      <point x="331.95959595959596" y="128.39393939393943"/>
      <point x="331.95959595959596" y="75.19191919191921" type="curve" smooth="yes"/>
      <point x="331.95959595959596" y="23.707070707070713"/>
      <point x="369.34343434343435" y="-11.414141414141415"/>
    </contour>
  </outline>
</glyph>
<glyph name="at" format="2">
  <advance width="2001.8939393939395"/>
  <unicode hex="0040"/>
  <outline>
    <contour>
      <point x="1051.3080808080808" y="-460.0" type="curve" smooth="yes"/>
      <point x="1193.388888888889" y="-460.0"/>
      <point x="1336.409090909091" y="-439.42424242424244"/>
      <point x="1459.828282828283" y="-404.2828282828283" type="curve"/>
      <point x="1459.828282828283" y="-307.57575757575756" type="line"/>
      <point x="1317.6666666666667" y="-346.5808080808081"/>
      <point x="1190.3838383838383" y="-365.010101010101"/>
      <point x="1051.3080808080808" y="-365.010101010101" type="curve" smooth="yes"/>
      <point x="501.2070707070707" y="-365.010101010101"/>
      <point x="227.36363636363637" y="-96.16666666666666"/>
      <point x="227.36363636363637" y="523.4343434343434" type="curve" smooth="yes"/>
      <point x="227.36363636363637" y="1129.2979797979797"/>
      <point x="498.63131313131316" y="1403.010101010101"/>
      <point x="1007.0858585858587" y="1403.010101010101" type="curve" smooth="yes"/>
      <point x="1514.4646464646464" y="1403.010101010101"/>
      <point x="1780.651515151515" y="1135.580808080808"/>
      <point x="1781.358585858586" y="557.6767676767677" type="curve" smooth="yes"/>
      <point x="1781.8535353535353" y="203.40909090909093"/>
      <point x="1672.3383838383838" y="76.00000000000003"/>
      <point x="1547.550505050505" y="76.00000000000003" type="curve" smooth="yes"/>
      <point x="1454.6262626262626" y="76.00000000000003"/>
      <point x="1406.459595959596" y="122.45959595959599"/>
      <point x="1406.459595959596" y="251.27272727272728" type="curve" smooth="yes"/>
      <point x="1406.459595959596" y="721.7222222222222" type="line" smooth="yes"/>
      <point x="1406.459595959596" y="1005.6363636363636"/>
      <point x="1259.9343434343434" y="1096.2828282828282"/>
      <point x="995.4747474747475" y="1096.2828282828282" type="curve" smooth="yes"/>
      <point x="892.0909090909091" y="1096.2828282828282"/>
      <point x="769.9141414141415" y="1078.2878787878788"/>
      <point x="676.6767676767677" y="1043.7222222222222" type="curve"/>
      <point x="676.5353535353536" y="940.4393939393939" type="line"/>
      <point x="785.5555555555555" y="979.090909090909"/>
      <point x="898.8939393939394" y="994.0101010101009"/>
      <point x="984.7373737373737" y="994.0101010101009" type="curve" smooth="yes"/>
      <point x="1179.9747474747473" y="994.0101010101009"/>
      <point x="1286.7020202020203" y="937.7070707070707"/>
      <point x="1286.7020202020203" y="723.6212121212121" type="curve" smooth="yes"/>
      <point x="1286.7020202020203" y="230.45454545454547" type="line"/>
      <point x="1198.7474747474748" y="127.45454545454547"/>
      <point x="1078.5858585858587" y="81.53535353535355"/>
      <point x="963.3686868686868" y="81.53535353535355" type="curve" smooth="yes"/>
      <point x="805.7020202020202" y="81.53535353535355"/>
      <point x="727.0909090909091" y="153.62121212121212"/>
      <point x="727.0909090909091" y="284.02525252525254" type="curve" smooth="yes"/>
      <point x="727.0909090909091" y="409.4141414141414"/>
      <point x="806.2979797979798" y="475.55555555555554"/>
      <point x="990.1010101010102" y="497.36868686868684" type="curve" smooth="yes"/>
      <point x="1333.090909090909" y="538.2020202020202" type="line"/>
      <point x="1330.878787878788" y="625.979797979798" type="line"/>
      <point x="984.5909090909091" y="585.1464646464647" type="line" smooth="yes"/>
      <point x="718.7626262626263" y="555.9191919191919"/>
      <point x="601.7575757575758" y="456.8131313131313"/>
      <point x="601.7575757575758" y="273.5808080808081" type="curve" smooth="yes"/>
      <point x="601.7575757575758" y="91.31818181818183"/>
      <point x="728.6666666666667" y="-16.848484848484848"/>
      <point x="940.939393939394" y="-16.848484848484848" type="curve" smooth="yes"/>
      <point x="1081.1060606060605" y="-16.848484848484848"/>
      <point x="1212.1262626262626" y="38.04040404040404"/>
      <point x="1287.969696969697" y="128.56565656565655" type="curve"/>
      <point x="1299.3080808080808" y="128.56565656565655" type="line"/>
      <point x="1328.6565656565656" y="39.30808080808081"/>
      <point x="1403.6414141414143" y="-16.848484848484848"/>
      <point x="1528.6313131313132" y="-16.848484848484848" type="curve" smooth="yes"/>
      <point x="1726.060606060606" y="-16.848484848484848"/>
      <point x="1879.888888888889" y="147.72727272727272"/>
      <point x="1881.1767676767677" y="563.959595959596" type="curve" smooth="yes"/>
      <point x="1882.4646464646466" y="1181.550505050505"/>
      <point x="1573.0858585858587" y="1498.0"/>
      <point x="1007.0858585858587" y="1498.0" type="curve" smooth="yes"/>
      <point x="442.15656565656565" y="1498.0"/>
      <point x="120.71717171717171" y="1181.550505050505"/>
      <point x="120.71717171717171" y="520.0" type="curve" smooth="yes"/>
      <point x="120.71717171717171" y="-145.84343434343435"/>
      <point x="444.3030303030303" y="-458.7121212121212"/>
    </contour>
  </outline>
</glyph>
<glyph name="B" format="2">
  <advance width="1303.4646464646464"/>
  <unicode hex="0042"/>
  <anchor x="667.5050505050506" y="0.0" name="bottom"/>
  <anchor x="667.5050505050506" y="1480.0" name="top"/>
  <outline>
    <contour>
      <point x="567.459595959596" y="-11.414141414141415" type="curve" smooth="yes"/>
      <point x="1042.8737373737374" y="-11.414141414141415"/>
      <point x="1221.2626262626263" y="133.18686868686868"/>
      <point x="1221.2626262626263" y="401.67171717171715" type="curve" smooth="yes"/>
      <point x="1221.2626262626263" y="602.8030303030303"/>
      <point x="1110.6464646464647" y="743.5757575757576"/>
      <point x="862.2121212121212" y="770.1464646464647" type="curve"/>
      <point x="858.3484848484849" y="755.1414141414141" type="line"/>
      <point x="1086.2777777777778" y="787.7121212121212"/>
      <point x="1178.3989898989898" y="925.3787878787879"/>
      <point x="1178.3989898989898" y="1103.050505050505" type="curve" smooth="yes"/>
      <point x="1178.3989898989898" y="1364.378787878788"/>
      <point x="1009.530303030303" y="1494.8484848484848"/>
      <point x="607.540404040404" y="1494.8484848484848" type="curve" smooth="yes"/>
      <point x="445.989898989899" y="1494.8484848484848"/>
      <point x="321.36868686868684" y="1480.6565656565656"/>
      <point x="191.19191919191917" y="1454.1010101010102" type="curve"/>
      <point x="191.19191919191917" y="12.929292929292929" type="line"/>
      <point x="329.4848484848485" y="-4.712121212121213"/>
      <point x="441.75252525252523" y="-11.414141414141415"/>
    </contour>
    <contour>
      <point x="587.1363636363636" y="89.79797979797982" type="curve" smooth="yes"/>
      <point x="481.11111111111114" y="89.79797979797982"/>
      <point x="399.0505050505051" y="94.16161616161618"/>
      <point x="312.29292929292933" y="106.95959595959599" type="curve"/>
      <point x="312.29292929292933" y="1369.409090909091" type="line"/>
      <point x="396.2070707070707" y="1384.919191919192"/>
      <point x="485.4747474747475" y="1393.6363636363635"/>
      <point x="616.030303030303" y="1393.6363636363635" type="curve" smooth="yes"/>
      <point x="934.5050505050505" y="1393.6363636363635"/>
      <point x="1059.6969696969697" y="1308.9242424242425"/>
      <point x="1059.6969696969697" y="1099.939393939394" type="curve" smooth="yes"/>
      <point x="1059.6969696969697" y="902.39898989899"/>
      <point x="937.7929292929293" y="811.2525252525253"/>
      <point x="659.1565656565657" y="811.2525252525253" type="curve" smooth="yes"/>
      <point x="291.90909090909093" y="811.2525252525253" type="line"/>
      <point x="291.90909090909093" y="708.9797979797979" type="line"/>
      <point x="681.9191919191919" y="708.9797979797979" type="line" smooth="yes"/>
      <point x="969.7676767676768" y="708.9797979797979"/>
      <point x="1102.7575757575758" y="614.469696969697"/>
      <point x="1102.7575757575758" y="405.72222222222223" type="curve" smooth="yes"/>
      <point x="1102.7575757575758" y="195.24747474747477"/>
      <point x="980.6515151515151" y="89.79797979797982"/>
    </contour>
  </outline>
</glyph>
<glyph name="F" format="2">
  <advance width="1186.6868686868688"/>
  <unicode hex="0046"/>
  <outline>
    <contour>
      <point x="191.19191919191917" y="0.0" type="line"/>
      <point x="313.919191919192" y="0.0" type="line"/>
      <point x="313.919191919192" y="1373.20202020202" type="line"/>
      <point x="1122.030303030303" y="1373.20202020202" type="line"/>
      <point x="1122.030303030303" y="1480.0" type="line"/>
      <point x="191.19191919191917" y="1480.0" type="line"/>
    </contour>
    <contour>
      <point x="280.11111111111114" y="699.8585858585858" type="line"/>
      <point x="1022.9747474747475" y="699.8585858585858" type="line"/>
      <point x="1022.9747474747475" y="806.6565656565657" type="line"/>
      <point x="280.11111111111114" y="806.6565656565657" type="line"/>
    </contour>
  </outline>
</glyph>
<glyph name="G" format="2">
  <advance width="1423.9545454545455"/>
  <unicode hex="0047"/>
  <anchor x="774.0151515151515" y="0.0" name="bottom"/>
  <anchor x="774.0151515151515" y="1520.0" name="top"/>
  <outline>
    <contour>
      <point x="897.1262626262626" y="-11.414141414141415" type="curve" smooth="yes"/>
      <point x="1013.5858585858587" y="-11.414141414141415"/>
      <point x="1111.6565656565656" y="-4.141414141414142"/>
      <point x="1248.79797979798" y="18.358585858585858" type="curve"/>
      <point x="1248.79797979798" y="720.0" type="line"/>
      <point x="1130.7373737373737" y="720.0" type="line"/>
      <point x="1130.7373737373737" y="65.03535353535355" type="line"/>
      <point x="1181.1616161616162" y="121.52525252525255" type="line"/>
      <point x="1098.9343434343434" y="105.44444444444447"/>
      <point x="1006.7272727272727" y="96.72727272727275"/>
      <point x="892.6010101010102" y="96.72727272727275" type="curve" smooth="yes"/>
      <point x="467.62626262626264" y="96.72727272727275"/>
      <point x="250.71212121212125" y="293.26262626262627"/>
      <point x="249.42424242424246" y="738.9494949494949" type="curve" smooth="yes"/>
      <point x="248.13636363636368" y="1211.8535353535353"/>
      <point x="494.949494949495" y="1389.4343434343434"/>
      <point x="862.6161616161617" y="1389.6464646464647" type="curve" smooth="yes"/>
      <point x="967.2525252525253" y="1389.6464646464647"/>
      <point x="1074.8989898989898" y="1378.2171717171716"/>
      <point x="1211.6818181818182" y="1340.3989898989898" type="curve"/>
      <point x="1211.6818181818182" y="1450.2575757575758" type="line"/>
      <point x="1088.7323232323233" y="1482.20202020202"/>
      <point x="976.2525252525253" y="1498.2828282828282"/>
      <point x="855.8838383838383" y="1498.2828282828282" type="curve" smooth="yes"/>
      <point x="420.25252525252523" y="1498.2828282828282"/>
      <point x="119.42929292929293" y="1272.9545454545455"/>
      <point x="120.71717171717171" y="737.4343434343434" type="curve" smooth="yes"/>
      <point x="122.00505050505049" y="225.26767676767676"/>
      <point x="388.28787878787875" y="-11.414141414141415"/>
    </contour>
  </outline>
</glyph>
<glyph name="H" format="2">
  <advance width="1515.2828282828282"/>
  <unicode hex="0048"/>
  <anchor x="757.7828282828283" y="0.0" name="bottom"/>
  <anchor x="757.7828282828283" y="1150.8181818181818" name="center"/>
  <anchor x="757.7828282828283" y="1520.0" name="top"/>
  <anchor x="43.005050505050505" y="1480.0" name="topleft"/>
  <outline>
    <contour>
      <point x="191.19191919191917" y="0.0" type="line"/>
      <point x="313.919191919192" y="0.0" type="line"/>
      <point x="313.919191919192" y="704.1717171717172" type="line"/>
      <point x="1201.3636363636363" y="704.1717171717172" type="line"/>
      <point x="1201.3636363636363" y="0.0" type="line"/>
      <point x="1324.090909090909" y="0.0" type="line"/>
      <point x="1324.090909090909" y="1480.0" type="line"/>
      <point x="1201.3636363636363" y="1480.0" type="line"/>
      <point x="1201.3636363636363" y="816.1313131313132" type="line"/>
      <point x="313.919191919192" y="816.1313131313132" type="line"/>
      <point x="313.919191919192" y="1480.0" type="line"/>
      <point x="191.19191919191917" y="1480.0" type="line"/>
    </contour>
  </outline>
</glyph>
<glyph name="I" format="2">
  <advance width="505.11111111111114"/>
  <unicode hex="0049"/>
  <anchor x="252.34343434343435" y="0.0" name="bottom"/>
  <anchor x="313.919191919192" y="0.0" name="ogonek"/>
  <anchor x="252.55555555555557" y="1520.0" name="top"/>
  <outline>
    <contour>
      <point x="191.19191919191917" y="0.0" type="line"/>
      <point x="313.919191919192" y="0.0" type="line"/>
      <point x="313.919191919192" y="1480.0" type="line"/>
      <point x="191.19191919191917" y="1480.0" type="line"/>
    </contour>
  </outline>
</glyph>
<glyph name="J" format="2">
  <advance width="505.11111111111114"/>
  <unicode hex="004A"/>
  <anchor x="363.71717171717177" y="0.0" name="bottom"/>
  <anchor x="252.7676767676768" y="1520.0" name="top"/>
  <outline>
    <contour>
      <point x="79.90909090909093" y="-342.26262626262627" type="line"/>
      <point x="243.93434343434348" y="-144.010101010101"/>
      <point x="303.1868686868687" y="28.64646464646465"/>
      <point x="313.919191919192" y="261.04545454545456" type="curve"/>
      <point x="313.919191919192" y="1480.0" type="line"/>
      <point x="191.6161616161616" y="1480.0" type="line"/>
      <point x="191.6161616161616" y="288.4040404040404" type="line" smooth="yes"/>
      <point x="191.6161616161616" y="57.50505050505051"/>
      <point x="133.5050505050505" y="-111.42424242424241"/>
      <point x="-1.7525252525252553" y="-285.05555555555554" type="curve"/>
    </contour>
  </outline>
</glyph>
<glyph name="K" format="2">
  <advance width="1284.8333333333335"/>
  <unicode hex="004B"/>
  <anchor x="664.030303030303" y="0.0" name="bottom"/>
  <anchor x="662.969696969697" y="1480.0" name="top"/>
  <outline>
    <contour>
      <point x="1145.6161616161617" y="0.0" type="line"/>
      <point x="1289.388888888889" y="0.0" type="line"/>
      <point x="659.9444444444445" y="779.5151515151515" type="line"/>
      <point x="658.5303030303031" y="743.3535353535353" type="line"/>
      <point x="1246.7525252525252" y="1480.0" type="line"/>
      <point x="1107.030303030303" y="1480.0" type="line"/>
      <point x="531.9191919191919" y="757.2929292929293" type="line"/>
    </contour>
    <contour>
      <point x="191.19191919191917" y="0.0" type="line"/>
      <point x="313.919191919192" y="0.0" type="line"/>
      <point x="313.919191919192" y="1480.0" type="line"/>
      <point x="191.19191919191917" y="1480.0" type="line"/>
    </contour>
    <contour>
      <point x="291.5555555555556" y="704.1717171717172" type="line"/>
      <point x="595.5858585858587" y="704.1717171717172" type="line"/>
      <point x="595.5858585858587" y="815.7020202020202" type="line"/>
      <point x="291.5555555555556" y="815.7020202020202" type="line"/>
    </contour>
  </outline>
</glyph>
<glyph name="M" format="2">
  <advance width="1820.4444444444443"/>
  <unicode hex="004D"/>
  <anchor x="914.5353535353536" y="0.0" name="bottom"/>
  <anchor x="914.5353535353536" y="1480.0" name="top"/>
  <outline>
    <contour>
      <point x="195.19191919191917" y="0.0" type="line"/>
      <point x="311.81818181818187" y="0.0" type="line"/>
      <point x="311.81818181818187" y="1377.1818181818182" type="line"/>
      <point x="263.5555555555556" y="1377.1818181818182" type="line"/>
      <point x="851.4343434343434" y="202.82828282828282" type="line"/>
      <point x="969.010101010101" y="202.82828282828282" type="line"/>
      <point x="1552.1313131313132" y="1377.1818181818182" type="line"/>
      <point x="1508.6262626262626" y="1377.1818181818182" type="line"/>
      <point x="1508.6262626262626" y="0.0" type="line"/>
      <point x="1625.2525252525252" y="0.0" type="line"/>
      <point x="1625.2525252525252" y="1480.0" type="line"/>
      <point x="1482.8737373737374" y="1480.0" type="line"/>
      <point x="895.7979797979798" y="286.1616161616162" type="line"/>
      <point x="930.060606060606" y="286.1616161616162" type="line"/>
      <point x="337.5707070707071" y="1480.0" type="line"/>
      <point x="195.19191919191917" y="1480.0" type="line"/>
    </contour>
  </outline>
</glyph>
<glyph name="N" format="2">
  <advance width="1542.1666666666667"/>
  <unicode hex="004E"/>
  <anchor x="771.7272727272727" y="0.0" name="bottom"/>
  <anchor x="771.7272727272727" y="1520.0" name="top"/>
  <outline>
    <contour>
      <point x="191.19191919191917" y="0.0" type="line"/>
      <point x="308.31313131313135" y="0.0" type="line"/>
      <point x="308.31313131313135" y="1351.1313131313132" type="line"/>
      <point x="272.22727272727275" y="1351.1313131313132" type="line"/>
      <point x="1222.7373737373737" y="0.0" type="line"/>
      <point x="1350.9747474747476" y="0.0" type="line"/>
      <point x="1350.9747474747476" y="1480.0" type="line"/>
      <point x="1233.8535353535353" y="1480.0" type="line"/>
      <point x="1233.8535353535353" y="128.86868686868692" type="line"/>
      <point x="1269.939393939394" y="128.86868686868692" type="line"/>
      <point x="319.42929292929296" y="1480.0" type="line"/>
      <point x="191.19191919191917" y="1480.0" type="line"/>
    </contour>
  </outline>
</glyph>
<glyph name="P" format="2">
  <advance width="1277.4949494949494"/>
  <unicode hex="0050"/>
  <outline>
    <contour>
      <point x="191.19191919191917" y="0.0" type="line"/>
      <point x="313.919191919192" y="0.0" type="line"/>
      <point x="313.919191919192" y="510.84343434343435" type="line"/>
      <point x="395.99494949494954" y="503.1161616161616"/>
      <point x="462.39898989898995" y="499.8282828282828"/>
      <point x="543.3232323232323" y="499.8282828282828" type="curve" smooth="yes"/>
      <point x="986.3838383838383" y="499.8282828282828"/>
      <point x="1179.590909090909" y="676.9545454545455"/>
      <point x="1179.590909090909" y="999.4494949494949" type="curve" smooth="yes"/>
      <point x="1179.590909090909" y="1342.449494949495"/>
      <point x="970.2929292929293" y="1494.8484848484848"/>
      <point x="579.8282828282828" y="1494.8484848484848" type="curve" smooth="yes"/>
      <point x="439.2020202020202" y="1494.8484848484848"/>
      <point x="322.00505050505046" y="1481.7171717171718"/>
      <point x="191.19191919191917" y="1456.439393939394" type="curve"/>
    </contour>
    <contour>
      <point x="545.1767676767677" y="602.1717171717172" type="curve" smooth="yes"/>
      <point x="458.39393939393943" y="602.1717171717172"/>
      <point x="388.11616161616166" y="606.7474747474747"/>
      <point x="313.919191919192" y="616.969696969697" type="curve"/>
      <point x="313.919191919192" y="1369.909090909091" type="line"/>
      <point x="395.71212121212125" y="1384.4949494949494"/>
      <point x="481.23232323232327" y="1392.5050505050506"/>
      <point x="586.0505050505051" y="1392.5050505050506" type="curve" smooth="yes"/>
      <point x="899.8484848484849" y="1392.5050505050506"/>
      <point x="1055.7626262626263" y="1272.8484848484848"/>
      <point x="1055.7626262626263" y="997.1616161616162" type="curve" smooth="yes"/>
      <point x="1055.7626262626263" y="733.2929292929293"/>
      <point x="909.2929292929293" y="602.1717171717172"/>
    </contour>
  </outline>
</glyph>
<glyph name="Q" format="2">
  <advance width="1512.141414141414"/>
  <unicode hex="0051"/>
  <outline>
    <contour>
      <point x="1346.6313131313132" y="-208.84848484848487" type="curve"/>
      <point x="1364.3989898989898" y="-103.81818181818181" type="line"/>
      <point x="1129.8232323232323" y="-84.77272727272727"/>
      <point x="864.5858585858587" y="-44.65151515151514"/>
      <point x="681.5707070707072" y="30.60606060606062" type="curve"/>
      <point x="657.7171717171717" y="-2.696969696969693" type="line"/>
      <point x="1136.7929292929293" y="-56.505050505050505"/>
      <point x="1391.4242424242425" y="206.55050505050505"/>
      <point x="1391.4242424242425" y="740.0" type="curve" smooth="yes"/>
      <point x="1391.4242424242425" y="1278.449494949495"/>
      <point x="1132.0101010101012" y="1498.2828282828282"/>
      <point x="756.070707070707" y="1498.2828282828282" type="curve" smooth="yes"/>
      <point x="380.13131313131316" y="1498.2828282828282"/>
      <point x="120.71717171717171" y="1271.1464646464647"/>
      <point x="120.71717171717171" y="737.8787878787879" type="curve" smooth="yes"/>
      <point x="120.71717171717171" y="147.45959595959596"/>
      <point x="397.1363636363636" y="-110.42424242424244"/>
    </contour>
    <contour>
      <point x="756.070707070707" y="90.15656565656569" type="curve" smooth="yes"/>
      <point x="451.939393939394" y="90.15656565656569"/>
      <point x="248.15151515151518" y="265.1717171717172"/>
      <point x="248.15151515151518" y="744.5656565656566" type="curve" smooth="yes"/>
      <point x="248.15151515151518" y="1214.4040404040404"/>
      <point x="453.0" y="1389.8434343434344"/>
      <point x="756.070707070707" y="1389.8434343434344" type="curve" smooth="yes"/>
      <point x="1059.141414141414" y="1389.8434343434344"/>
      <point x="1263.989898989899" y="1213.7676767676767"/>
      <point x="1263.989898989899" y="735.4343434343434" type="curve" smooth="yes"/>
      <point x="1263.989898989899" y="266.23232323232327"/>
      <point x="1059.7777777777778" y="90.15656565656569"/>
    </contour>
  </outline>
</glyph>
<glyph name="T" format="2">
  <advance width="1215.828282828283"/>
  <unicode hex="0054"/>
  <anchor x="607.9494949494949" y="0.0" name="bottom"/>
  <anchor x="607.9494949494949" y="785.8585858585858" name="center"/>
  <anchor x="607.9494949494949" y="1520.0" name="top"/>
  <outline>
    <contour>
      <point x="546.5151515151515" y="0.0" type="line"/>
      <point x="669.3131313131314" y="0.0" type="line"/>
      <point x="669.3131313131314" y="1372.070707070707" type="line"/>
      <point x="1198.7575757575758" y="1372.070707070707" type="line"/>
      <point x="1198.7575757575758" y="1480.0" type="line"/>
      <point x="17.070707070707073" y="1480.0" type="line"/>
      <point x="17.070707070707073" y="1372.070707070707" type="line"/>
      <point x="546.5151515151515" y="1372.070707070707" type="line"/>
    </contour>
  </outline>
</glyph>
<glyph name="V" format="2">
  <advance width="1363.1313131313132"/>
  <unicode hex="0056"/>
  <outline>
    <contour>
      <point x="594.1212121212121" y="0.0" type="line"/>
      <point x="769.010101010101" y="0.0" type="line"/>
      <point x="1345.530303030303" y="1480.0" type="line"/>
      <point x="1221.2828282828282" y="1480.0" type="line"/>
      <point x="671.1868686868687" y="60.43434343434345" type="line"/>
      <point x="699.4898989898991" y="60.43434343434345" type="line"/>
      <point x="149.87878787878793" y="1480.0" type="line"/>
      <point x="17.6010101010101" y="1480.0" type="line"/>
    </contour>
  </outline>
</glyph>
<glyph name="X" format="2">
  <advance width="1326.3232323232323"/>
  <unicode hex="0058"/>
  <outline>
    <contour>
      <point x="1156.1313131313132" y="0.0" type="line"/>
      <point x="1302.6060606060605" y="0.0" type="line"/>
      <point x="736.0909090909091" y="752.6666666666666" type="line"/>
      <point x="663.3383838383838" y="844.2323232323232" type="line"/>
      <point x="183.63636363636368" y="1480.0" type="line"/>
      <point x="37.378787878787875" y="1480.0" type="line"/>
      <point x="588.2373737373737" y="750.459595959596" type="line"/>
      <point x="660.989898989899" y="658.6767676767677" type="line"/>
    </contour>
    <contour>
      <point x="22.28787878787878" y="0.0" type="line"/>
      <point x="165.5606060606061" y="0.0" type="line"/>
      <point x="660.989898989899" y="658.6767676767677" type="line"/>
      <point x="736.0909090909091" y="752.6666666666666" type="line"/>
      <point x="1285.6060606060605" y="1480.0" type="line"/>
      <point x="1144.1161616161617" y="1480.0" type="line"/>
      <point x="663.3383838383838" y="844.2323232323232" type="line"/>
      <point x="588.2373737373737" y="750.459595959596" type="line"/>
    </contour>
  </outline>
</glyph>
<glyph name="bracketleft" format="2">
  <advance width="684.1010101010102"/>
  <unicode hex="005B"/>
  <outline>
    <contour>
      <point x="211.19191919191917" y="-440.0" type="line"/>
      <point x="719.7171717171717" y="-440.0" type="line"/>
      <point x="719.7171717171717" y="-336.2626262626262" type="line"/>
      <point x="332.4343434343435" y="-336.2626262626262" type="line"/>
      <point x="332.4343434343435" y="1512.2626262626263" type="line"/>
      <point x="721.8383838383838" y="1512.2626262626263" type="line"/>
      <point x="721.8383838383838" y="1616.0" type="line"/>
      <point x="211.19191919191917" y="1616.0" type="line"/>
    </contour>
  </outline>
</glyph>
<glyph name="backslash" format="2">
  <advance width="630.1969696969697"/>
  <unicode hex="005C"/>
  <outline>
    <contour>
      <point x="506.3030303030303" y="-240.0" type="line"/>
      <point x="630.1969696969697" y="-240.0" type="line"/>
      <point x="123.89393939393943" y="1616.0" type="line"/>
      <point x="0.0" y="1616.0" type="line"/>
    </contour>
  </outline>
</glyph>
<glyph name="bracketright" format="2">
  <advance width="684.1010101010102"/>
  <unicode hex="005D"/>
  <outline>
    <contour>
      <point x="-35.61616161616161" y="-440.0" type="line"/>
      <point x="472.90909090909093" y="-440.0" type="line"/>
      <point x="472.90909090909093" y="1616.0" type="line"/>
      <point x="-37.73737373737374" y="1616.0" type="line"/>
      <point x="-37.73737373737374" y="1512.2626262626263" type="line"/>
      <point x="351.66666666666663" y="1512.2626262626263" type="line"/>
      <point x="351.66666666666663" y="-336.2626262626262" type="line"/>
      <point x="-35.61616161616161" y="-336.2626262626262" type="line"/>
    </contour>
  </outline>
</glyph>
<glyph name="underscore" format="2">
  <advance width="1176.8383838383838"/>
  <unicode hex="005F"/>
  <outline>
    <contour>
      <point x="96.08585858585859" y="-103.94949494949498" type="line"/>
      <point x="1080.7525252525252" y="-103.94949494949498" type="line"/>
      <point x="1080.7525252525252" y="-0.21212121212121227" type="line"/>
      <point x="96.08585858585859" y="-0.21212121212121227" type="line"/>
    </contour>
  </outline>
</glyph>
<glyph name="b" format="2">
  <advance width="1184.0050505050506"/>
  <unicode hex="0062"/>
  <anchor x="594.3939393939394" y="0.0" name="bottom"/>
  <anchor x="232.83838383838383" y="1616.0" name="top"/>
  <outline>
    <contour>
      <point x="513.4545454545455" y="-18.494949494949495" type="curve" smooth="yes"/>
      <point x="881.1313131313132" y="-18.565656565656568"/>
      <point x="1074.2777777777778" y="171.10606060606062"/>
      <point x="1074.2777777777778" y="562.3333333333334" type="curve" smooth="yes"/>
      <point x="1074.2777777777778" y="953.1616161616162"/>
      <point x="878.1666666666667" y="1099.111111111111"/>
      <point x="633.8181818181819" y="1099.111111111111" type="curve" smooth="yes"/>
      <point x="491.3636363636364" y="1099.111111111111"/>
      <point x="377.19696969696975" y="1044.9444444444443"/>
      <point x="301.33333333333337" y="964.5808080808081" type="curve"/>
      <point x="293.42424242424244" y="964.5808080808081" type="line"/>
      <point x="293.42424242424244" y="1616.0" type="line"/>
      <point x="172.1818181818182" y="1616.0" type="line"/>
      <point x="172.1818181818182" y="30.111111111111114" type="line"/>
      <point x="279.3838383838384" y="-2.2878787878787876"/>
      <point x="396.9040404040404" y="-18.494949494949495"/>
    </contour>
    <contour>
      <point x="524.1919191919192" y="84.55555555555559" type="curve" smooth="yes"/>
      <point x="434.39898989898995" y="84.55555555555559"/>
      <point x="352.75757575757575" y="97.71212121212125"/>
      <point x="293.42424242424244" y="115.44444444444447" type="curve"/>
      <point x="293.42424242424244" y="847.5505050505051" type="line"/>
      <point x="372.5555555555556" y="948.469696969697"/>
      <point x="488.8030303030303" y="992.3838383838383"/>
      <point x="606.2727272727273" y="992.3838383838383" type="curve" smooth="yes"/>
      <point x="802.7575757575758" y="992.3838383838383"/>
      <point x="949.9545454545455" y="887.1565656565656"/>
      <point x="949.9545454545455" y="550.8686868686868" type="curve" smooth="yes"/>
      <point x="949.9545454545455" y="225.8888888888889"/>
      <point x="804.3333333333334" y="84.55555555555559"/>
    </contour>
  </outline>
</glyph>
<glyph name="d" format="2">
  <advance width="1184.0050505050506"/>
  <unicode hex="0064"/>
  <anchor x="592.0151515151515" y="0.0" name="bottom"/>
  <anchor x="1136.8737373737374" y="1616.0" name="caronalt"/>
  <anchor x="589.7525252525253" y="541.060606060606" name="center"/>
  <anchor x="1011.8232323232323" y="1355.7878787878788" name="stroke"/>
  <anchor x="587.2070707070707" y="1200.0" name="top"/>
  <anchor x="1131.7777777777778" y="1082.828282828283" name="topright"/>
  <outline>
    <contour>
      <point x="561.1464646464647" y="-18.141414141414142" type="curve" smooth="yes"/>
      <point x="699.0757575757575" y="-18.141414141414142"/>
      <point x="815.1666666666666" y="37.58080808080808"/>
      <point x="889.6717171717172" y="123.23737373737373" type="curve"/>
      <point x="899.2272727272727" y="123.23737373737373" type="line"/>
      <point x="907.8434343434343" y="0.0" type="line"/>
      <point x="1011.8232323232323" y="0.0" type="line"/>
      <point x="1011.8232323232323" y="1616.0" type="line"/>
      <point x="890.5808080808081" y="1616.0" type="line"/>
      <point x="890.5808080808081" y="1079.7272727272727" type="line"/>
      <point x="828.3989898989898" y="1090.4545454545455"/>
      <point x="750.2020202020202" y="1099.4646464646464"/>
      <point x="672.7929292929293" y="1099.4646464646464" type="curve" smooth="yes"/>
      <point x="304.36868686868684" y="1099.4646464646464"/>
      <point x="109.72727272727272" y="909.1565656565657"/>
      <point x="109.72727272727272" y="519.2020202020202" type="curve" smooth="yes"/>
      <point x="109.72727272727272" y="134.84343434343435"/>
      <point x="304.23737373737373" y="-18.141414141414142"/>
    </contour>
    <contour>
      <point x="582.6767676767677" y="88.51515151515154" type="curve" smooth="yes"/>
      <point x="375.0202020202021" y="88.51515151515154"/>
      <point x="234.05050505050508" y="198.8939393939394"/>
      <point x="234.05050505050508" y="530.4545454545455" type="curve" smooth="yes"/>
      <point x="234.05050505050508" y="854.8686868686868"/>
      <point x="379.6717171717172" y="996.2020202020202"/>
      <point x="672.2626262626263" y="996.2020202020202" type="curve" smooth="yes"/>
      <point x="749.3939393939394" y="996.2020202020202"/>
      <point x="831.2474747474747" y="986.4797979797979"/>
      <point x="890.5808080808081" y="971.1767676767677" type="curve"/>
      <point x="890.5808080808081" y="243.2777777777778" type="line"/>
      <point x="811.8030303030303" y="132.78282828282832"/>
      <point x="696.2777777777778" y="88.51515151515154"/>
    </contour>
  </outline>
</glyph>
<glyph name="e" format="2">
  <advance width="1079.1515151515152"/>
  <unicode hex="0065"/>
  <anchor x="558.4343434343434" y="0.0" name="bottom"/>
  <anchor x="831.5959595959596" y="0.0" name="ogonek"/>
  <anchor x="558.4343434343434" y="1200.0" name="top"/>
  <outline>
    <contour>
      <point x="631.3535353535353" y="-18.565656565656568" type="curve" smooth="yes"/>
      <point x="729.1161616161617" y="-18.565656565656568"/>
      <point x="825.6515151515152" y="-3.767676767676768"/>
      <point x="933.8232323232323" y="29.247474747474747" type="curve"/>
      <point x="933.8232323232323" y="132.10606060606062" type="line"/>
      <point x="827.9494949494949" y="100.29292929292933"/>
      <point x="733.4747474747476" y="83.28282828282832"/>
      <point x="644.4040404040404" y="83.28282828282832" type="curve" smooth="yes"/>
      <point x="374.7828282828283" y="83.28282828282832"/>
      <point x="233.48484848484853" y="207.34343434343435"/>
      <point x="233.48484848484853" y="526.9444444444445" type="curve" smooth="yes"/>
      <point x="233.48484848484853" y="563.3535353535353" type="line" smooth="yes"/>
      <point x="233.48484848484853" y="879.8535353535353"/>
      <point x="353.469696969697" y="1004.8282828282828"/>
      <point x="555.7121212121212" y="1004.8282828282828" type="curve" smooth="yes"/>
      <point x="757.4545454545455" y="1004.8282828282828"/>
      <point x="869.2121212121212" y="878.3535353535353"/>
      <point x="869.2121212121212" y="563.1414141414142" type="curve"/>
      <point x="906.2373737373737" y="588.7979797979798" type="line"/>
      <point x="165.01515151515153" y="588.7979797979798" type="line"/>
      <point x="165.01515151515153" y="498.6161616161616" type="line"/>
      <point x="987.5808080808081" y="498.6161616161616" type="line"/>
      <point x="987.5808080808081" y="539.0808080808081" type="line" smooth="yes"/>
      <point x="987.5808080808081" y="918.3939393939394"/>
      <point x="830.1969696969697" y="1099.111111111111"/>
      <point x="556.6313131313132" y="1099.111111111111" type="curve" smooth="yes"/>
      <point x="281.74242424242425" y="1099.111111111111"/>
      <point x="109.72727272727272" y="918.8232323232323"/>
      <point x="109.72727272727272" y="541.2020202020202" type="curve" smooth="yes"/>
      <point x="109.72727272727272" y="149.34848484848484"/>
      <point x="295.3989898989899" y="-18.565656565656568"/>
    </contour>
  </outline>
</glyph>
<glyph name="f" format="2">
  <advance width="747.8535353535353"/>
  <unicode hex="0066"/>
  <outline>
    <contour>
      <point x="242.98484848484847" y="0.0" type="line"/>
      <point x="364.01515151515156" y="0.0" type="line"/>
      <point x="364.01515151515156" y="1248.989898989899" type="line" smooth="yes"/>
      <point x="364.01515151515156" y="1454.010101010101"/>
      <point x="455.6363636363637" y="1530.8282828282827"/>
      <point x="646.6313131313132" y="1530.8282828282827" type="curve" smooth="yes"/>
      <point x="694.0808080808081" y="1530.8282828282827"/>
      <point x="744.3282828282829" y="1525.8232323232323"/>
      <point x="793.4898989898991" y="1517.1010101010102" type="curve"/>
      <point x="793.4898989898991" y="1623.141414141414" type="line"/>
      <point x="744.1515151515151" y="1631.141414141414"/>
      <point x="690.1414141414142" y="1636.0"/>
      <point x="639.3888888888889" y="1636.0" type="curve" smooth="yes"/>
      <point x="377.35353535353534" y="1636.0"/>
      <point x="242.98484848484847" y="1504.050505050505"/>
      <point x="242.98484848484847" y="1241.8636363636363" type="curve" smooth="yes"/>
    </contour>
    <contour>
      <point x="21.469696969696972" y="979.090909090909" type="line"/>
      <point x="750.4343434343434" y="979.090909090909" type="line"/>
      <point x="750.4343434343434" y="1082.828282828283" type="line"/>
      <point x="21.469696969696972" y="1082.828282828283" type="line"/>
    </contour>
  </outline>
</glyph>
<glyph name="i" format="2">
  <advance width="465.67676767676767"/>
  <unicode hex="0069"/>
  <anchor x="232.83838383838383" y="1200.0" name="_top"/>
  <anchor x="232.83838383838383" y="0.0" name="bottom"/>
  <anchor x="293.49494949494954" y="0.0" name="ogonek"/>
  <anchor x="232.83838383838383" y="1200.0" name="top"/>
  <outline>
    <contour>
      <point x="172.1818181818182" y="0.0" type="line"/>
      <point x="293.49494949494954" y="0.0" type="line"/>
      <point x="293.49494949494954" y="1082.828282828283" type="line"/>
      <point x="172.1818181818182" y="1082.828282828283" type="line"/>
    </contour>
    <contour>
      <point x="232.83838383838383" y="1338.3636363636363" type="curve" smooth="yes"/>
      <point x="289.62626262626264" y="1338.3636363636363"/>
      <point x="323.4040404040404" y="1369.5757575757575"/>
      <point x="323.4040404040404" y="1421.4343434343434" type="curve" smooth="yes"/>
      <point x="323.4040404040404" y="1473.2929292929293"/>
      <point x="289.62626262626264" y="1506.2222222222222"/>
      <point x="232.83838383838383" y="1506.2222222222222" type="curve" smooth="yes"/>
      <point x="176.05050505050505" y="1506.2222222222222"/>
      <point x="142.27272727272725" y="1473.2929292929293"/>
      <point x="142.27272727272725" y="1421.4343434343434" type="curve" smooth="yes"/>
      <point x="142.27272727272725" y="1369.5757575757575"/>
      <point x="176.05050505050505" y="1338.3636363636363"/>
    </contour>
  </outline>
</glyph>
<glyph name="j" format="2">
  <advance width="465.67676767676767"/>
  <unicode hex="006A"/>
  <anchor x="231.77777777777777" y="1207.7272727272727" name="_top"/>
  <anchor x="231.77777777777777" y="1207.7272727272727" name="top"/>
  <outline>
    <contour>
      <point x="60.05050505050507" y="-462.26262626262627" type="line"/>
      <point x="223.5808080808081" y="-264.01010101010104"/>
      <point x="293.49494949494954" y="-78.8989898989899"/>
      <point x="293.49494949494954" y="174.96464646464648" type="curve" smooth="yes"/>
      <point x="293.49494949494954" y="1082.828282828283" type="line"/>
      <point x="172.1818181818182" y="1082.828282828283" type="line"/>
      <point x="172.1818181818182" y="167.97979797979798" type="line" smooth="yes"/>
      <point x="172.1818181818182" y="-62.91919191919192"/>
      <point x="114.07070707070707" y="-231.84848484848484"/>
      <point x="-21.18686868686869" y="-405.479797979798" type="curve"/>
    </contour>
    <contour>
      <point x="231.77777777777777" y="1346.090909090909" type="curve" smooth="yes"/>
      <point x="288.5656565656566" y="1346.090909090909"/>
      <point x="322.34343434343435" y="1377.3030303030303"/>
      <point x="322.34343434343435" y="1429.1616161616162" type="curve" smooth="yes"/>
      <point x="322.34343434343435" y="1481.020202020202"/>
      <point x="288.5656565656566" y="1513.949494949495"/>
      <point x="231.77777777777777" y="1513.949494949495" type="curve" smooth="yes"/>
      <point x="174.989898989899" y="1513.949494949495"/>
      <point x="141.2121212121212" y="1481.020202020202"/>
      <point x="141.2121212121212" y="1429.1616161616162" type="curve" smooth="yes"/>
      <point x="141.2121212121212" y="1377.3030303030303"/>
      <point x="174.989898989899" y="1346.090909090909"/>
    </contour>
  </outline>
</glyph>
<glyph name="k" format="2">
  <advance width="1068.2878787878788"/>
  <unicode hex="006B"/>
  <anchor x="570.1262626262626" y="0.0" name="bottom"/>
  <anchor x="232.83838383838383" y="1616.0" name="top"/>
  <outline>
    <contour>
      <point x="941.459595959596" y="0.0" type="line"/>
      <point x="1082.888888888889" y="0.0" type="line"/>
      <point x="598.4040404040404" y="572.1868686868687" type="line"/>
      <point x="598.4040404040404" y="538.60101010101" type="line"/>
      <point x="1050.111111111111" y="1082.828282828283" type="line"/>
      <point x="910.5252525252525" y="1082.828282828283" type="line"/>
      <point x="467.15656565656565" y="553.979797979798" type="line"/>
    </contour>
    <contour>
      <point x="275.16161616161617" y="501.47474747474746" type="line"/>
      <point x="526.4343434343434" y="501.47474747474746" type="line"/>
      <point x="526.4343434343434" y="606.4848484848485" type="line"/>
      <point x="275.16161616161617" y="606.4848484848485" type="line"/>
    </contour>
    <contour>
      <point x="172.1818181818182" y="0.0" type="line"/>
      <point x="293.42424242424244" y="0.0" type="line"/>
      <point x="293.42424242424244" y="1616.0" type="line"/>
      <point x="172.1818181818182" y="1616.0" type="line"/>
    </contour>
  </outline>
</glyph>
<glyph name="l" format="2">
  <advance width="465.6060606060606"/>
  <unicode hex="006C"/>
  <anchor x="232.62626262626264" y="0.0" name="bottom"/>
  <anchor x="418.4747474747475" y="1616.0" name="caronalt"/>
  <anchor x="481.3787878787879" y="794.0" name="periodcentered"/>
  <anchor x="232.83838383838383" y="714.0" name="slash"/>
  <anchor x="232.83838383838383" y="1616.0" name="top"/>
  <outline>
    <contour>
      <point x="172.1818181818182" y="0.0" type="line"/>
      <point x="293.42424242424244" y="0.0" type="line"/>
      <point x="293.42424242424244" y="1616.0" type="line"/>
      <point x="172.1818181818182" y="1616.0" type="line"/>
    </contour>
  </outline>
</glyph>
<glyph name="q" format="2">
  <advance width="1184.0050505050506"/>
  <unicode hex="0071"/>
  <outline>
    <contour>
      <point x="890.5808080808081" y="-440.0" type="line"/>
      <point x="1011.8232323232323" y="-440.0" type="line"/>
      <point x="1011.8232323232323" y="1050.5050505050506" type="line"/>
      <point x="907.3888888888889" y="1081.8383838383838"/>
      <point x="787.1010101010102" y="1099.111111111111"/>
      <point x="670.5505050505051" y="1099.111111111111" type="curve" smooth="yes"/>
      <point x="302.87373737373736" y="1099.111111111111"/>
      <point x="109.72727272727272" y="909.510101010101"/>
      <point x="109.72727272727272" y="518.2828282828283" type="curve" smooth="yes"/>
      <point x="109.72727272727272" y="127.45454545454545"/>
      <point x="305.83838383838383" y="-18.494949494949495"/>
      <point x="550.1868686868687" y="-18.494949494949495" type="curve" smooth="yes"/>
      <point x="692.6414141414141" y="-18.494949494949495"/>
      <point x="806.8080808080808" y="35.67171717171717"/>
      <point x="882.6717171717171" y="116.03535353535354" type="curve"/>
      <point x="890.5808080808081" y="116.03535353535354" type="line"/>
    </contour>
    <contour>
      <point x="577.7323232323232" y="88.23232323232327" type="curve" smooth="yes"/>
      <point x="381.24747474747477" y="88.23232323232327"/>
      <point x="234.05050505050508" y="193.459595959596"/>
      <point x="234.05050505050508" y="529.7474747474747" type="curve" smooth="yes"/>
      <point x="234.05050505050508" y="854.7272727272727"/>
      <point x="380.66161616161617" y="996.060606060606"/>
      <point x="659.7424242424242" y="996.060606060606" type="curve" smooth="yes"/>
      <point x="749.7474747474748" y="996.060606060606"/>
      <point x="831.2474747474747" y="984.1919191919192"/>
      <point x="890.5808080808081" y="968.2474747474747" type="curve"/>
      <point x="890.5808080808081" y="233.06565656565658" type="line"/>
      <point x="811.4494949494949" y="132.14646464646466"/>
      <point x="692.6262626262626" y="88.23232323232327"/>
    </contour>
  </outline>
</glyph>
<glyph name="r" format="2">
  <advance width="752.8737373737374"/>
  <unicode hex="0072"/>
  <anchor x="232.83838383838383" y="0.0" name="bottom"/>
  <anchor x="450.0505050505051" y="1200.0" name="top"/>
  <outline>
    <contour>
      <point x="172.1818181818182" y="0.0" type="line"/>
      <point x="293.42424242424244" y="0.0" type="line"/>
      <point x="293.42424242424244" y="813.6969696969696" type="line"/>
      <point x="378.5606060606061" y="926.7373737373737"/>
      <point x="524.1464646464647" y="976.7070707070707"/>
      <point x="635.9747474747475" y="976.7070707070707" type="curve" smooth="yes"/>
      <point x="673.3333333333334" y="976.7070707070707"/>
      <point x="705.8787878787879" y="975.1363636363636"/>
      <point x="738.7979797979798" y="969.7121212121211" type="curve"/>
      <point x="738.7979797979798" y="1083.8131313131314" type="line"/>
      <point x="705.6414141414141" y="1089.959595959596"/>
      <point x="677.2979797979798" y="1092.2424242424242"/>
      <point x="640.2929292929293" y="1092.2424242424242" type="curve" smooth="yes"/>
      <point x="511.5757575757576" y="1092.2424242424242"/>
      <point x="376.73232323232327" y="1036.010101010101"/>
      <point x="294.33333333333337" y="937.5909090909091" type="curve"/>
      <point x="284.7777777777778" y="937.5909090909091" type="line"/>
      <point x="274.74747474747477" y="1082.828282828283" type="line"/>
      <point x="172.1818181818182" y="1082.828282828283" type="line"/>
    </contour>
  </outline>
</glyph>
<glyph name="v" format="2">
  <advance width="1101.328282828283"/>
  <unicode hex="0076"/>
  <anchor x="552.1666666666667" y="0.0" name="bottom"/>
  <anchor x="552.1666666666667" y="1200.0" name="top"/>
  <outline>
    <contour>
      <point x="472.4191919191919" y="0.0" type="line"/>
      <point x="628.6969696969697" y="0.0" type="line"/>
      <point x="1076.1212121212122" y="1082.828282828283" type="line"/>
      <point x="953.3585858585859" y="1082.828282828283" type="line"/>
      <point x="546.1515151515151" y="82.25252525252529" type="line"/>
      <point x="563.4242424242425" y="82.25252525252529" type="line"/>
      <point x="156.21717171717177" y="1082.828282828283" type="line"/>
      <point x="25.207070707070702" y="1082.828282828283" type="line"/>
    </contour>
  </outline>
</glyph>
<glyph name="w" format="2">
  <advance width="1757.2727272727273"/>
  <unicode hex="0077"/>
  <anchor x="880.0656565656566" y="0.0" name="bottom"/>
  <anchor x="880.4949494949495" y="1200.0" name="top"/>
  <outline>
    <contour>
      <point x="417.77272727272725" y="0.0" type="line"/>
      <point x="567.4898989898991" y="0.0" type="line"/>
      <point x="888.7020202020202" y="993.0101010101009" type="line"/>
      <point x="870.3434343434344" y="993.0101010101009" type="line"/>
      <point x="1191.3535353535353" y="0.0" type="line"/>
      <point x="1341.0707070707072" y="0.0" type="line"/>
      <point x="1682.939393939394" y="1082.828282828283" type="line"/>
      <point x="1564.560606060606" y="1082.828282828283" type="line"/>
      <point x="1255.7474747474748" y="94.79797979797985" type="line"/>
      <point x="1273.020202020202" y="94.79797979797985" type="line"/>
      <point x="955.7676767676768" y="1082.828282828283" type="line"/>
      <point x="806.0505050505051" y="1082.828282828283" type="line"/>
      <point x="489.449494949495" y="94.93939393939398" type="line"/>
      <point x="505.3787878787879" y="94.93939393939398" type="line"/>
      <point x="197.04545454545456" y="1082.828282828283" type="line"/>
      <point x="74.33333333333333" y="1082.828282828283" type="line"/>
    </contour>
  </outline>
</glyph>
<glyph name="x" format="2">
  <advance width="1055.4797979797981"/>
  <unicode hex="0078"/>
  <anchor x="529.2424242424242" y="0.0" name="bottom"/>
  <anchor x="529.3131313131314" y="1200.0" name="top"/>
  <outline>
    <contour>
      <point x="885.1969696969697" y="0.0" type="line"/>
      <point x="1030.409090909091" y="0.0" type="line"/>
      <point x="601.8636363636365" y="547.9090909090909" type="line"/>
      <point x="530.0202020202021" y="634.4898989898991" type="line"/>
      <point x="181.57575757575762" y="1082.828282828283" type="line"/>
      <point x="36.36363636363636" y="1082.828282828283" type="line"/>
      <point x="454.4090909090909" y="545.4141414141415" type="line"/>
      <point x="527.030303030303" y="459.40404040404036" type="line"/>
    </contour>
    <contour>
      <point x="28.005050505050498" y="0.0" type="line"/>
      <point x="170.87878787878793" y="0.0" type="line"/>
      <point x="527.030303030303" y="459.40404040404036" type="line"/>
      <point x="601.8636363636365" y="547.9090909090909" type="line"/>
      <point x="1019.4141414141415" y="1082.828282828283" type="line"/>
      <point x="879.1161616161617" y="1082.828282828283" type="line"/>
      <point x="530.0202020202021" y="634.4898989898991" type="line"/>
      <point x="454.4090909090909" y="545.4141414141415" type="line"/>
    </contour>
  </outline>
</glyph>
<glyph name="z" format="2">
  <advance width="961.5707070707072"/>
  <unicode hex="007A"/>
  <anchor x="484.3787878787879" y="0.0" name="bottom"/>
  <anchor x="484.3787878787879" y="1200.0" name="top"/>
  <outline>
    <contour>
      <point x="66.62121212121212" y="0.0" type="line"/>
      <point x="901.4949494949495" y="0.0" type="line"/>
      <point x="901.4949494949495" y="103.73737373737376" type="line"/>
      <point x="206.22222222222229" y="103.73737373737376" type="line"/>
      <point x="206.22222222222229" y="72.52020202020205" type="line"/>
      <point x="888.9191919191919" y="1008.1818181818181" type="line"/>
      <point x="888.9191919191919" y="1082.828282828283" type="line"/>
      <point x="79.1969696969697" y="1082.828282828283" type="line"/>
      <point x="79.1969696969697" y="979.090909090909" type="line"/>
      <point x="749.3181818181818" y="979.090909090909" type="line"/>
      <point x="749.3181818181818" y="1010.3080808080808" type="line"/>
      <point x="66.62121212121212" y="74.64646464646466" type="line"/>
    </contour>
  </outline>
</glyph>
<glyph name="braceleft" format="2">
  <advance width="724.1010101010102"/>
  <unicode hex="007B"/>
  <outline>
    <contour>
      <point x="629.7474747474747" y="-460.0" type="curve" smooth="yes"/>
      <point x="678.9090909090909" y="-460.0"/>
      <point x="727.6666666666667" y="-455.7171717171717"/>
      <point x="761.8383838383838" y="-449.4343434343434" type="curve"/>
      <point x="761.8383838383838" y="-353.6969696969697" type="line"/>
      <point x="638.0505050505051" y="-353.6969696969697" type="line" smooth="yes"/>
      <point x="460.73232323232327" y="-353.6969696969697"/>
      <point x="372.4343434343435" y="-282.6212121212121"/>
      <point x="372.4343434343435" y="-104.01515151515152" type="curve" smooth="yes"/>
      <point x="372.4343434343435" y="379.47474747474746" type="line" smooth="yes"/>
      <point x="372.4343434343435" y="532.5454545454545"/>
      <point x="316.81818181818187" y="609.6363636363636"/>
      <point x="190.0909090909091" y="631.959595959596" type="curve"/>
      <point x="190.0909090909091" y="614.8686868686868" type="line"/>
      <point x="316.81818181818187" y="637.1919191919192"/>
      <point x="372.4343434343435" y="714.2828282828283"/>
      <point x="372.4343434343435" y="867.3535353535353" type="curve" smooth="yes"/>
      <point x="372.4343434343435" y="1280.0151515151515" type="line" smooth="yes"/>
      <point x="372.4343434343435" y="1458.621212121212"/>
      <point x="460.73232323232327" y="1529.6969696969697"/>
      <point x="638.0505050505051" y="1529.6969696969697" type="curve" smooth="yes"/>
      <point x="761.8383838383838" y="1529.6969696969697" type="line"/>
      <point x="761.8383838383838" y="1625.4343434343434" type="line"/>
      <point x="727.6666666666667" y="1631.7171717171718"/>
      <point x="678.9090909090909" y="1636.0"/>
      <point x="629.7474747474747" y="1636.0" type="curve" smooth="yes"/>
      <point x="379.35353535353534" y="1636.0"/>
      <point x="251.19191919191917" y="1518.0555555555557"/>
      <point x="251.19191919191917" y="1278.111111111111" type="curve" smooth="yes"/>
      <point x="251.19191919191917" y="855.3232323232323" type="line" smooth="yes"/>
      <point x="251.19191919191917" y="728.1515151515151"/>
      <point x="191.45454545454544" y="675.2828282828283"/>
      <point x="72.86868686868686" y="675.2828282828283" type="curve" smooth="yes"/>
      <point x="45.22727272727272" y="675.2828282828283" type="line"/>
      <point x="45.22727272727272" y="571.5454545454545" type="line"/>
      <point x="72.86868686868686" y="571.5454545454545" type="line" smooth="yes"/>
      <point x="191.45454545454544" y="571.5454545454545"/>
      <point x="251.19191919191917" y="518.6767676767677"/>
      <point x="251.19191919191917" y="391.5050505050505" type="curve" smooth="yes"/>
      <point x="251.19191919191917" y="-102.1111111111111" type="line" smooth="yes"/>
      <point x="251.19191919191917" y="-342.05555555555554"/>
      <point x="379.35353535353534" y="-460.0"/>
    </contour>
  </outline>
</glyph>
<glyph name="bar" format="2">
  <advance width="497.33333333333337"/>
  <unicode hex="007C"/>
  <outline>
    <contour>
      <point x="191.19191919191917" y="-440.0" type="line"/>
      <point x="306.1414141414142" y="-440.0" type="line"/>
      <point x="306.1414141414142" y="1616.0" type="line"/>
      <point x="191.19191919191917" y="1616.0" type="line"/>
    </contour>
  </outline>
</glyph>
<glyph name="braceright" format="2">
  <advance width="724.1010101010102"/>
  <unicode hex="007D"/>
  <outline>
    <contour>
      <point x="94.35353535353536" y="-460.0" type="curve" smooth="yes"/>
      <point x="344.74747474747477" y="-460.0"/>
      <point x="472.90909090909093" y="-342.05555555555554"/>
      <point x="472.90909090909093" y="-102.1111111111111" type="curve" smooth="yes"/>
      <point x="472.90909090909093" y="391.5050505050505" type="line" smooth="yes"/>
      <point x="472.90909090909093" y="518.6767676767677"/>
      <point x="532.6464646464647" y="571.5454545454545"/>
      <point x="651.2323232323232" y="571.5454545454545" type="curve" smooth="yes"/>
      <point x="678.8737373737374" y="571.5454545454545" type="line"/>
      <point x="678.8737373737374" y="675.2828282828283" type="line"/>
      <point x="651.2323232323232" y="675.2828282828283" type="line" smooth="yes"/>
      <point x="532.6464646464647" y="675.2828282828283"/>
      <point x="472.90909090909093" y="728.1515151515151"/>
      <point x="472.90909090909093" y="855.3232323232323" type="curve" smooth="yes"/>
      <point x="472.90909090909093" y="1278.111111111111" type="line" smooth="yes"/>
      <point x="472.90909090909093" y="1518.0555555555557"/>
      <point x="344.74747474747477" y="1636.0"/>
      <point x="94.35353535353536" y="1636.0" type="curve" smooth="yes"/>
      <point x="45.1919191919192" y="1636.0"/>
      <point x="-3.5656565656565604" y="1631.7171717171718"/>
      <point x="-37.73737373737374" y="1625.4343434343434" type="curve"/>
      <point x="-37.73737373737374" y="1529.6969696969697" type="line"/>
      <point x="86.05050505050505" y="1529.6969696969697" type="line" smooth="yes"/>
      <point x="263.36868686868684" y="1529.6969696969697"/>
      <point x="351.66666666666663" y="1458.621212121212"/>
      <point x="351.66666666666663" y="1280.0151515151515" type="curve" smooth="yes"/>
      <point x="351.66666666666663" y="867.3535353535353" type="line" smooth="yes"/>
      <point x="351.66666666666663" y="714.2828282828283"/>
      <point x="407.4949494949495" y="637.1919191919192"/>
      <point x="534.010101010101" y="614.8686868686868" type="curve"/>
      <point x="534.010101010101" y="631.959595959596" type="line"/>
      <point x="407.4949494949495" y="609.6363636363636"/>
      <point x="351.66666666666663" y="532.5454545454545"/>
      <point x="351.66666666666663" y="379.47474747474746" type="curve" smooth="yes"/>
      <point x="351.66666666666663" y="-104.01515151515152" type="line" smooth="yes"/>
      <point x="351.66666666666663" y="-282.6212121212121"/>
      <point x="263.36868686868684" y="-353.6969696969697"/>
      <point x="86.05050505050505" y="-353.6969696969697" type="curve" smooth="yes"/>
      <point x="-37.73737373737374" y="-353.6969696969697" type="line"/>
      <point x="-37.73737373737374" y="-449.4343434343434" type="line"/>
      <point x="-3.5656565656565604" y="-455.7171717171717"/>
      <point x="45.1919191919192" y="-460.0"/>
    </contour>
  </outline>
</glyph>
<glyph name="asciitilde" format="2">
  <advance width="1095.0404040404042"/>
  <unicode hex="007E"/>
  <outline>
    <contour>
      <point x="725.0353535353536" y="646.3232323232323" type="curve" smooth="yes"/>
      <point x="808.0555555555555" y="646.3232323232323"/>
      <point x="879.1868686868687" y="678.040404040404"/>
      <point x="926.9343434343434" y="738.020202020202" type="curve"/>
      <point x="926.9343434343434" y="855.3737373737374" type="line"/>
      <point x="868.6919191919192" y="782.5252525252525"/>
      <point x="803.2070707070707" y="747.0909090909091"/>
      <point x="723.8838383838383" y="747.0909090909091" type="curve" smooth="yes"/>
      <point x="615.5" y="747.0909090909091"/>
      <point x="507.0959595959596" y="863.3737373737374"/>
      <point x="370.0050505050505" y="863.3737373737374" type="curve" smooth="yes"/>
      <point x="286.9848484848485" y="863.3737373737374"/>
      <point x="215.85353535353534" y="831.6565656565657"/>
      <point x="168.1060606060606" y="771.6767676767677" type="curve"/>
      <point x="168.1060606060606" y="654.3232323232323" type="line"/>
      <point x="226.34848484848484" y="727.1717171717172"/>
      <point x="291.8333333333333" y="762.6060606060606"/>
      <point x="371.15656565656565" y="762.6060606060606" type="curve" smooth="yes"/>
      <point x="479.54040404040404" y="762.6060606060606"/>
      <point x="587.9444444444445" y="646.3232323232323"/>
    </contour>
  </outline>
</glyph>
<glyph name="exclamdown" format="2">
  <advance width="501.3838383838384"/>
  <unicode hex="00A1"/>
  <outline>
    <contour>
      <point x="211.56060606060606" y="731.6161616161615" type="line"/>
      <point x="186.55050505050505" y="175.5050505050505" type="line"/>
      <point x="186.55050505050505" y="-380.0" type="line"/>
      <point x="314.83333333333337" y="-380.0" type="line"/>
      <point x="314.83333333333337" y="175.5050505050505" type="line"/>
      <point x="290.6010101010101" y="731.6161616161615" type="line"/>
    </contour>
    <contour>
      <point x="250.6919191919192" y="1094.2424242424242" type="curve" smooth="yes"/>
      <point x="195.38888888888889" y="1094.2424242424242"/>
      <point x="158.0050505050505" y="1059.989898989899"/>
      <point x="158.0050505050505" y="1005.3030303030303" type="curve" smooth="yes"/>
      <point x="158.0050505050505" y="950.6161616161615"/>
      <point x="194.82323232323233" y="914.6464646464647"/>
      <point x="250.6919191919192" y="914.6464646464647" type="curve" smooth="yes"/>
      <point x="306.5606060606061" y="914.6464646464647"/>
      <point x="343.37878787878793" y="951.1818181818181"/>
      <point x="343.37878787878793" y="1005.3030303030303" type="curve" smooth="yes"/>
      <point x="343.37878787878793" y="1059.4242424242425"/>
      <point x="305.99494949494954" y="1094.2424242424242"/>
    </contour>
  </outline>
</glyph>
<glyph name="cent" format="2">
  <advance width="928.8333333333334"/>
  <unicode hex="00A2"/>
  <outline>
    <contour>
      <point x="595.979797979798" y="-18.565656565656568" type="curve" smooth="yes"/>
      <point x="689.7929292929293" y="-18.565656565656568"/>
      <point x="784.8383838383838" y="-2.065656565656566"/>
      <point x="874.7121212121212" y="30.52020202020202" type="curve"/>
      <point x="874.7121212121212" y="136.84343434343435" type="line"/>
      <point x="769.429292929293" y="101.46464646464649"/>
      <point x="686.1868686868687" y="87.1717171717172"/>
      <point x="609.7626262626263" y="87.1717171717172" type="curve" smooth="yes"/>
      <point x="366.30808080808083" y="87.1717171717172"/>
      <point x="235.81818181818184" y="214.55050505050508"/>
      <point x="235.81818181818184" y="544.5656565656566" type="curve" smooth="yes"/>
      <point x="235.81818181818184" y="868.0757575757575"/>
      <point x="367.39393939393943" y="993.3737373737373"/>
      <point x="643.6414141414141" y="993.3737373737373" type="curve" smooth="yes"/>
      <point x="723.570707070707" y="993.3737373737373"/>
      <point x="795.9343434343434" y="982.0808080808081"/>
      <point x="874.7121212121212" y="961.0656565656566" type="curve"/>
      <point x="874.7121212121212" y="1067.388888888889" type="line"/>
      <point x="797.439393939394" y="1088.8232323232323"/>
      <point x="720.7525252525253" y="1099.111111111111"/>
      <point x="638.010101010101" y="1099.111111111111" type="curve" smooth="yes"/>
      <point x="295.19191919191917" y="1099.111111111111"/>
      <point x="109.72727272727272" y="928.2323232323232"/>
      <point x="109.72727272727272" y="540.9191919191919" type="curve" smooth="yes"/>
      <point x="109.72727272727272" y="152.81313131313132"/>
      <point x="284.40909090909093" y="-18.565656565656568"/>
    </contour>
    <contour>
      <point x="534.5656565656566" y="-240.0" type="line"/>
      <point x="643.2525252525253" y="-240.0" type="line"/>
      <point x="643.2525252525253" y="8.484848484848492" type="line"/>
      <point x="534.5656565656566" y="8.484848484848492" type="line"/>
    </contour>
    <contour>
      <point x="534.5656565656566" y="1074.3434343434344" type="line"/>
      <point x="643.2525252525253" y="1074.3434343434344" type="line"/>
      <point x="643.2525252525253" y="1322.828282828283" type="line"/>
      <point x="534.5656565656566" y="1322.828282828283" type="line"/>
    </contour>
  </outline>
</glyph>
<glyph name="sterling" format="2">
  <advance width="1334.5252525252527"/>
  <unicode hex="00A3"/>
  <outline>
    <contour>
      <point x="318.93939393939394" y="45.01010101010102" type="line"/>
      <point x="439.1212121212121" y="45.01010101010102" type="line"/>
      <point x="439.1212121212121" y="1041.3838383838383" type="line" smooth="yes"/>
      <point x="439.1212121212121" y="1298.0454545454545"/>
      <point x="581.7525252525253" y="1391.6262626262626"/>
      <point x="858.6565656565657" y="1391.6262626262626" type="curve" smooth="yes"/>
      <point x="972.7979797979798" y="1391.6262626262626"/>
      <point x="1088.9646464646464" y="1375.3434343434344"/>
      <point x="1200.7070707070707" y="1341.1868686868686" type="curve"/>
      <point x="1200.7070707070707" y="1450.1262626262626" type="line"/>
      <point x="1098.489898989899" y="1481.7121212121212"/>
      <point x="976.7272727272727" y="1498.2828282828282"/>
      <point x="857.7727272727273" y="1498.2828282828282" type="curve" smooth="yes"/>
      <point x="504.85858585858585" y="1498.2828282828282"/>
      <point x="318.93939393939394" y="1353.0"/>
      <point x="318.93939393939394" y="1038.2727272727273" type="curve" smooth="yes"/>
    </contour>
    <contour>
      <point x="80.0" y="0.0" type="line"/>
      <point x="1244.3333333333333" y="0.0" type="line"/>
      <point x="1244.3333333333333" y="103.8787878787879" type="line"/>
      <point x="80.0" y="103.8787878787879" type="line"/>
    </contour>
    <contour>
      <point x="80.0" y="700.2525252525253" type="line"/>
      <point x="1010.7575757575758" y="700.2525252525253" type="line"/>
      <point x="1010.7575757575758" y="799.7474747474747" type="line"/>
      <point x="80.0" y="799.7474747474747" type="line"/>
    </contour>
  </outline>
</glyph>
<glyph name="currency" format="2">
  <advance width="1182.5252525252527"/>
  <unicode hex="00A4"/>
  <outline>
    <contour>
      <point x="367.26262626262627" y="920.2020202020202" type="line"/>
      <point x="411.0606060606061" y="962.2828282828283" type="line"/>
      <point x="300.64646464646466" y="1101.2626262626263" type="line"/>
      <point x="199.97979797979798" y="1205.6464646464647" type="line"/>
      <point x="123.8989898989899" y="1129.5656565656566" type="line"/>
      <point x="230.0" y="1028.8989898989898" type="line"/>
    </contour>
    <contour>
      <point x="815.2626262626263" y="920.2020202020202" type="line"/>
      <point x="952.5252525252525" y="1028.8989898989898" type="line"/>
      <point x="1058.6262626262626" y="1129.5656565656566" type="line"/>
      <point x="982.5454545454545" y="1205.6464646464647" type="line"/>
      <point x="881.8787878787879" y="1101.2626262626263" type="line"/>
      <point x="771.4646464646464" y="962.2828282828283" type="line"/>
    </contour>
    <contour>
      <point x="980.8282828282828" y="274.35353535353534" type="line"/>
      <point x="1056.909090909091" y="350.4343434343434" type="line"/>
      <point x="952.5252525252525" y="451.1010101010101" type="line"/>
      <point x="823.8484848484849" y="551.2121212121212" type="line"/>
      <point x="780.0505050505051" y="505.6969696969697" type="line"/>
      <point x="880.1616161616162" y="378.73737373737373" type="line"/>
    </contour>
    <contour>
      <point x="201.6969696969697" y="274.35353535353534" type="line"/>
      <point x="302.3636363636364" y="378.73737373737373" type="line"/>
      <point x="402.4747474747475" y="505.6969696969697" type="line"/>
      <point x="358.67676767676767" y="551.2121212121212" type="line"/>
      <point x="230.0" y="451.1010101010101" type="line"/>
      <point x="125.6161616161616" y="350.4343434343434" type="line"/>
    </contour>
    <contour>
      <point x="591.2626262626263" y="401.9343434343434" type="curve" smooth="yes"/>
      <point x="782.929292929293" y="401.9343434343434"/>
      <point x="914.7222222222223" y="536.6161616161617"/>
      <point x="914.7222222222223" y="740.0" type="curve" smooth="yes"/>
      <point x="914.7222222222223" y="941.3838383838383"/>
      <point x="782.929292929293" y="1076.0656565656566"/>
      <point x="591.2626262626263" y="1076.0656565656566" type="curve" smooth="yes"/>
      <point x="397.8787878787879" y="1076.0656565656566"/>
      <point x="267.8030303030303" y="941.3838383838383"/>
      <point x="267.8030303030303" y="740.0" type="curve" smooth="yes"/>
      <point x="267.8030303030303" y="536.6161616161617"/>
      <point x="397.8787878787879" y="401.9343434343434"/>
    </contour>
    <contour>
      <point x="591.2626262626263" y="486.84343434343435" type="curve" smooth="yes"/>
      <point x="451.4545454545455" y="486.84343434343435"/>
      <point x="355.2575757575758" y="580.7575757575758"/>
      <point x="355.2575757575758" y="740.0" type="curve" smooth="yes"/>
      <point x="355.2575757575758" y="899.2424242424242"/>
      <point x="451.4545454545455" y="993.1565656565656"/>
      <point x="593.2626262626263" y="993.1565656565656" type="curve" smooth="yes"/>
      <point x="743.6565656565657" y="993.1565656565656"/>
      <point x="827.2676767676768" y="887.8080808080808"/>
      <point x="827.2676767676768" y="740.0" type="curve" smooth="yes"/>
      <point x="827.2676767676768" y="579.040404040404"/>
      <point x="731.070707070707" y="486.84343434343435"/>
    </contour>
  </outline>
</glyph>
<glyph name="yen" format="2">
  <advance width="1258.3333333333333"/>
  <unicode hex="00A5"/>
  <outline>
    <contour>
      <point x="568.2626262626262" y="0.0" type="line"/>
      <point x="690.9898989898991" y="0.0" type="line"/>
      <point x="690.9898989898991" y="716.1161616161617" type="line"/>
      <point x="662.0909090909091" y="625.4848484848485" type="line"/>
      <point x="1255.2474747474748" y="1480.0" type="line"/>
      <point x="1121.9141414141413" y="1480.0" type="line"/>
      <point x="607.5353535353536" y="739.7070707070707" type="line"/>
      <point x="656.8383838383838" y="739.7070707070707" type="line"/>
      <point x="141.89898989898992" y="1480.0" type="line"/>
      <point x="0.7525252525252455" y="1480.0" type="line"/>
      <point x="597.1616161616162" y="625.4848484848485" type="line"/>
      <point x="568.2626262626262" y="716.9646464646464" type="line"/>
    </contour>
    <contour>
      <point x="239.67676767676767" y="307.2020202020202" type="line"/>
      <point x="1019.5757575757576" y="307.2020202020202" type="line"/>
      <point x="1019.5757575757576" y="396.93939393939394" type="line"/>
      <point x="239.67676767676767" y="396.93939393939394" type="line"/>
    </contour>
    <contour>
      <point x="239.67676767676767" y="651.060606060606" type="line"/>
      <point x="1019.5757575757576" y="651.060606060606" type="line"/>
      <point x="1019.5757575757576" y="740.7979797979798" type="line"/>
      <point x="239.67676767676767" y="740.7979797979798" type="line"/>
    </contour>
  </outline>
</glyph>
<glyph name="brokenbar" format="2">
  <advance width="497.33333333333337"/>
  <unicode hex="00A6"/>
  <outline>
    <contour>
      <point x="191.19191919191917" y="836.0" type="line"/>
      <point x="306.1414141414142" y="836.0" type="line"/>
      <point x="306.1414141414142" y="1616.0" type="line"/>
      <point x="191.19191919191917" y="1616.0" type="line"/>
    </contour>
    <contour>
      <point x="191.19191919191917" y="-440.0" type="line"/>
      <point x="306.1414141414142" y="-440.0" type="line"/>
      <point x="306.1414141414142" y="340.0" type="line"/>
      <point x="191.19191919191917" y="340.0" type="line"/>
    </contour>
  </outline>
</glyph>
<glyph name="section" format="2">
  <advance width="1065.3737373737374"/>
  <unicode hex="00A7"/>
  <outline>
    <contour>
      <point x="468.5353535353535" y="-18.565656565656568" type="curve" smooth="yes"/>
      <point x="761.3636363636364" y="-18.565656565656568"/>
      <point x="900.1313131313132" y="101.11111111111111"/>
      <point x="900.1313131313132" y="290.4040404040404" type="curve" smooth="yes"/>
      <point x="900.1313131313132" y="442.16161616161617"/>
      <point x="816.2626262626263" y="528.8080808080808"/>
      <point x="611.0858585858587" y="569.6060606060606" type="curve" smooth="yes"/>
      <point x="444.8484848484849" y="601.4343434343434" type="line" smooth="yes"/>
      <point x="295.92929292929296" y="631.1060606060606"/>
      <point x="247.9545454545455" y="701.9646464646464"/>
      <point x="247.9545454545455" y="797.7070707070707" type="curve" smooth="yes"/>
      <point x="247.9545454545455" y="865.989898989899"/>
      <point x="278.91414141414145" y="925.1818181818181"/>
      <point x="347.0353535353536" y="967.459595959596" type="curve"/>
      <point x="271.7070707070707" y="1024.3131313131314" type="line"/>
      <point x="185.69191919191917" y="969.6111111111111"/>
      <point x="138.8080808080808" y="888.4797979797979"/>
      <point x="138.8080808080808" y="791.6717171717172" type="curve" smooth="yes"/>
      <point x="138.8080808080808" y="638.5909090909091"/>
      <point x="222.44949494949495" y="543.1616161616162"/>
      <point x="419.84343434343435" y="503.57575757575756" type="curve" smooth="yes"/>
      <point x="585.8686868686868" y="471.88888888888886" type="line" smooth="yes"/>
      <point x="731.6161616161617" y="443.0656565656566"/>
      <point x="782.530303030303" y="388.7828282828283"/>
      <point x="782.530303030303" y="280.7878787878788" type="curve" smooth="yes"/>
      <point x="782.530303030303" y="153.7676767676768"/>
      <point x="695.1515151515151" y="78.82828282828285"/>
      <point x="471.40909090909093" y="78.82828282828285" type="curve" smooth="yes"/>
      <point x="368.8787878787879" y="78.82828282828285"/>
      <point x="276.3030303030303" y="89.82323232323235"/>
      <point x="160.52525252525254" y="123.25757575757578" type="curve"/>
      <point x="160.52525252525254" y="24.146464646464647" type="line"/>
      <point x="257.989898989899" y="-5.712121212121213"/>
      <point x="358.8333333333333" y="-18.565656565656568"/>
    </contour>
    <contour>
      <point x="797.6363636363636" y="456.1363636363636" type="line"/>
      <point x="878.7676767676768" y="510.69191919191917"/>
      <point x="926.5656565656566" y="589.3838383838383"/>
      <point x="926.5656565656566" y="690.7575757575758" type="curve" smooth="yes"/>
      <point x="926.5656565656566" y="845.8383838383838"/>
      <point x="842.6969696969697" y="935.0505050505051"/>
      <point x="638.2979797979798" y="975.2828282828283" type="curve" smooth="yes"/>
      <point x="470.1515151515152" y="1006.6868686868687" type="line" smooth="yes"/>
      <point x="325.2626262626263" y="1035.510101010101"/>
      <point x="280.7222222222223" y="1102.388888888889"/>
      <point x="280.7222222222223" y="1196.3636363636363" type="curve" smooth="yes"/>
      <point x="280.7222222222223" y="1311.2272727272727"/>
      <point x="362.439393939394" y="1398.888888888889"/>
      <point x="602.0959595959596" y="1398.888888888889" type="curve" smooth="yes"/>
      <point x="690.4444444444445" y="1398.888888888889"/>
      <point x="764.1969696969697" y="1389.888888888889"/>
      <point x="860.7070707070707" y="1364.020202020202" type="curve"/>
      <point x="860.7070707070707" y="1463.1313131313132" type="line"/>
      <point x="776.2121212121212" y="1485.2828282828282"/>
      <point x="689.8383838383838" y="1496.2828282828282"/>
      <point x="597.0757575757576" y="1496.2828282828282" type="curve" smooth="yes"/>
      <point x="292.82828282828285" y="1496.2828282828282"/>
      <point x="163.12121212121212" y="1366.4545454545455"/>
      <point x="163.12121212121212" y="1190.611111111111" type="curve" smooth="yes"/>
      <point x="163.12121212121212" y="1042.2676767676767"/>
      <point x="246.47979797979798" y="949.0505050505051"/>
      <point x="447.05555555555554" y="908.969696969697" type="curve" smooth="yes"/>
      <point x="613.0808080808081" y="877.1414141414141" type="line" smooth="yes"/>
      <point x="762.8585858585859" y="847.469696969697"/>
      <point x="817.4191919191919" y="789.2070707070707"/>
      <point x="817.4191919191919" y="679.7979797979798" type="curve" smooth="yes"/>
      <point x="817.4191919191919" y="605.3787878787879"/>
      <point x="785.1868686868687" y="549.040404040404"/>
      <point x="716.3888888888889" y="509.34343434343435" type="curve"/>
    </contour>
  </outline>
</glyph>
<glyph name="dieresis" format="2">
  <advance width="1114.141414141414"/>
  <unicode hex="00A8"/>
  <anchor x="557.070707070707" y="1200.0" name="_top"/>
  <anchor x="557.070707070707" y="1564.4848484848485" name="top"/>
  <outline>
    <contour>
      <point x="784.8484848484849" y="1339.141414141414" type="curve" smooth="yes"/>
      <point x="837.3232323232323" y="1339.141414141414"/>
      <point x="870.1111111111111" y="1370.6363636363635"/>
      <point x="870.1111111111111" y="1421.4343434343434" type="curve" smooth="yes"/>
      <point x="870.1111111111111" y="1472.2323232323233"/>
      <point x="837.3232323232323" y="1505.4444444444446"/>
      <point x="784.8484848484849" y="1505.4444444444446" type="curve" smooth="yes"/>
      <point x="732.3737373737374" y="1505.4444444444446"/>
      <point x="699.5858585858587" y="1472.2323232323233"/>
      <point x="699.5858585858587" y="1421.4343434343434" type="curve" smooth="yes"/>
      <point x="699.5858585858587" y="1370.6363636363635"/>
      <point x="732.3737373737374" y="1339.141414141414"/>
    </contour>
    <contour>
      <point x="329.29292929292933" y="1339.141414141414" type="curve" smooth="yes"/>
      <point x="381.7676767676768" y="1339.141414141414"/>
      <point x="414.55555555555554" y="1370.6363636363635"/>
      <point x="414.55555555555554" y="1421.4343434343434" type="curve" smooth="yes"/>
      <point x="414.55555555555554" y="1472.2323232323233"/>
      <point x="381.7676767676768" y="1505.4444444444446"/>
      <point x="329.29292929292933" y="1505.4444444444446" type="curve" smooth="yes"/>
      <point x="276.8181818181818" y="1505.4444444444446"/>
      <point x="244.030303030303" y="1472.2323232323233"/>
      <point x="244.030303030303" y="1421.4343434343434" type="curve" smooth="yes"/>
      <point x="244.030303030303" y="1370.6363636363635"/>
      <point x="276.8181818181818" y="1339.141414141414"/>
    </contour>
  </outline>
</glyph>
<glyph name="copyright" format="2">
  <advance width="1731.1313131313132"/>
  <unicode hex="00A9"/>
  <outline>
    <contour>
      <point x="865.5656565656566" y="-22.0" type="curve" smooth="yes"/>
      <point x="1312.4141414141413" y="-22.0"/>
      <point x="1610.4141414141413" y="282.0"/>
      <point x="1610.4141414141413" y="740.0" type="curve" smooth="yes"/>
      <point x="1610.4141414141413" y="1198.0"/>
      <point x="1312.4141414141413" y="1502.0"/>
      <point x="865.5656565656566" y="1502.0" type="curve" smooth="yes"/>
      <point x="418.7171717171717" y="1502.0"/>
      <point x="120.71717171717171" y="1198.0"/>
      <point x="120.71717171717171" y="740.0" type="curve" smooth="yes"/>
      <point x="120.71717171717171" y="282.0"/>
      <point x="418.7171717171717" y="-22.0"/>
    </contour>
    <contour>
      <point x="904.6565656565657" y="324.0" type="curve" smooth="yes"/>
      <point x="983.2222222222222" y="324.0"/>
      <point x="1055.2222222222222" y="336.0"/>
      <point x="1120.6767676767677" y="364.3030303030303" type="curve"/>
      <point x="1120.6767676767677" y="456.32323232323233" type="line"/>
      <point x="1039.2424242424242" y="426.3030303030303"/>
      <point x="971.4848484848485" y="416.8686868686869"/>
      <point x="913.7676767676768" y="416.8686868686869" type="curve" smooth="yes"/>
      <point x="729.6464646464647" y="416.8686868686869"/>
      <point x="616.1313131313132" y="518.9494949494949"/>
      <point x="616.1313131313132" y="737.1515151515151" type="curve" smooth="yes"/>
      <point x="616.1313131313132" y="950.4848484848485"/>
      <point x="728.7979797979798" y="1051.1313131313132"/>
      <point x="934.3535353535353" y="1051.1313131313132" type="curve" smooth="yes"/>
      <point x="1002.3737373737374" y="1051.1313131313132"/>
      <point x="1058.9595959595958" y="1041.6969696969697"/>
      <point x="1120.6767676767677" y="1024.828282828283" type="curve"/>
      <point x="1120.6767676767677" y="1116.8484848484848" type="line"/>
      <point x="1057.8080808080808" y="1136.0"/>
      <point x="997.5252525252525" y="1144.0"/>
      <point x="928.6767676767677" y="1144.0" type="curve" smooth="yes"/>
      <point x="662.4141414141415" y="1144.0"/>
      <point x="511.88888888888886" y="995.4343434343434"/>
      <point x="511.88888888888886" y="733.7171717171717" type="curve" smooth="yes"/>
      <point x="511.88888888888886" y="463.6969696969697"/>
      <point x="668.7171717171717" y="324.0"/>
    </contour>
    <contour>
      <point x="865.5656565656566" y="66.36363636363637" type="curve" smooth="yes"/>
      <point x="469.1818181818182" y="66.36363636363637"/>
      <point x="210.4949494949495" y="333.03030303030306"/>
      <point x="210.4949494949495" y="740.0" type="curve" smooth="yes"/>
      <point x="210.4949494949495" y="1146.969696969697"/>
      <point x="469.1818181818182" y="1413.6363636363635"/>
      <point x="865.5656565656566" y="1413.6363636363635" type="curve" smooth="yes"/>
      <point x="1261.949494949495" y="1413.6363636363635"/>
      <point x="1520.6363636363635" y="1146.969696969697"/>
      <point x="1520.6363636363635" y="740.0" type="curve" smooth="yes"/>
      <point x="1520.6363636363635" y="333.03030303030306"/>
      <point x="1261.949494949495" y="66.36363636363637"/>
    </contour>
  </outline>
</glyph>
<glyph name="ordfeminine" format="2">
  <advance width="908.040404040404"/>
  <unicode hex="00AA"/>
  <outline>
    <contour>
      <point x="373.80808080808083" y="595.4343434343434" type="curve" smooth="yes"/>
      <point x="489.1969696969697" y="595.4343434343434"/>
      <point x="598.5151515151515" y="639.6767676767677"/>
      <point x="664.5353535353536" y="710.2525252525253" type="curve"/>
      <point x="672.1616161616162" y="710.2525252525253" type="line"/>
      <point x="681.4141414141413" y="610.0" type="line"/>
      <point x="777.929292929293" y="610.0" type="line"/>
      <point x="777.929292929293" y="1180.1262626262626" type="line" smooth="yes"/>
      <point x="777.929292929293" y="1417.3333333333333"/>
      <point x="654.1212121212121" y="1493.4141414141413"/>
      <point x="418.71212121212125" y="1493.4141414141413" type="curve" smooth="yes"/>
      <point x="328.73737373737373" y="1493.4141414141413"/>
      <point x="226.64141414141415" y="1479.6969696969697"/>
      <point x="144.55050505050505" y="1451.3383838383838" type="curve"/>
      <point x="144.55050505050505" y="1356.580808080808" type="line"/>
      <point x="236.9242424242424" y="1387.0252525252524"/>
      <point x="330.4090909090909" y="1399.5959595959596"/>
      <point x="405.4646464646465" y="1399.5959595959596" type="curve" smooth="yes"/>
      <point x="577.3989898989898" y="1399.5959595959596"/>
      <point x="664.929292929293" y="1353.7171717171716"/>
      <point x="664.929292929293" y="1189.7525252525252" type="curve" smooth="yes"/>
      <point x="664.929292929293" y="798.0505050505051" type="line"/>
      <point x="591.3434343434343" y="720.5"/>
      <point x="494.86868686868684" y="684.6565656565657"/>
      <point x="400.02525252525254" y="684.6565656565657" type="curve" smooth="yes"/>
      <point x="265.2525252525253" y="684.6565656565657"/>
      <point x="202.2626262626263" y="742.7878787878788"/>
      <point x="202.2626262626263" y="842.8232323232323" type="curve" smooth="yes"/>
      <point x="202.2626262626263" y="938.4949494949495"/>
      <point x="266.04545454545456" y="991.7626262626262"/>
      <point x="430.0" y="1009.2171717171717" type="curve" smooth="yes"/>
      <point x="710.7525252525253" y="1038.2575757575758" type="line"/>
      <point x="703.6060606060606" y="1113.939393939394" type="line"/>
      <point x="419.1666666666667" y="1084.6161616161617" type="line" smooth="yes"/>
      <point x="184.63131313131314" y="1062.0959595959596"/>
      <point x="86.74747474747474" y="980.2575757575758"/>
      <point x="86.74747474747474" y="832.0252525252525" type="curve" smooth="yes"/>
      <point x="86.74747474747474" y="686.8232323232323"/>
      <point x="192.1060606060606" y="595.4343434343434"/>
    </contour>
  </outline>
</glyph>
<glyph name="guillemetleft" format="2">
  <advance width="1038.5707070707072"/>
  <unicode hex="00AB"/>
  <outline>
    <contour>
      <point x="414.979797979798" y="138.58585858585857" type="line"/>
      <point x="545.4343434343434" y="138.58585858585857" type="line"/>
      <point x="257.8383838383839" y="561.4141414141415" type="line"/>
      <point x="545.4343434343434" y="984.2424242424242" type="line"/>
      <point x="414.979797979798" y="984.2424242424242" type="line"/>
      <point x="127.38383838383838" y="561.4141414141415" type="line"/>
    </contour>
    <contour>
      <point x="820.7323232323232" y="138.58585858585857" type="line"/>
      <point x="951.1868686868688" y="138.58585858585857" type="line"/>
      <point x="663.5909090909091" y="561.4141414141415" type="line"/>
      <point x="951.1868686868688" y="984.2424242424242" type="line"/>
      <point x="820.7323232323232" y="984.2424242424242" type="line"/>
      <point x="533.1363636363636" y="561.4141414141415" type="line"/>
    </contour>
  </outline>
</glyph>
<glyph name="logicalnot" format="2">
  <advance width="1380.5757575757575"/>
  <unicode hex="00AC"/>
  <outline>
    <contour>
      <point x="1115.949494949495" y="193.83838383838383" type="line"/>
      <point x="1223.1212121212122" y="193.83838383838383" type="line"/>
      <point x="1223.1212121212122" y="810.8080808080808" type="line"/>
      <point x="168.1060606060606" y="810.8080808080808" type="line"/>
      <point x="168.1060606060606" y="709.1919191919192" type="line"/>
      <point x="1115.949494949495" y="709.1919191919192" type="line"/>
    </contour>
  </outline>
</glyph>
<glyph name="softhyphen" format="2">
  <advance width="886.4343434343434"/>
  <unicode hex="00AD"/>
  <outline>
    <contour>
      <point x="168.1060606060606" y="508.6969696969697" type="line"/>
      <point x="718.3282828282829" y="508.6969696969697" type="line"/>
      <point x="718.3282828282829" y="614.1313131313132" type="line"/>
      <point x="168.1060606060606" y="614.1313131313132" type="line"/>
    </contour>
  </outline>
</glyph>
<glyph name="registered" format="2">
  <advance width="1544.3636363636363"/>
  <unicode hex="00AE"/>
  <outline>
    <contour>
      <point x="772.1818181818181" y="268.0" type="curve" smooth="yes"/>
      <point x="1134.1818181818182" y="268.0"/>
      <point x="1382.1818181818182" y="518.0"/>
      <point x="1382.1818181818182" y="882.0" type="curve" smooth="yes"/>
      <point x="1382.1818181818182" y="1246.0"/>
      <point x="1134.1818181818182" y="1498.0"/>
      <point x="772.1818181818181" y="1498.0" type="curve" smooth="yes"/>
      <point x="410.1818181818182" y="1498.0"/>
      <point x="162.1818181818182" y="1246.0"/>
      <point x="162.1818181818182" y="882.0" type="curve" smooth="yes"/>
      <point x="162.1818181818182" y="518.0"/>
      <point x="410.1818181818182" y="268.0"/>
    </contour>
    <contour>
      <point x="940.0" y="600.0" type="line"/>
      <point x="1030.989898989899" y="600.0" type="line"/>
      <point x="858.3838383838383" y="854.3434343434343" type="line"/>
      <point x="783.6767676767677" y="828.3434343434343" type="line"/>
    </contour>
    <contour>
      <point x="772.1818181818181" y="346.72727272727275" type="curve" smooth="yes"/>
      <point x="452.6666666666667" y="346.72727272727275"/>
      <point x="244.32323232323233" y="557.6363636363636"/>
      <point x="244.32323232323233" y="882.0" type="curve" smooth="yes"/>
      <point x="244.32323232323233" y="1206.6464646464647"/>
      <point x="452.6666666666667" y="1419.2727272727273"/>
      <point x="772.1818181818181" y="1419.2727272727273" type="curve" smooth="yes"/>
      <point x="1091.6969696969697" y="1419.2727272727273"/>
      <point x="1300.040404040404" y="1206.6464646464647"/>
      <point x="1300.040404040404" y="882.0" type="curve" smooth="yes"/>
      <point x="1300.040404040404" y="557.6363636363636"/>
      <point x="1091.6969696969697" y="346.72727272727275"/>
    </contour>
    <contour>
      <point x="562.2020202020202" y="600.0" type="line"/>
      <point x="642.3434343434343" y="600.0" type="line"/>
      <point x="643.1919191919192" y="820.3434343434343" type="line"/>
      <point x="759.030303030303" y="820.3434343434343" type="line" smooth="yes"/>
      <point x="923.5757575757576" y="820.3434343434343"/>
      <point x="1005.8585858585859" y="886.060606060606"/>
      <point x="1005.8585858585859" y="1005.1717171717172" type="curve" smooth="yes"/>
      <point x="1005.8585858585859" y="1124.2828282828282"/>
      <point x="921.5757575757576" y="1192.0"/>
      <point x="759.030303030303" y="1192.0" type="curve" smooth="yes"/>
      <point x="562.2020202020202" y="1192.0" type="line"/>
    </contour>
    <contour>
      <point x="643.1919191919192" y="892.2424242424242" type="line"/>
      <point x="643.1919191919192" y="1120.1010101010102" type="line"/>
      <point x="773.010101010101" y="1120.1010101010102" type="line" smooth="yes"/>
      <point x="875.959595959596" y="1120.1010101010102"/>
      <point x="926.2828282828283" y="1082.3636363636363"/>
      <point x="926.2828282828283" y="1005.1717171717172" type="curve" smooth="yes"/>
      <point x="926.2828282828283" y="927.979797979798"/>
      <point x="877.959595959596" y="892.2424242424242"/>
      <point x="773.010101010101" y="892.2424242424242" type="curve" smooth="yes"/>
    </contour>
  </outline>
</glyph>
<glyph name="degree" format="2">
  <advance width="1016.4646464646464"/>
  <unicode hex="00B0"/>
  <outline>
    <contour>
      <point x="508.2323232323232" y="806.4444444444445" type="curve" smooth="yes"/>
      <point x="710.040404040404" y="806.4444444444445"/>
      <point x="854.2828282828283" y="951.8383838383838"/>
      <point x="854.2828282828283" y="1151.6464646464647" type="curve" smooth="yes"/>
      <point x="854.2828282828283" y="1351.4545454545455"/>
      <point x="710.040404040404" y="1496.5656565656566"/>
      <point x="508.2323232323232" y="1496.5656565656566" type="curve" smooth="yes"/>
      <point x="306.42424242424244" y="1496.5656565656566"/>
      <point x="162.1818181818182" y="1351.4545454545455"/>
      <point x="162.1818181818182" y="1151.6464646464647" type="curve" smooth="yes"/>
      <point x="162.1818181818182" y="951.8383838383838"/>
      <point x="306.42424242424244" y="806.4444444444445"/>
    </contour>
    <contour>
      <point x="508.2323232323232" y="895.6868686868687" type="curve" smooth="yes"/>
      <point x="360.76262626262627" y="895.6868686868687"/>
      <point x="255.83333333333334" y="994.89898989899"/>
      <point x="255.83333333333334" y="1151.6464646464647" type="curve" smooth="yes"/>
      <point x="255.83333333333334" y="1308.6060606060605"/>
      <point x="361.04545454545456" y="1407.3232323232323"/>
      <point x="508.2323232323232" y="1407.3232323232323" type="curve" smooth="yes"/>
      <point x="655.4191919191919" y="1407.3232323232323"/>
      <point x="760.6313131313132" y="1308.6060606060605"/>
      <point x="760.6313131313132" y="1151.6464646464647" type="curve" smooth="yes"/>
      <point x="760.6313131313132" y="994.89898989899"/>
      <point x="655.7020202020202" y="895.6868686868687"/>
    </contour>
  </outline>
</glyph>
<glyph name="plusminus" format="2">
  <advance width="1095.0404040404042"/>
  <unicode hex="00B1"/>
  <outline>
    <contour>
      <point x="493.9343434343434" y="328.44444444444446" type="line"/>
      <point x="601.1060606060606" y="328.44444444444446" type="line"/>
      <point x="601.1060606060606" y="666.8484848484849" type="line"/>
      <point x="926.9343434343434" y="666.8484848484849" type="line"/>
      <point x="926.9343434343434" y="768.4646464646465" type="line"/>
      <point x="601.1060606060606" y="768.4646464646465" type="line"/>
      <point x="601.1060606060606" y="1106.8686868686868" type="line"/>
      <point x="493.9343434343434" y="1106.8686868686868" type="line"/>
      <point x="493.9343434343434" y="768.4646464646465" type="line"/>
      <point x="168.1060606060606" y="768.4646464646465" type="line"/>
      <point x="168.1060606060606" y="666.8484848484849" type="line"/>
      <point x="493.9343434343434" y="666.8484848484849" type="line"/>
    </contour>
    <contour>
      <point x="168.1060606060606" y="0.07070707070707077" type="line"/>
      <point x="926.9343434343434" y="0.07070707070707077" type="line"/>
      <point x="926.9343434343434" y="101.6868686868687" type="line"/>
      <point x="168.1060606060606" y="101.6868686868687" type="line"/>
    </contour>
  </outline>
</glyph>
<glyph name="twosuperior" format="2">
  <advance width="805.6313131313132"/>
  <unicode hex="00B2"/>
  <outline>
    <contour>
      <point x="91.74747474747474" y="-136.0" type="line"/>
      <point x="725.2575757575758" y="-136.0" type="line"/>
      <point x="725.2575757575758" y="-44.65656565656563" type="line"/>
      <point x="206.7727272727273" y="-44.65656565656563" type="line"/>
      <point x="212.29797979797982" y="-75.13636363636363" type="line"/>
      <point x="492.7676767676768" y="254.98484848484847" type="line" smooth="yes"/>
      <point x="619.8737373737374" y="404.33838383838383"/>
      <point x="668.0202020202021" y="495.69191919191917"/>
      <point x="668.4494949494949" y="607.5656565656566" type="curve" smooth="yes"/>
      <point x="668.8787878787879" y="792.8080808080808"/>
      <point x="549.070707070707" y="876.2828282828283"/>
      <point x="333.6666666666667" y="876.2828282828283" type="curve" smooth="yes"/>
      <point x="237.3989898989899" y="876.2828282828283"/>
      <point x="146.72727272727272" y="862.7121212121212"/>
      <point x="79.67676767676767" y="837.3535353535353" type="curve"/>
      <point x="79.67676767676767" y="744.7878787878788" type="line"/>
      <point x="152.33838383838383" y="771.4393939393939"/>
      <point x="234.44949494949495" y="786.0"/>
      <point x="324.3787878787879" y="786.0" type="curve" smooth="yes"/>
      <point x="483.42424242424244" y="786.0"/>
      <point x="562.9949494949494" y="728.5252525252525"/>
      <point x="562.9949494949494" y="597.8989898989898" type="curve" smooth="yes"/>
      <point x="562.9949494949494" y="511.8989898989899"/>
      <point x="519.6868686868687" y="431.27272727272725"/>
      <point x="408.4141414141414" y="300.04545454545456" type="curve" smooth="yes"/>
      <point x="91.74747474747474" y="-78.05555555555554" type="line"/>
    </contour>
  </outline>
</glyph>
<glyph name="threesuperior" format="2">
  <advance width="805.6313131313132"/>
  <unicode hex="00B3"/>
  <outline>
    <contour>
      <point x="335.0" y="-148.2828282828283" type="curve" smooth="yes"/>
      <point x="597.8838383838383" y="-148.2828282828283"/>
      <point x="723.7121212121212" y="-41.656565656565654"/>
      <point x="723.7121212121212" y="136.76262626262627" type="curve" smooth="yes"/>
      <point x="723.7121212121212" y="281.7070707070707"/>
      <point x="627.969696969697" y="372.020202020202"/>
      <point x="457.6060606060606" y="391.87373737373736" type="curve"/>
      <point x="457.6060606060606" y="375.07070707070704" type="line"/>
      <point x="596.7373737373738" y="404.22222222222223"/>
      <point x="688.6414141414142" y="491.5151515151515"/>
      <point x="688.6414141414142" y="621.9090909090909" type="curve" smooth="yes"/>
      <point x="688.6414141414142" y="782.5858585858585"/>
      <point x="569.1060606060606" y="876.2828282828283"/>
      <point x="350.2525252525253" y="876.2828282828283" type="curve" smooth="yes"/>
      <point x="262.4141414141414" y="876.2828282828283"/>
      <point x="169.32323232323233" y="863.5757575757576"/>
      <point x="98.89393939393939" y="839.929292929293" type="curve"/>
      <point x="98.89393939393939" y="750.8282828282828" type="line"/>
      <point x="178.47979797979798" y="779.2626262626262"/>
      <point x="262.94444444444446" y="790.6111111111111"/>
      <point x="341.8030303030303" y="790.6111111111111" type="curve" smooth="yes"/>
      <point x="502.1666666666667" y="790.6111111111111"/>
      <point x="586.60101010101" y="727.2676767676768"/>
      <point x="586.60101010101" y="614.8737373737374" type="curve" smooth="yes"/>
      <point x="586.60101010101" y="486.93939393939394"/>
      <point x="484.6161616161616" y="420.66161616161617"/>
      <point x="289.3838383838384" y="420.66161616161617" type="curve" smooth="yes"/>
      <point x="213.3838383838384" y="420.66161616161617" type="line"/>
      <point x="213.3838383838384" y="334.1363636363636" type="line"/>
      <point x="356.469696969697" y="334.1363636363636" type="line" smooth="yes"/>
      <point x="539.1515151515151" y="334.1363636363636"/>
      <point x="622.7323232323232" y="264.1363636363636"/>
      <point x="622.7323232323232" y="142.87878787878788" type="curve" smooth="yes"/>
      <point x="622.7323232323232" y="10.888888888888903"/>
      <point x="530.3636363636364" y="-62.39898989898988"/>
      <point x="333.1010101010101" y="-62.39898989898988" type="curve" smooth="yes"/>
      <point x="250.61111111111111" y="-62.39898989898988"/>
      <point x="157.21212121212122" y="-48.96969696969695"/>
      <point x="70.08080808080808" y="-19.601010101010083" type="curve"/>
      <point x="70.08080808080808" y="-108.70202020202021" type="line"/>
      <point x="151.62626262626262" y="-135.06565656565655"/>
      <point x="245.8939393939394" y="-148.2828282828283"/>
    </contour>
  </outline>
</glyph>
<glyph name="acute" format="2">
  <advance width="1114.141414141414"/>
  <unicode hex="00B4"/>
  <anchor x="557.070707070707" y="1200.0" name="_top"/>
  <anchor x="557.070707070707" y="1570.141414141414" name="top"/>
  <outline>
    <contour>
      <point x="498.6060606060606" y="1257.7777777777778" type="line"/>
      <point x="615.5353535353536" y="1257.7777777777778" type="line"/>
      <point x="874.8080808080808" y="1616.0" type="line"/>
      <point x="737.6666666666667" y="1616.0" type="line"/>
    </contour>
  </outline>
</glyph>
<glyph name="paragraph" format="2">
  <advance width="1277.4949494949494"/>
  <unicode hex="00B6"/>
  <outline>
    <contour>
      <point x="751.7171717171717" y="0.0" type="line"/>
      <point x="853.3030303030303" y="0.0" type="line"/>
      <point x="853.3030303030303" y="1480.0" type="line"/>
      <point x="766.1060606060606" y="1488.7777777777778"/>
      <point x="664.6161616161617" y="1494.8484848484848"/>
      <point x="559.6161616161617" y="1494.8484848484848" type="curve" smooth="yes"/>
      <point x="258.6969696969697" y="1494.8484848484848"/>
      <point x="97.9040404040404" y="1342.449494949495"/>
      <point x="97.9040404040404" y="999.4494949494949" type="curve" smooth="yes"/>
      <point x="97.9040404040404" y="676.9545454545455"/>
      <point x="245.39393939393938" y="499.8282828282828"/>
      <point x="585.9090909090909" y="499.8282828282828" type="curve" smooth="yes"/>
      <point x="647.2575757575758" y="499.8282828282828"/>
      <point x="697.0909090909091" y="503.0454545454545"/>
      <point x="751.7171717171717" y="510.34343434343435" type="curve"/>
    </contour>
    <contour>
      <point x="984.7171717171717" y="0.0" type="line"/>
      <point x="1086.3030303030303" y="0.0" type="line"/>
      <point x="1086.3030303030303" y="1480.0" type="line"/>
      <point x="984.7171717171717" y="1480.0" type="line"/>
    </contour>
  </outline>
</glyph>
<glyph name="periodcentered" format="2">
  <advance width="461.3838383838384"/>
  <unicode hex="00B7"/>
  <anchor x="230.6919191919192" y="560.0" name="_periodcentered"/>
  <outline>
    <contour>
      <point x="230.6919191919192" y="469.3434343434343" type="curve" smooth="yes"/>
      <point x="285.99494949494954" y="469.3434343434343"/>
      <point x="323.37878787878793" y="504.16161616161617"/>
      <point x="323.37878787878793" y="558.2828282828283" type="curve" smooth="yes"/>
      <point x="323.37878787878793" y="612.4040404040404"/>
      <point x="286.5606060606061" y="648.939393939394"/>
      <point x="230.6919191919192" y="648.939393939394" type="curve" smooth="yes"/>
      <point x="174.82323232323233" y="648.939393939394"/>
      <point x="138.0050505050505" y="612.969696969697"/>
      <point x="138.0050505050505" y="558.2828282828283" type="curve" smooth="yes"/>
      <point x="138.0050505050505" y="503.5959595959596"/>
      <point x="175.38888888888889" y="469.3434343434343"/>
    </contour>
  </outline>
</glyph>
<glyph name="ordmasculine" format="2">
  <advance width="997.1919191919192"/>
  <unicode hex="00BA"/>
  <outline>
    <contour>
      <point x="498.52525252525254" y="595.4343434343434" type="curve" smooth="yes"/>
      <point x="741.2777777777778" y="595.4343434343434"/>
      <point x="903.7979797979799" y="737.8686868686868"/>
      <point x="903.7979797979799" y="1046.3535353535353" type="curve" smooth="yes"/>
      <point x="903.7979797979799" y="1354.8383838383838"/>
      <point x="741.2777777777778" y="1493.4141414141413"/>
      <point x="498.52525252525254" y="1493.4141414141413" type="curve" smooth="yes"/>
      <point x="255.77272727272728" y="1493.4141414141413"/>
      <point x="93.39393939393939" y="1355.1919191919192"/>
      <point x="93.39393939393939" y="1046.3535353535353" type="curve" smooth="yes"/>
      <point x="93.39393939393939" y="737.5151515151515"/>
      <point x="255.77272727272728" y="595.4343434343434"/>
    </contour>
    <contour>
      <point x="498.52525252525254" y="692.2373737373738" type="curve" smooth="yes"/>
      <point x="323.72222222222223" y="692.2373737373738"/>
      <point x="209.61616161616166" y="788.3939393939394"/>
      <point x="209.61616161616166" y="1046.3535353535353" type="curve" smooth="yes"/>
      <point x="209.61616161616166" y="1304.3838383838383"/>
      <point x="323.72222222222223" y="1396.611111111111"/>
      <point x="498.52525252525254" y="1396.611111111111" type="curve" smooth="yes"/>
      <point x="673.7525252525252" y="1396.611111111111"/>
      <point x="787.5757575757575" y="1304.3838383838383"/>
      <point x="787.5757575757575" y="1046.3535353535353" type="curve" smooth="yes"/>
      <point x="787.5757575757575" y="788.3939393939394"/>
      <point x="673.7525252525252" y="692.2373737373738"/>
    </contour>
  </outline>
</glyph>
<glyph name="guillemetright" format="2">
  <advance width="1038.5707070707072"/>
  <unicode hex="00BB"/>
  <outline>
    <contour>
      <point x="87.38383838383838" y="138.58585858585857" type="line"/>
      <point x="217.8383838383839" y="138.58585858585857" type="line"/>
      <point x="505.4343434343434" y="561.4141414141415" type="line"/>
      <point x="217.8383838383839" y="984.2424242424242" type="line"/>
      <point x="87.38383838383838" y="984.2424242424242" type="line"/>
      <point x="374.979797979798" y="561.4141414141415" type="line"/>
    </contour>
    <contour>
      <point x="493.1363636363636" y="138.58585858585857" type="line"/>
      <point x="623.5909090909091" y="138.58585858585857" type="line"/>
      <point x="911.1868686868688" y="561.4141414141415" type="line"/>
      <point x="623.5909090909091" y="984.2424242424242" type="line"/>
      <point x="493.1363636363636" y="984.2424242424242" type="line"/>
      <point x="780.7323232323232" y="561.4141414141415" type="line"/>
    </contour>
  </outline>
</glyph>
<glyph name="onequarter" format="2">
  <advance width="1886.429292929293"/>
  <unicode hex="00BC"/>
  <outline>
    <contour>
      <point x="394.66161616161617" y="638.1212121212121" type="line"/>
      <point x="499.31818181818187" y="638.1212121212121" type="line"/>
      <point x="499.31818181818187" y="1620.0" type="line"/>
      <point x="429.9494949494949" y="1620.0" type="line"/>
      <point x="141.87878787878788" y="1415.1363636363637" type="line"/>
      <point x="141.87878787878788" y="1311.0959595959596" type="line"/>
      <point x="429.9494949494949" y="1515.9595959595958" type="line"/>
      <point x="394.66161616161617" y="1543.0959595959596" type="line"/>
    </contour>
    <contour>
      <point x="143.53030303030303" y="616.0" type="line"/>
      <point x="737.5202020202021" y="616.0" type="line"/>
      <point x="737.5202020202021" y="707.3434343434344" type="line"/>
      <point x="143.53030303030303" y="707.3434343434344" type="line"/>
    </contour>
    <contour>
      <point x="476.06060606060606" y="-136.0" type="line"/>
      <point x="584.4141414141415" y="-136.0" type="line"/>
      <point x="1410.3686868686868" y="1616.0" type="line"/>
      <point x="1302.0151515151515" y="1616.0" type="line"/>
    </contour>
    <contour>
      <point x="1111.6717171717173" y="104.05050505050504" type="line"/>
      <point x="1861.6363636363637" y="104.05050505050504" type="line"/>
      <point x="1861.6363636363637" y="191.90909090909093" type="line"/>
      <point x="1200.1767676767677" y="191.90909090909093" type="line"/>
      <point x="1215.3080808080808" y="162.7020202020202" type="line"/>
      <point x="1607.2070707070707" y="864.0" type="line"/>
      <point x="1503.8535353535353" y="864.0" type="line"/>
      <point x="1111.6717171717173" y="163.989898989899" type="line"/>
    </contour>
    <contour>
      <point x="1617.1515151515152" y="-136.0" type="line"/>
      <point x="1713.5151515151515" y="-136.0" type="line"/>
      <point x="1713.5151515151515" y="526.0" type="line"/>
      <point x="1635.1616161616162" y="526.0" type="line"/>
      <point x="1617.1515151515152" y="191.90909090909093" type="line"/>
    </contour>
  </outline>
</glyph>
<glyph name="onehalf" format="2">
  <advance width="1886.429292929293"/>
  <unicode hex="00BD"/>
  <outline>
    <contour>
      <point x="394.66161616161617" y="638.1212121212121" type="line"/>
      <point x="499.31818181818187" y="638.1212121212121" type="line"/>
      <point x="499.31818181818187" y="1620.0" type="line"/>
      <point x="429.9494949494949" y="1620.0" type="line"/>
      <point x="141.87878787878788" y="1415.1363636363637" type="line"/>
      <point x="141.87878787878788" y="1311.0959595959596" type="line"/>
      <point x="429.9494949494949" y="1515.9595959595958" type="line"/>
      <point x="394.66161616161617" y="1543.0959595959596" type="line"/>
    </contour>
    <contour>
      <point x="143.53030303030303" y="616.0" type="line"/>
      <point x="737.5202020202021" y="616.0" type="line"/>
      <point x="737.5202020202021" y="707.3434343434344" type="line"/>
      <point x="143.53030303030303" y="707.3434343434344" type="line"/>
    </contour>
    <contour>
      <point x="476.06060606060606" y="-136.0" type="line"/>
      <point x="584.4141414141415" y="-136.0" type="line"/>
      <point x="1410.3686868686868" y="1616.0" type="line"/>
      <point x="1302.0151515151515" y="1616.0" type="line"/>
    </contour>
    <contour>
      <point x="1172.5454545454545" y="-136.0" type="line"/>
      <point x="1806.0555555555557" y="-136.0" type="line"/>
      <point x="1806.0555555555557" y="-44.65656565656563" type="line"/>
      <point x="1287.5707070707072" y="-44.65656565656563" type="line"/>
      <point x="1293.0959595959598" y="-75.13636363636363" type="line"/>
      <point x="1573.5656565656566" y="254.98484848484847" type="line" smooth="yes"/>
      <point x="1700.6717171717173" y="404.33838383838383"/>
      <point x="1748.818181818182" y="495.69191919191917"/>
      <point x="1749.2474747474748" y="607.5656565656566" type="curve" smooth="yes"/>
      <point x="1749.6767676767677" y="792.8080808080808"/>
      <point x="1629.8686868686868" y="876.2828282828283"/>
      <point x="1414.4646464646466" y="876.2828282828283" type="curve" smooth="yes"/>
      <point x="1318.1969696969697" y="876.2828282828283"/>
      <point x="1227.5252525252527" y="862.7121212121212"/>
      <point x="1160.4747474747476" y="837.3535353535353" type="curve"/>
      <point x="1160.4747474747476" y="744.7878787878788" type="line"/>
      <point x="1233.1363636363637" y="771.4393939393939"/>
      <point x="1315.2474747474748" y="786.0"/>
      <point x="1405.1767676767677" y="786.0" type="curve" smooth="yes"/>
      <point x="1564.2222222222222" y="786.0"/>
      <point x="1643.7929292929293" y="728.5252525252525"/>
      <point x="1643.7929292929293" y="597.8989898989898" type="curve" smooth="yes"/>
      <point x="1643.7929292929293" y="511.8989898989899"/>
      <point x="1600.4848484848485" y="431.27272727272725"/>
      <point x="1489.2121212121212" y="300.04545454545456" type="curve" smooth="yes"/>
      <point x="1172.5454545454545" y="-78.05555555555554" type="line"/>
    </contour>
  </outline>
</glyph>
<glyph name="threequarters" format="2">
  <advance width="1886.429292929293"/>
  <unicode hex="00BE"/>
  <outline>
    <contour>
      <point x="335.0" y="603.7171717171717" type="curve" smooth="yes"/>
      <point x="597.8838383838383" y="603.7171717171717"/>
      <point x="723.7121212121212" y="710.3434343434343"/>
      <point x="723.7121212121212" y="888.7626262626262" type="curve" smooth="yes"/>
      <point x="723.7121212121212" y="1033.7070707070707"/>
      <point x="627.969696969697" y="1124.020202020202"/>
      <point x="457.6060606060606" y="1143.8737373737374" type="curve"/>
      <point x="457.6060606060606" y="1127.0707070707072" type="line"/>
      <point x="596.7373737373738" y="1156.2222222222222"/>
      <point x="688.6414141414142" y="1243.5151515151515"/>
      <point x="688.6414141414142" y="1373.909090909091" type="curve" smooth="yes"/>
      <point x="688.6414141414142" y="1534.5858585858587"/>
      <point x="569.1060606060606" y="1628.2828282828282"/>
      <point x="350.2525252525253" y="1628.2828282828282" type="curve" smooth="yes"/>
      <point x="262.4141414141414" y="1628.2828282828282"/>
      <point x="169.32323232323233" y="1615.5757575757575"/>
      <point x="98.89393939393939" y="1591.9292929292928" type="curve"/>
      <point x="98.89393939393939" y="1502.828282828283" type="line"/>
      <point x="178.47979797979798" y="1531.2626262626263"/>
      <point x="262.94444444444446" y="1542.611111111111"/>
      <point x="341.8030303030303" y="1542.611111111111" type="curve" smooth="yes"/>
      <point x="502.1666666666667" y="1542.611111111111"/>
      <point x="586.60101010101" y="1479.2676767676767"/>
      <point x="586.60101010101" y="1366.8737373737374" type="curve" smooth="yes"/>
      <point x="586.60101010101" y="1238.939393939394"/>
      <point x="484.6161616161616" y="1172.6616161616162"/>
      <point x="289.3838383838384" y="1172.6616161616162" type="curve" smooth="yes"/>
      <point x="213.3838383838384" y="1172.6616161616162" type="line"/>
      <point x="213.3838383838384" y="1086.1363636363635" type="line"/>
      <point x="356.469696969697" y="1086.1363636363635" type="line" smooth="yes"/>
      <point x="539.1515151515151" y="1086.1363636363635"/>
      <point x="622.7323232323232" y="1016.1363636363636"/>
      <point x="622.7323232323232" y="894.8787878787879" type="curve" smooth="yes"/>
      <point x="622.7323232323232" y="762.8888888888889"/>
      <point x="530.3636363636364" y="689.6010101010102"/>
      <point x="333.1010101010101" y="689.6010101010102" type="curve" smooth="yes"/>
      <point x="250.61111111111111" y="689.6010101010102"/>
      <point x="157.21212121212122" y="703.030303030303"/>
      <point x="70.08080808080808" y="732.39898989899" type="curve"/>
      <point x="70.08080808080808" y="643.2979797979798" type="line"/>
      <point x="151.62626262626262" y="616.9343434343434"/>
      <point x="245.8939393939394" y="603.7171717171717"/>
    </contour>
    <contour>
      <point x="476.06060606060606" y="-136.0" type="line"/>
      <point x="584.4141414141415" y="-136.0" type="line"/>
      <point x="1410.3686868686868" y="1616.0" type="line"/>
      <point x="1302.0151515151515" y="1616.0" type="line"/>
    </contour>
    <contour>
      <point x="1111.6717171717173" y="104.05050505050504" type="line"/>
      <point x="1861.6363636363637" y="104.05050505050504" type="line"/>
      <point x="1861.6363636363637" y="191.90909090909093" type="line"/>
      <point x="1200.1767676767677" y="191.90909090909093" type="line"/>
      <point x="1215.3080808080808" y="162.7020202020202" type="line"/>
      <point x="1607.2070707070707" y="864.0" type="line"/>
      <point x="1503.8535353535353" y="864.0" type="line"/>
      <point x="1111.6717171717173" y="163.989898989899" type="line"/>
    </contour>
    <contour>
      <point x="1617.1515151515152" y="-136.0" type="line"/>
      <point x="1713.5151515151515" y="-136.0" type="line"/>
      <point x="1713.5151515151515" y="526.0" type="line"/>
      <point x="1635.1616161616162" y="526.0" type="line"/>
      <point x="1617.1515151515152" y="191.90909090909093" type="line"/>
    </contour>
  </outline>
</glyph>
<glyph name="questiondown" format="2">
  <advance width="930.540404040404"/>
  <unicode hex="00BF"/>
  <outline>
    <contour>
      <point x="545.5202020202021" y="750.020202020202" type="line"/>
      <point x="466.479797979798" y="750.020202020202" type="line"/>
      <point x="453.8636363636364" y="404.30808080808083" type="line"/>
      <point x="167.14141414141415" y="299.44444444444446"/>
      <point x="64.0909090909091" y="173.16666666666669"/>
      <point x="64.0909090909091" y="-35.530303030303024" type="curve" smooth="yes"/>
      <point x="64.0909090909091" y="-262.0959595959596"/>
      <point x="230.96464646464648" y="-400.0"/>
      <point x="532.9090909090909" y="-400.0" type="curve" smooth="yes"/>
      <point x="656.8131313131313" y="-400.0"/>
      <point x="782.3787878787879" y="-380.6515151515151"/>
      <point x="886.2373737373738" y="-345.5050505050505" type="curve"/>
      <point x="886.2373737373738" y="-239.25252525252523" type="line"/>
      <point x="771.6515151515151" y="-278.25757575757575"/>
      <point x="655.4747474747475" y="-295.60606060606057"/>
      <point x="541.2676767676768" y="-295.60606060606057" type="curve" smooth="yes"/>
      <point x="309.09595959595964" y="-295.60606060606057"/>
      <point x="185.3535353535354" y="-196.65656565656565"/>
      <point x="185.3535353535354" y="-29.863636363636353" type="curve" smooth="yes"/>
      <point x="185.3535353535354" y="140.44444444444446"/>
      <point x="277.9646464646465" y="244.22727272727272"/>
      <point x="566.6414141414142" y="334.8282828282828" type="curve"/>
    </contour>
    <contour>
      <point x="505.8939393939394" y="1094.2424242424242" type="curve" smooth="yes"/>
      <point x="448.87373737373736" y="1094.2424242424242"/>
      <point x="413.20707070707067" y="1058.5555555555557"/>
      <point x="413.20707070707067" y="1007.6363636363636" type="curve" smooth="yes"/>
      <point x="413.20707070707067" y="955.0"/>
      <point x="450.02525252525254" y="919.3131313131313"/>
      <point x="505.8939393939394" y="919.3131313131313" type="curve" smooth="yes"/>
      <point x="561.7626262626263" y="919.3131313131313"/>
      <point x="598.5808080808081" y="954.4343434343434"/>
      <point x="598.5808080808081" y="1007.6363636363636" type="curve" smooth="yes"/>
      <point x="598.5808080808081" y="1059.121212121212"/>
      <point x="561.1969696969697" y="1094.2424242424242"/>
    </contour>
  </outline>
</glyph>
<glyph name="Acircumflex" format="2">
  <advance width="1403.7373737373737"/>
  <unicode hex="00C2"/>
  <anchor x="702.5151515151515" y="1520.0" name="_top"/>
  <anchor x="702.7272727272727" y="0.0" name="bottom"/>
  <anchor x="1365.8333333333335" y="0.0" name="ogonek"/>
  <anchor x="702.5151515151515" y="1520.0" name="top"/>
  <outline>
    <contour>
      <point x="37.9040404040404" y="0.0" type="line"/>
      <point x="163.23232323232327" y="0.0" type="line"/>
      <point x="713.7171717171717" y="1418.7171717171716" type="line"/>
      <point x="687.5959595959596" y="1418.7171717171716" type="line"/>
      <point x="1238.2222222222222" y="0.0" type="line"/>
      <point x="1365.8333333333335" y="0.0" type="line"/>
      <point x="785.6666666666667" y="1480.0" type="line"/>
      <point x="618.070707070707" y="1480.0" type="line"/>
    </contour>
    <contour>
      <point x="321.8787878787879" y="500.9191919191919" type="line"/>
      <point x="1081.3636363636365" y="500.9191919191919" type="line"/>
      <point x="1050.1919191919192" y="606.3737373737374" type="line"/>
      <point x="353.26262626262627" y="606.3737373737374" type="line"/>
    </contour>
    <contour>
      <point x="376.8484848484849" y="1611.7575757575758" type="line"/>
      <point x="498.7727272727273" y="1611.7575757575758" type="line"/>
      <point x="720.6313131313132" y="1848.8939393939395" type="line"/>
      <point x="684.39898989899" y="1848.8939393939395" type="line"/>
      <point x="906.2575757575758" y="1611.7575757575758" type="line"/>
      <point x="1028.1818181818182" y="1611.7575757575758" type="line"/>
      <point x="761.2323232323232" y="1889.979797979798" type="line"/>
      <point x="643.7979797979798" y="1889.979797979798" type="line"/>
    </contour>
  </outline>
</glyph>
<glyph name="Atilde" format="2">
  <advance width="1403.7373737373737"/>
  <unicode hex="00C3"/>
  <anchor x="702.5151515151515" y="1520.0" name="_top"/>
  <anchor x="702.7272727272727" y="0.0" name="bottom"/>
  <anchor x="1365.8333333333335" y="0.0" name="ogonek"/>
  <anchor x="702.5151515151515" y="1520.0" name="top"/>
  <outline>
    <contour>
      <point x="37.9040404040404" y="0.0" type="line"/>
      <point x="163.23232323232327" y="0.0" type="line"/>
      <point x="713.7171717171717" y="1418.7171717171716" type="line"/>
      <point x="687.5959595959596" y="1418.7171717171716" type="line"/>
      <point x="1238.2222222222222" y="0.0" type="line"/>
      <point x="1365.8333333333335" y="0.0" type="line"/>
      <point x="785.6666666666667" y="1480.0" type="line"/>
      <point x="618.070707070707" y="1480.0" type="line"/>
    </contour>
    <contour>
      <point x="321.8787878787879" y="500.9191919191919" type="line"/>
      <point x="1081.3636363636365" y="500.9191919191919" type="line"/>
      <point x="1050.1919191919192" y="606.3737373737374" type="line"/>
      <point x="353.26262626262627" y="606.3737373737374" type="line"/>
    </contour>
    <contour>
      <point x="860.030303030303" y="1681.7323232323233" type="curve" smooth="yes"/>
      <point x="938.7020202020202" y="1681.7323232323233"/>
      <point x="994.3939393939394" y="1702.8737373737374"/>
      <point x="1035.5" y="1744.2121212121212" type="curve"/>
      <point x="1035.5" y="1835.0454545454545" type="line"/>
      <point x="986.1818181818182" y="1787.3989898989898"/>
      <point x="935.3434343434344" y="1765.0404040404042"/>
      <point x="861.4444444444445" y="1765.0404040404042" type="curve" smooth="yes"/>
      <point x="758.8585858585859" y="1765.0404040404042"/>
      <point x="668.1616161616162" y="1840.1818181818182"/>
      <point x="545.0" y="1840.1818181818182" type="curve" smooth="yes"/>
      <point x="466.32828282828285" y="1840.1818181818182"/>
      <point x="410.6363636363636" y="1818.7575757575758"/>
      <point x="369.530303030303" y="1777.419191919192" type="curve"/>
      <point x="369.530303030303" y="1686.5858585858587" type="line"/>
      <point x="418.8484848484849" y="1734.2323232323233"/>
      <point x="469.6868686868687" y="1756.590909090909"/>
      <point x="543.5858585858587" y="1756.590909090909" type="curve" smooth="yes"/>
      <point x="646.1717171717172" y="1756.590909090909"/>
      <point x="736.8686868686868" y="1681.7323232323233"/>
    </contour>
  </outline>
</glyph>
<glyph name="Adieresis" format="2">
  <advance width="1403.7373737373737"/>
  <unicode hex="00C4"/>
  <anchor x="702.5151515151515" y="1520.0" name="_top"/>
  <anchor x="702.7272727272727" y="0.0" name="bottom"/>
  <anchor x="1365.8333333333335" y="0.0" name="ogonek"/>
  <anchor x="702.5151515151515" y="1520.0" name="top"/>
  <outline>
    <contour>
      <point x="37.9040404040404" y="0.0" type="line"/>
      <point x="163.23232323232327" y="0.0" type="line"/>
      <point x="713.7171717171717" y="1418.7171717171716" type="line"/>
      <point x="687.5959595959596" y="1418.7171717171716" type="line"/>
      <point x="1238.2222222222222" y="0.0" type="line"/>
      <point x="1365.8333333333335" y="0.0" type="line"/>
      <point x="785.6666666666667" y="1480.0" type="line"/>
      <point x="618.070707070707" y="1480.0" type="line"/>
    </contour>
    <contour>
      <point x="321.8787878787879" y="500.9191919191919" type="line"/>
      <point x="1081.3636363636365" y="500.9191919191919" type="line"/>
      <point x="1050.1919191919192" y="606.3737373737374" type="line"/>
      <point x="353.26262626262627" y="606.3737373737374" type="line"/>
    </contour>
    <contour>
      <point x="948.8080808080808" y="1673.030303030303" type="curve" smooth="yes"/>
      <point x="1001.3535353535353" y="1673.030303030303"/>
      <point x="1033.5757575757575" y="1703.111111111111"/>
      <point x="1033.5757575757575" y="1751.7171717171718" type="curve" smooth="yes"/>
      <point x="1033.5757575757575" y="1800.3232323232323"/>
      <point x="1001.3535353535353" y="1832.1212121212122"/>
      <point x="948.8080808080808" y="1832.1212121212122" type="curve" smooth="yes"/>
      <point x="896.2626262626263" y="1832.1212121212122"/>
      <point x="864.040404040404" y="1800.3232323232323"/>
      <point x="864.040404040404" y="1751.7171717171718" type="curve" smooth="yes"/>
      <point x="864.040404040404" y="1703.111111111111"/>
      <point x="896.2626262626263" y="1673.030303030303"/>
    </contour>
    <contour>
      <point x="456.22222222222223" y="1673.030303030303" type="curve" smooth="yes"/>
      <point x="508.7676767676768" y="1673.030303030303"/>
      <point x="540.9898989898991" y="1703.111111111111"/>
      <point x="540.9898989898991" y="1751.7171717171718" type="curve" smooth="yes"/>
      <point x="540.9898989898991" y="1800.3232323232323"/>
      <point x="508.7676767676768" y="1832.1212121212122"/>
      <point x="456.22222222222223" y="1832.1212121212122" type="curve" smooth="yes"/>
      <point x="403.67676767676767" y="1832.1212121212122"/>
      <point x="371.45454545454544" y="1800.3232323232323"/>
      <point x="371.45454545454544" y="1751.7171717171718" type="curve" smooth="yes"/>
      <point x="371.45454545454544" y="1703.111111111111"/>
      <point x="403.67676767676767" y="1673.030303030303"/>
    </contour>
  </outline>
</glyph>
<glyph name="AE" format="2">
  <advance width="1914.29797979798"/>
  <unicode hex="00C6"/>
  <anchor x="1023.8333333333334" y="0.0" name="bottom"/>
  <anchor x="933.2525252525253" y="1520.0" name="top"/>
  <outline>
    <contour>
      <point x="37.9040404040404" y="0.0" type="line"/>
      <point x="163.44444444444449" y="0.0" type="line"/>
      <point x="706.8535353535353" y="1374.4040404040404" type="line"/>
      <point x="922.8434343434344" y="1374.4040404040404" type="line"/>
      <point x="925.4191919191919" y="1480.0" type="line"/>
      <point x="627.0858585858585" y="1480.0" type="line"/>
    </contour>
    <contour>
      <point x="328.74747474747477" y="500.8484848484848" type="line"/>
      <point x="990.3282828282829" y="500.8484848484848" type="line"/>
      <point x="990.3282828282829" y="606.4444444444445" type="line"/>
      <point x="360.13131313131316" y="606.4444444444445" type="line"/>
    </contour>
    <contour>
      <point x="980.939393939394" y="0.0" type="line"/>
      <point x="1826.2828282828282" y="0.0" type="line"/>
      <point x="1826.2828282828282" y="105.59595959595961" type="line"/>
      <point x="1096.1363636363637" y="105.59595959595961" type="line"/>
      <point x="997.8131313131314" y="1374.4040404040404" type="line"/>
      <point x="1816.2828282828282" y="1374.4040404040404" type="line"/>
      <point x="1816.2828282828282" y="1480.0" type="line"/>
      <point x="869.959595959596" y="1480.0" type="line"/>
    </contour>
    <contour>
      <point x="997.0858585858587" y="707.3535353535353" type="line"/>
      <point x="1717.6515151515152" y="707.3535353535353" type="line"/>
      <point x="1717.6515151515152" y="812.9494949494949" type="line"/>
      <point x="997.0858585858587" y="812.9494949494949" type="line"/>
    </contour>
  </outline>
</glyph>
<glyph name="Egrave" format="2">
  <advance width="1228.6313131313132"/>
  <unicode hex="00C8"/>
  <anchor x="682.4747474747475" y="1520.0" name="_top"/>
  <anchor x="685.0505050505051" y="0.0" name="bottom"/>
  <anchor x="1058.4949494949494" y="0.0" name="ogonek"/>
  <anchor x="682.4747474747475" y="1520.0" name="top"/>
  <anchor x="42.86363636363636" y="1480.0" name="topleft"/>
  <outline>
    <contour>
      <point x="191.19191919191917" y="0.0" type="line"/>
      <point x="1140.6161616161617" y="0.0" type="line"/>
      <point x="1140.6161616161617" y="105.59595959595961" type="line"/>
      <point x="313.0707070707071" y="105.59595959595961" type="line"/>
      <point x="313.0707070707071" y="1374.4040404040404" type="line"/>
      <point x="1130.6161616161617" y="1374.4040404040404" type="line"/>
      <point x="1130.6161616161617" y="1480.0" type="line"/>
      <point x="191.19191919191917" y="1480.0" type="line"/>
    </contour>
    <contour>
      <point x="263.83838383838383" y="707.3535353535353" type="line"/>
      <point x="1031.9848484848485" y="707.3535353535353" type="line"/>
      <point x="1031.9848484848485" y="812.9494949494949" type="line"/>
      <point x="263.83838383838383" y="812.9494949494949" type="line"/>
    </contour>
    <contour>
      <point x="624.929292929293" y="1611.7575757575758" type="line"/>
      <point x="740.0202020202021" y="1611.7575757575758" type="line"/>
      <point x="542.2272727272727" y="1889.979797979798" type="line"/>
      <point x="405.4949494949495" y="1889.979797979798" type="line"/>
    </contour>
  </outline>
</glyph>
<glyph name="Edieresis" format="2">
  <advance width="1228.6313131313132"/>
  <unicode hex="00CB"/>
  <anchor x="682.4747474747475" y="1520.0" name="_top"/>
  <anchor x="685.0505050505051" y="0.0" name="bottom"/>
  <anchor x="1058.4949494949494" y="0.0" name="ogonek"/>
  <anchor x="682.4747474747475" y="1520.0" name="top"/>
  <anchor x="42.86363636363636" y="1480.0" name="topleft"/>
  <outline>
    <contour>
      <point x="191.19191919191917" y="0.0" type="line"/>
      <point x="1140.6161616161617" y="0.0" type="line"/>
      <point x="1140.6161616161617" y="105.59595959595961" type="line"/>
      <point x="313.0707070707071" y="105.59595959595961" type="line"/>
      <point x="313.0707070707071" y="1374.4040404040404" type="line"/>
      <point x="1130.6161616161617" y="1374.4040404040404" type="line"/>
      <point x="1130.6161616161617" y="1480.0" type="line"/>
      <point x="191.19191919191917" y="1480.0" type="line"/>
    </contour>
    <contour>
      <point x="263.83838383838383" y="707.3535353535353" type="line"/>
      <point x="1031.9848484848485" y="707.3535353535353" type="line"/>
      <point x="1031.9848484848485" y="812.9494949494949" type="line"/>
      <point x="263.83838383838383" y="812.9494949494949" type="line"/>
    </contour>
    <contour>
      <point x="928.7676767676768" y="1673.030303030303" type="curve" smooth="yes"/>
      <point x="981.3131313131314" y="1673.030303030303"/>
      <point x="1013.5353535353536" y="1703.111111111111"/>
      <point x="1013.5353535353536" y="1751.7171717171718" type="curve" smooth="yes"/>
      <point x="1013.5353535353536" y="1800.3232323232323"/>
      <point x="981.3131313131314" y="1832.1212121212122"/>
      <point x="928.7676767676768" y="1832.1212121212122" type="curve" smooth="yes"/>
      <point x="876.2222222222222" y="1832.1212121212122"/>
      <point x="844.0" y="1800.3232323232323"/>
      <point x="844.0" y="1751.7171717171718" type="curve" smooth="yes"/>
      <point x="844.0" y="1703.111111111111"/>
      <point x="876.2222222222222" y="1673.030303030303"/>
    </contour>
    <contour>
      <point x="436.1818181818182" y="1673.030303030303" type="curve" smooth="yes"/>
      <point x="488.72727272727275" y="1673.030303030303"/>
      <point x="520.9494949494949" y="1703.111111111111"/>
      <point x="520.9494949494949" y="1751.7171717171718" type="curve" smooth="yes"/>
      <point x="520.9494949494949" y="1800.3232323232323"/>
      <point x="488.72727272727275" y="1832.1212121212122"/>
      <point x="436.1818181818182" y="1832.1212121212122" type="curve" smooth="yes"/>
      <point x="383.6363636363636" y="1832.1212121212122"/>
      <point x="351.4141414141414" y="1800.3232323232323"/>
      <point x="351.4141414141414" y="1751.7171717171718" type="curve" smooth="yes"/>
      <point x="351.4141414141414" y="1703.111111111111"/>
      <point x="383.6363636363636" y="1673.030303030303"/>
    </contour>
  </outline>
</glyph>
<glyph name="Igrave" format="2">
  <advance width="505.11111111111114"/>
  <unicode hex="00CC"/>
  <anchor x="252.55555555555557" y="1520.0" name="_top"/>
  <anchor x="252.34343434343435" y="0.0" name="bottom"/>
  <anchor x="313.919191919192" y="0.0" name="ogonek"/>
  <anchor x="252.55555555555557" y="1520.0" name="top"/>
  <outline>
    <contour>
      <point x="191.19191919191917" y="0.0" type="line"/>
      <point x="313.919191919192" y="0.0" type="line"/>
      <point x="313.919191919192" y="1480.0" type="line"/>
      <point x="191.19191919191917" y="1480.0" type="line"/>
    </contour>
    <contour>
      <point x="195.010101010101" y="1611.7575757575758" type="line"/>
      <point x="310.1010101010101" y="1611.7575757575758" type="line"/>
      <point x="112.30808080808083" y="1889.979797979798" type="line"/>
      <point x="-24.424242424242436" y="1889.979797979798" type="line"/>
    </contour>
  </outline>
</glyph>
<glyph name="Iacute" format="2">
  <advance width="505.11111111111114"/>
  <unicode hex="00CD"/>
  <anchor x="252.55555555555557" y="1520.0" name="_top"/>
  <anchor x="252.34343434343435" y="0.0" name="bottom"/>
  <anchor x="313.919191919192" y="0.0" name="ogonek"/>
  <anchor x="252.55555555555557" y="1520.0" name="top"/>
  <outline>
    <contour>
      <point x="191.19191919191917" y="0.0" type="line"/>
      <point x="313.919191919192" y="0.0" type="line"/>
      <point x="313.919191919192" y="1480.0" type="line"/>
      <point x="191.19191919191917" y="1480.0" type="line"/>
    </contour>
    <contour>
      <point x="194.58585858585857" y="1611.7575757575758" type="line"/>
      <point x="309.67676767676767" y="1611.7575757575758" type="line"/>
      <point x="529.1111111111111" y="1889.979797979798" type="line"/>
      <point x="392.3787878787879" y="1889.979797979798" type="line"/>
    </contour>
  </outline>
</glyph>
<glyph name="Icircumflex" format="2">
  <advance width="505.11111111111114"/>
  <unicode hex="00CE"/>
  <anchor x="252.55555555555557" y="1520.0" name="_top"/>
  <anchor x="252.34343434343435" y="0.0" name="bottom"/>
  <anchor x="313.919191919192" y="0.0" name="ogonek"/>
  <anchor x="252.55555555555557" y="1520.0" name="top"/>
  <outline>
    <contour>
      <point x="191.19191919191917" y="0.0" type="line"/>
      <point x="313.919191919192" y="0.0" type="line"/>
      <point x="313.919191919192" y="1480.0" type="line"/>
      <point x="191.19191919191917" y="1480.0" type="line"/>
    </contour>
    <contour>
      <point x="-73.11111111111111" y="1611.7575757575758" type="line"/>
      <point x="48.813131313131336" y="1611.7575757575758" type="line"/>
      <point x="270.6717171717172" y="1848.8939393939395" type="line"/>
      <point x="234.43939393939394" y="1848.8939393939395" type="line"/>
      <point x="456.2979797979798" y="1611.7575757575758" type="line"/>
      <point x="578.2222222222223" y="1611.7575757575758" type="line"/>
      <point x="311.2727272727273" y="1889.979797979798" type="line"/>
      <point x="193.83838383838383" y="1889.979797979798" type="line"/>
    </contour>
  </outline>
</glyph>
<glyph name="Idieresis" format="2">
  <advance width="505.11111111111114"/>
  <unicode hex="00CF"/>
  <anchor x="252.55555555555557" y="1520.0" name="_top"/>
  <anchor x="252.34343434343435" y="0.0" name="bottom"/>
  <anchor x="313.919191919192" y="0.0" name="ogonek"/>
  <anchor x="252.55555555555557" y="1520.0" name="top"/>
  <outline>
    <contour>
      <point x="191.19191919191917" y="0.0" type="line"/>
      <point x="313.919191919192" y="0.0" type="line"/>
      <point x="313.919191919192" y="1480.0" type="line"/>
      <point x="191.19191919191917" y="1480.0" type="line"/>
    </contour>
    <contour>
      <point x="498.8484848484849" y="1673.030303030303" type="curve" smooth="yes"/>
      <point x="551.3939393939394" y="1673.030303030303"/>
      <point x="583.6161616161617" y="1703.111111111111"/>
      <point x="583.6161616161617" y="1751.7171717171718" type="curve" smooth="yes"/>
      <point x="583.6161616161617" y="1800.3232323232323"/>
      <point x="551.3939393939394" y="1832.1212121212122"/>
      <point x="498.8484848484849" y="1832.1212121212122" type="curve" smooth="yes"/>
      <point x="446.3030303030303" y="1832.1212121212122"/>
      <point x="414.0808080808081" y="1800.3232323232323"/>
      <point x="414.0808080808081" y="1751.7171717171718" type="curve" smooth="yes"/>
      <point x="414.0808080808081" y="1703.111111111111"/>
      <point x="446.3030303030303" y="1673.030303030303"/>
    </contour>
    <contour>
      <point x="6.2626262626262665" y="1673.030303030303" type="curve" smooth="yes"/>
      <point x="58.808080808080824" y="1673.030303030303"/>
      <point x="91.03030303030306" y="1703.111111111111"/>
      <point x="91.03030303030306" y="1751.7171717171718" type="curve" smooth="yes"/>
      <point x="91.03030303030306" y="1800.3232323232323"/>
      <point x="58.808080808080824" y="1832.1212121212122"/>
      <point x="6.2626262626262665" y="1832.1212121212122" type="curve" smooth="yes"/>
      <point x="-46.28282828282829" y="1832.1212121212122"/>
      <point x="-78.50505050505052" y="1800.3232323232323"/>
      <point x="-78.50505050505052" y="1751.7171717171718" type="curve" smooth="yes"/>
      <point x="-78.50505050505052" y="1703.111111111111"/>
      <point x="-46.28282828282829" y="1673.030303030303"/>
    </contour>
  </outline>
</glyph>
<glyph name="Ntilde" format="2">
  <advance width="1542.1666666666667"/>
  <unicode hex="00D1"/>
  <anchor x="771.7272727272727" y="1520.0" name="_top"/>
  <anchor x="771.7272727272727" y="0.0" name="bottom"/>
  <anchor x="771.7272727272727" y="1520.0" name="top"/>
  <outline>
    <contour>
      <point x="191.19191919191917" y="0.0" type="line"/>
      <point x="308.31313131313135" y="0.0" type="line"/>
      <point x="308.31313131313135" y="1351.1313131313132" type="line"/>
      <point x="272.22727272727275" y="1351.1313131313132" type="line"/>
      <point x="1222.7373737373737" y="0.0" type="line"/>
      <point x="1350.9747474747476" y="0.0" type="line"/>
      <point x="1350.9747474747476" y="1480.0" type="line"/>
      <point x="1233.8535353535353" y="1480.0" type="line"/>
      <point x="1233.8535353535353" y="128.86868686868692" type="line"/>
      <point x="1269.939393939394" y="128.86868686868692" type="line"/>
      <point x="319.42929292929296" y="1480.0" type="line"/>
      <point x="191.19191919191917" y="1480.0" type="line"/>
    </contour>
    <contour>
      <point x="929.2424242424242" y="1681.7323232323233" type="curve" smooth="yes"/>
      <point x="1007.9141414141415" y="1681.7323232323233"/>
      <point x="1063.6060606060605" y="1702.8737373737374"/>
      <point x="1104.7121212121212" y="1744.2121212121212" type="curve"/>
      <point x="1104.7121212121212" y="1835.0454545454545" type="line"/>
      <point x="1055.3939393939395" y="1787.3989898989898"/>
      <point x="1004.5555555555555" y="1765.0404040404042"/>
      <point x="930.6565656565657" y="1765.0404040404042" type="curve" smooth="yes"/>
      <point x="828.070707070707" y="1765.0404040404042"/>
      <point x="737.3737373737374" y="1840.1818181818182"/>
      <point x="614.2121212121212" y="1840.1818181818182" type="curve" smooth="yes"/>
      <point x="535.540404040404" y="1840.1818181818182"/>
      <point x="479.8484848484849" y="1818.7575757575758"/>
      <point x="438.74242424242425" y="1777.419191919192" type="curve"/>
      <point x="438.74242424242425" y="1686.5858585858587" type="line"/>
      <point x="488.06060606060606" y="1734.2323232323233"/>
      <point x="538.8989898989898" y="1756.590909090909"/>
      <point x="612.7979797979798" y="1756.590909090909" type="curve" smooth="yes"/>
      <point x="715.3838383838383" y="1756.590909090909"/>
      <point x="806.0808080808081" y="1681.7323232323233"/>
    </contour>
  </outline>
</glyph>
<glyph name="Ocircumflex" format="2">
  <advance width="1512.141414141414"/>
  <unicode hex="00D4"/>
  <anchor x="756.070707070707" y="1520.0" name="_top"/>
  <anchor x="756.070707070707" y="0.0" name="bottom"/>
  <anchor x="756.070707070707" y="740.0" name="center"/>
  <anchor x="925.5757575757576" y="0.0" name="ogonek"/>
  <anchor x="756.070707070707" y="1520.0" name="top"/>
  <anchor x="48.2020202020202" y="1480.0" name="topleft"/>
  <anchor x="931.6414141414142" y="1480.0" name="topright"/>
  <outline>
    <contour>
      <point x="756.070707070707" y="-18.282828282828284" type="curve" smooth="yes"/>
      <point x="1131.79797979798" y="-18.282828282828284"/>
      <point x="1391.4242424242425" y="209.27777777777777"/>
      <point x="1391.4242424242425" y="740.0" type="curve" smooth="yes"/>
      <point x="1391.4242424242425" y="1270.7222222222222"/>
      <point x="1135.8737373737374" y="1498.2828282828282"/>
      <point x="756.070707070707" y="1498.2828282828282" type="curve" smooth="yes"/>
      <point x="380.13131313131316" y="1498.2828282828282"/>
      <point x="120.71717171717171" y="1271.1464646464647"/>
      <point x="120.71717171717171" y="740.0" type="curve" smooth="yes"/>
      <point x="120.71717171717171" y="208.85353535353536"/>
      <point x="376.479797979798" y="-18.282828282828284"/>
    </contour>
    <contour>
      <point x="756.070707070707" y="90.15656565656569" type="curve" smooth="yes"/>
      <point x="452.3636363636364" y="90.15656565656569"/>
      <point x="248.15151515151518" y="265.59595959595964"/>
      <point x="248.15151515151518" y="744.5656565656566" type="curve" smooth="yes"/>
      <point x="248.15151515151518" y="1214.4040404040404"/>
      <point x="453.0" y="1389.8434343434344"/>
      <point x="756.070707070707" y="1389.8434343434344" type="curve" smooth="yes"/>
      <point x="1059.141414141414" y="1389.8434343434344"/>
      <point x="1263.989898989899" y="1213.7676767676767"/>
      <point x="1263.989898989899" y="735.4343434343434" type="curve" smooth="yes"/>
      <point x="1263.989898989899" y="266.23232323232327"/>
      <point x="1059.7777777777778" y="90.15656565656569"/>
    </contour>
    <contour>
      <point x="430.4040404040404" y="1611.7575757575758" type="line"/>
      <point x="552.3282828282829" y="1611.7575757575758" type="line"/>
      <point x="774.1868686868687" y="1848.8939393939395" type="line"/>
      <point x="737.9545454545455" y="1848.8939393939395" type="line"/>
      <point x="959.8131313131313" y="1611.7575757575758" type="line"/>
      <point x="1081.7373737373737" y="1611.7575757575758" type="line"/>
      <point x="814.7878787878788" y="1889.979797979798" type="line"/>
      <point x="697.3535353535353" y="1889.979797979798" type="line"/>
    </contour>
  </outline>
</glyph>
<glyph name="Otilde" format="2">
  <advance width="1512.141414141414"/>
  <unicode hex="00D5"/>
  <anchor x="756.070707070707" y="1520.0" name="_top"/>
  <anchor x="756.070707070707" y="0.0" name="bottom"/>
  <anchor x="756.070707070707" y="740.0" name="center"/>
  <anchor x="925.5757575757576" y="0.0" name="ogonek"/>
  <anchor x="756.070707070707" y="1520.0" name="top"/>
  <anchor x="48.2020202020202" y="1480.0" name="topleft"/>
  <anchor x="931.6414141414142" y="1480.0" name="topright"/>
  <outline>
    <contour>
      <point x="756.070707070707" y="-18.282828282828284" type="curve" smooth="yes"/>
      <point x="1131.79797979798" y="-18.282828282828284"/>
      <point x="1391.4242424242425" y="209.27777777777777"/>
      <point x="1391.4242424242425" y="740.0" type="curve" smooth="yes"/>
      <point x="1391.4242424242425" y="1270.7222222222222"/>
      <point x="1135.8737373737374" y="1498.2828282828282"/>
      <point x="756.070707070707" y="1498.2828282828282" type="curve" smooth="yes"/>
      <point x="380.13131313131316" y="1498.2828282828282"/>
      <point x="120.71717171717171" y="1271.1464646464647"/>
      <point x="120.71717171717171" y="740.0" type="curve" smooth="yes"/>
      <point x="120.71717171717171" y="208.85353535353536"/>
      <point x="376.479797979798" y="-18.282828282828284"/>
    </contour>
    <contour>
      <point x="756.070707070707" y="90.15656565656569" type="curve" smooth="yes"/>
      <point x="452.3636363636364" y="90.15656565656569"/>
      <point x="248.15151515151518" y="265.59595959595964"/>
      <point x="248.15151515151518" y="744.5656565656566" type="curve" smooth="yes"/>
      <point x="248.15151515151518" y="1214.4040404040404"/>
      <point x="453.0" y="1389.8434343434344"/>
      <point x="756.070707070707" y="1389.8434343434344" type="curve" smooth="yes"/>
      <point x="1059.141414141414" y="1389.8434343434344"/>
      <point x="1263.989898989899" y="1213.7676767676767"/>
      <point x="1263.989898989899" y="735.4343434343434" type="curve" smooth="yes"/>
      <point x="1263.989898989899" y="266.23232323232327"/>
      <point x="1059.7777777777778" y="90.15656565656569"/>
    </contour>
    <contour>
      <point x="913.5858585858587" y="1681.7323232323233" type="curve" smooth="yes"/>
      <point x="992.2575757575758" y="1681.7323232323233"/>
      <point x="1047.949494949495" y="1702.8737373737374"/>
      <point x="1089.0555555555557" y="1744.2121212121212" type="curve"/>
      <point x="1089.0555555555557" y="1835.0454545454545" type="line"/>
      <point x="1039.7373737373737" y="1787.3989898989898"/>
      <point x="988.89898989899" y="1765.0404040404042"/>
      <point x="915.0" y="1765.0404040404042" type="curve" smooth="yes"/>
      <point x="812.4141414141415" y="1765.0404040404042"/>
      <point x="721.7171717171717" y="1840.1818181818182"/>
      <point x="598.5555555555555" y="1840.1818181818182" type="curve" smooth="yes"/>
      <point x="519.8838383838383" y="1840.1818181818182"/>
      <point x="464.19191919191917" y="1818.7575757575758"/>
      <point x="423.0858585858586" y="1777.419191919192" type="curve"/>
      <point x="423.0858585858586" y="1686.5858585858587" type="line"/>
      <point x="472.4040404040404" y="1734.2323232323233"/>
      <point x="523.2424242424242" y="1756.590909090909"/>
      <point x="597.1414141414141" y="1756.590909090909" type="curve" smooth="yes"/>
      <point x="699.7272727272727" y="1756.590909090909"/>
      <point x="790.4242424242425" y="1681.7323232323233"/>
    </contour>
  </outline>
</glyph>
<glyph name="multiply" format="2">
  <advance width="1005.2727272727273"/>
  <unicode hex="00D7"/>
  <outline>
    <contour>
      <point x="203.40404040404042" y="390.04040404040404" type="line"/>
      <point x="502.6363636363636" y="689.2727272727273" type="line"/>
      <point x="801.8686868686868" y="390.04040404040404" type="line"/>
      <point x="872.5959595959596" y="460.7676767676768" type="line"/>
      <point x="573.3636363636364" y="760.0" type="line"/>
      <point x="872.5959595959596" y="1059.2323232323233" type="line"/>
      <point x="801.8686868686868" y="1129.959595959596" type="line"/>
      <point x="502.6363636363636" y="830.7272727272727" type="line"/>
      <point x="203.40404040404042" y="1129.959595959596" type="line"/>
      <point x="132.67676767676767" y="1059.2323232323233" type="line"/>
      <point x="431.9090909090909" y="760.0" type="line"/>
      <point x="132.67676767676767" y="460.7676767676768" type="line"/>
    </contour>
  </outline>
</glyph>
<glyph name="Uacute" format="2">
  <advance width="1486.2222222222222"/>
  <unicode hex="00DA"/>
  <anchor x="744.570707070707" y="1520.0" name="_top"/>
  <anchor x="744.570707070707" y="0.0" name="bottom"/>
  <anchor x="904.0505050505051" y="2.5757575757575752" name="ogonek"/>
  <anchor x="744.570707070707" y="1520.0" name="top"/>
  <anchor x="1185.2727272727273" y="1480.0" name="topright"/>
  <outline>
    <contour>
      <point x="744.570707070707" y="-18.282828282828284" type="curve" smooth="yes"/>
      <point x="1127.7373737373737" y="-18.282828282828284"/>
      <point x="1302.7474747474748" y="162.1818181818182"/>
      <point x="1302.7474747474748" y="565.0353535353536" type="curve" smooth="yes"/>
      <point x="1302.7474747474748" y="1480.0" type="line"/>
      <point x="1182.8686868686868" y="1480.0" type="line"/>
      <point x="1182.8686868686868" y="550.8636363636364" type="line" smooth="yes"/>
      <point x="1182.8686868686868" y="229.09090909090912"/>
      <point x="1045.7878787878788" y="89.85858585858588"/>
      <point x="744.570707070707" y="89.85858585858588" type="curve" smooth="yes"/>
      <point x="443.3535353535354" y="89.85858585858588"/>
      <point x="306.2020202020202" y="229.09090909090912"/>
      <point x="306.2020202020202" y="550.8636363636364" type="curve" smooth="yes"/>
      <point x="306.2020202020202" y="1480.0" type="line"/>
      <point x="183.47474747474746" y="1480.0" type="line"/>
      <point x="183.47474747474746" y="565.0353535353536" type="line" smooth="yes"/>
      <point x="183.47474747474746" y="162.1818181818182"/>
      <point x="360.2020202020202" y="-18.282828282828284"/>
    </contour>
    <contour>
      <point x="686.60101010101" y="1611.7575757575758" type="line"/>
      <point x="801.6919191919192" y="1611.7575757575758" type="line"/>
      <point x="1021.1262626262627" y="1889.979797979798" type="line"/>
      <point x="884.3939393939394" y="1889.979797979798" type="line"/>
    </contour>
  </outline>
</glyph>
<glyph name="Udieresis" format="2">
  <advance width="1486.2222222222222"/>
  <unicode hex="00DC"/>
  <anchor x="744.570707070707" y="1520.0" name="_top"/>
  <anchor x="744.570707070707" y="0.0" name="bottom"/>
  <anchor x="904.0505050505051" y="2.5757575757575752" name="ogonek"/>
  <anchor x="744.570707070707" y="1520.0" name="top"/>
  <anchor x="1185.2727272727273" y="1480.0" name="topright"/>
  <outline>
    <contour>
      <point x="744.570707070707" y="-18.282828282828284" type="curve" smooth="yes"/>
      <point x="1127.7373737373737" y="-18.282828282828284"/>
      <point x="1302.7474747474748" y="162.1818181818182"/>
      <point x="1302.7474747474748" y="565.0353535353536" type="curve" smooth="yes"/>
      <point x="1302.7474747474748" y="1480.0" type="line"/>
      <point x="1182.8686868686868" y="1480.0" type="line"/>
      <point x="1182.8686868686868" y="550.8636363636364" type="line" smooth="yes"/>
      <point x="1182.8686868686868" y="229.09090909090912"/>
      <point x="1045.7878787878788" y="89.85858585858588"/>
      <point x="744.570707070707" y="89.85858585858588" type="curve" smooth="yes"/>
      <point x="443.3535353535354" y="89.85858585858588"/>
      <point x="306.2020202020202" y="229.09090909090912"/>
      <point x="306.2020202020202" y="550.8636363636364" type="curve" smooth="yes"/>
      <point x="306.2020202020202" y="1480.0" type="line"/>
      <point x="183.47474747474746" y="1480.0" type="line"/>
      <point x="183.47474747474746" y="565.0353535353536" type="line" smooth="yes"/>
      <point x="183.47474747474746" y="162.1818181818182"/>
      <point x="360.2020202020202" y="-18.282828282828284"/>
    </contour>
    <contour>
      <point x="990.8636363636364" y="1673.030303030303" type="curve" smooth="yes"/>
      <point x="1043.409090909091" y="1673.030303030303"/>
      <point x="1075.6313131313132" y="1703.111111111111"/>
      <point x="1075.6313131313132" y="1751.7171717171718" type="curve" smooth="yes"/>
      <point x="1075.6313131313132" y="1800.3232323232323"/>
      <point x="1043.409090909091" y="1832.1212121212122"/>
      <point x="990.8636363636364" y="1832.1212121212122" type="curve" smooth="yes"/>
      <point x="938.3181818181818" y="1832.1212121212122"/>
      <point x="906.0959595959596" y="1800.3232323232323"/>
      <point x="906.0959595959596" y="1751.7171717171718" type="curve" smooth="yes"/>
      <point x="906.0959595959596" y="1703.111111111111"/>
      <point x="938.3181818181818" y="1673.030303030303"/>
    </contour>
    <contour>
      <point x="498.27777777777777" y="1673.030303030303" type="curve" smooth="yes"/>
      <point x="550.8232323232323" y="1673.030303030303"/>
      <point x="583.0454545454546" y="1703.111111111111"/>
      <point x="583.0454545454546" y="1751.7171717171718" type="curve" smooth="yes"/>
      <point x="583.0454545454546" y="1800.3232323232323"/>
      <point x="550.8232323232323" y="1832.1212121212122"/>
      <point x="498.27777777777777" y="1832.1212121212122" type="curve" smooth="yes"/>
      <point x="445.7323232323232" y="1832.1212121212122"/>
      <point x="413.510101010101" y="1800.3232323232323"/>
      <point x="413.510101010101" y="1751.7171717171718" type="curve" smooth="yes"/>
      <point x="413.510101010101" y="1703.111111111111"/>
      <point x="445.7323232323232" y="1673.030303030303"/>
    </contour>
  </outline>
</glyph>
<glyph name="Thorn" format="2">
  <advance width="1287.4949494949494"/>
  <unicode hex="00DE"/>
  <outline>
    <contour>
      <point x="191.19191919191917" y="0.0" type="line"/>
      <point x="313.919191919192" y="0.0" type="line"/>
      <point x="313.919191919192" y="273.54040404040404" type="line"/>
      <point x="395.99494949494954" y="265.8131313131313"/>
      <point x="462.89393939393943" y="262.52525252525254"/>
      <point x="543.8888888888889" y="262.52525252525254" type="curve" smooth="yes"/>
      <point x="986.4545454545455" y="262.52525252525254"/>
      <point x="1179.590909090909" y="439.510101010101"/>
      <point x="1179.590909090909" y="762.1464646464647" type="curve" smooth="yes"/>
      <point x="1179.590909090909" y="1105.1464646464647"/>
      <point x="970.7171717171717" y="1257.5454545454545"/>
      <point x="581.030303030303" y="1257.5454545454545" type="curve" smooth="yes"/>
      <point x="468.8787878787879" y="1257.5454545454545"/>
      <point x="384.8585858585859" y="1247.8181818181818"/>
      <point x="313.919191919192" y="1235.79797979798" type="curve"/>
      <point x="313.919191919192" y="1481.2878787878788" type="line"/>
      <point x="191.19191919191917" y="1481.2878787878788" type="line"/>
    </contour>
    <contour>
      <point x="545.1767676767677" y="364.8686868686869" type="curve" smooth="yes"/>
      <point x="458.39393939393943" y="364.8686868686869"/>
      <point x="388.11616161616166" y="369.44444444444446"/>
      <point x="313.919191919192" y="379.4545454545455" type="curve"/>
      <point x="313.919191919192" y="1132.6060606060605" type="line"/>
      <point x="395.71212121212125" y="1147.1919191919192"/>
      <point x="481.23232323232327" y="1155.20202020202"/>
      <point x="586.0505050505051" y="1155.20202020202" type="curve" smooth="yes"/>
      <point x="899.8484848484849" y="1155.20202020202"/>
      <point x="1055.7626262626263" y="1035.5454545454545"/>
      <point x="1055.7626262626263" y="759.8585858585859" type="curve" smooth="yes"/>
      <point x="1055.7626262626263" y="495.989898989899"/>
      <point x="909.2929292929293" y="364.8686868686869"/>
    </contour>
  </outline>
</glyph>
<glyph name="germandbls" format="2">
  <advance width="1430.9292929292928"/>
  <unicode hex="00DF"/>
  <outline>
    <contour>
      <point x="916.1515151515152" y="-18.565656565656568" type="curve" smooth="yes"/>
      <point x="1208.1212121212122" y="-18.565656565656568"/>
      <point x="1349.0101010101012" y="101.11111111111111"/>
      <point x="1349.0101010101012" y="291.3939393939394" type="curve" smooth="yes"/>
      <point x="1349.0101010101012" y="450.29292929292933"/>
      <point x="1267.080808080808" y="537.0858585858585"/>
      <point x="1056.1464646464647" y="578.7474747474747" type="curve" smooth="yes"/>
      <point x="898.8181818181819" y="608.1717171717172" type="line" smooth="yes"/>
      <point x="755.868686868687" y="636.9949494949495"/>
      <point x="709.8131313131314" y="703.6616161616162"/>
      <point x="709.8131313131314" y="797.0" type="curve" smooth="yes"/>
      <point x="709.8131313131314" y="912.2878787878788"/>
      <point x="790.2575757575758" y="999.5252525252525"/>
      <point x="1026.520202020202" y="999.5252525252525" type="curve" smooth="yes"/>
      <point x="1098.318181818182" y="999.5252525252525"/>
      <point x="1143.939393939394" y="992.8030303030303"/>
      <point x="1182.3434343434344" y="986.1565656565656" type="curve"/>
      <point x="1197.1919191919192" y="1041.540404040404"/>
      <point x="1208.7575757575758" y="1122.8484848484848"/>
      <point x="1208.7575757575758" y="1185.6616161616162" type="curve" smooth="yes"/>
      <point x="1208.7575757575758" y="1502.2373737373737"/>
      <point x="1011.6464646464647" y="1636.0"/>
      <point x="747.2121212121212" y="1636.0" type="curve" smooth="yes"/>
      <point x="427.97474747474746" y="1636.0"/>
      <point x="242.98484848484847" y="1466.1363636363635"/>
      <point x="242.98484848484847" y="1117.9595959595958" type="curve" smooth="yes"/>
      <point x="242.98484848484847" y="0.0" type="line"/>
      <point x="364.22727272727275" y="0.0" type="line"/>
      <point x="364.22727272727275" y="1114.4343434343434" type="line" smooth="yes"/>
      <point x="364.22727272727275" y="1416.540404040404"/>
      <point x="503.6363636363637" y="1538.1818181818182"/>
      <point x="751.7272727272727" y="1538.1818181818182" type="curve" smooth="yes"/>
      <point x="957.6212121212121" y="1538.1818181818182"/>
      <point x="1110.3939393939395" y="1447.8737373737374"/>
      <point x="1109.1060606060607" y="1190.010101010101" type="curve" smooth="yes"/>
      <point x="1109.1060606060607" y="1145.3383838383838"/>
      <point x="1102.328282828283" y="1088.6363636363635"/>
      <point x="1090.1969696969697" y="1041.3787878787878" type="curve"/>
      <point x="1159.6262626262626" y="1086.2626262626263" type="line"/>
      <point x="1112.2626262626263" y="1092.409090909091"/>
      <point x="1060.989898989899" y="1095.6969696969697"/>
      <point x="1015.9848484848485" y="1095.6969696969697" type="curve" smooth="yes"/>
      <point x="722.5555555555555" y="1095.6969696969697"/>
      <point x="589.8787878787879" y="968.8535353535353"/>
      <point x="589.8787878787879" y="790.2272727272727" type="curve" smooth="yes"/>
      <point x="589.8787878787879" y="640.3585858585858"/>
      <point x="668.9949494949495" y="542.7373737373737"/>
      <point x="875.2979797979798" y="502.65656565656565" type="curve" smooth="yes"/>
      <point x="1032.6262626262626" y="473.2323232323232" type="line" smooth="yes"/>
      <point x="1179.0101010101012" y="444.4090909090909"/>
      <point x="1229.0757575757575" y="390.550505050505"/>
      <point x="1229.0757575757575" y="282.979797979798" type="curve" smooth="yes"/>
      <point x="1229.0757575757575" y="155.32323232323233"/>
      <point x="1141.060606060606" y="81.02020202020205"/>
      <point x="918.1666666666667" y="81.02020202020205" type="curve" smooth="yes"/>
      <point x="816.909090909091" y="81.02020202020205"/>
      <point x="720.3030303030303" y="92.64646464646466"/>
      <point x="607.2828282828283" y="125.23232323232325" type="curve"/>
      <point x="607.2828282828283" y="23.717171717171716" type="line"/>
      <point x="704.7474747474748" y="-6.141414141414142"/>
      <point x="806.2272727272727" y="-18.565656565656568"/>
    </contour>
    <contour>
      <point x="21.469696969696972" y="976.10101010101" type="line"/>
      <point x="306.979797979798" y="976.10101010101" type="line"/>
      <point x="306.979797979798" y="1082.828282828283" type="line"/>
      <point x="21.469696969696972" y="1082.828282828283" type="line"/>
    </contour>
  </outline>
</glyph>
